M48
; DRILL file KiCad 10.0.6 date 2026-10-03T23:19:29
; FORMAT={-:-/ absolute / metric / decimal}
; #@! TF.CreationDate,2026-10-03T23:19:29+01:00
; #@! TF.GenerationSoftware,Kicad,Pcbnew,10.0.6
; #@! TF.FileFunction,Plated,1,2,PTH
FMAT,2
METRIC
; #@! TA.AperFunction,Plated,PTH,ViaDrill
T1C0.300
; #@! TA.AperFunction,Plated,PTH,ComponentDrill
T2C0.300
; #@! TA.AperFunction,Plated,PTH,ComponentDrill
T3C0.600
; #@! TA.AperFunction,Plated,PTH,ComponentDrill
T4C0.850
; #@! TA.AperFunction,Plated,PTH,ComponentDrill
T5C1.000
; #@! TA.AperFunction,Plated,PTH,ComponentDrill
T6C3.700
%
G90
G05
T1
X14.7Y-14.9
X15.3Y-12.75
X15.55Y-14.8
X15.6Y-33.25
X16.3Y-22.1
X16.425Y-14.8
X16.6Y-27.0
X16.9Y-28.6
X18.75Y-26.83
X20.82Y-14.3
X21.0Y-33.4
X21.5Y-22.85
X21.6Y-24.0
X21.6Y-26.6
X21.7Y-18.4
X21.78Y-12.62
X21.9Y-19.9
X22.2Y-28.6
X22.42Y-12.62
X23.06Y-12.62
X23.5Y-19.9
X23.64Y-28.8
X23.7Y-33.3
X25.3Y-27.6
X26.0Y-28.7
X26.3Y-19.8
X27.0Y-29.6
X28.2Y-30.2
X29.9Y-19.7
X29.9Y-20.3
X29.95Y-27.66
X30.0Y-19.1
X30.7Y-18.2
X31.0Y-29.4
X36.4Y-19.0
X36.4Y-28.7
T2
X23.36Y-15.71
X23.36Y-16.89
X24.54Y-15.71
X24.54Y-16.89
T4
X18.25Y-17.29
X20.25Y-17.29
T5
X13.48Y-13.69
X13.48Y-16.23
X13.48Y-18.77
X13.48Y-21.31
X13.48Y-23.85
X13.48Y-26.35
X13.48Y-28.93
X13.48Y-31.47
X13.48Y-34.01
X28.72Y-13.69
X28.72Y-16.23
X28.72Y-18.77
X28.72Y-21.31
X28.72Y-23.85
X28.72Y-26.39
X28.72Y-28.93
X28.72Y-31.47
X28.72Y-34.01
T6
X33.3Y-15.35
X33.3Y-32.35
T3
X32.097Y-19.53G85X30.998Y-19.53
G05
X32.097Y-28.17G85X30.998Y-28.17
G05
X36.147Y-19.53G85X35.348Y-19.53
G05
X36.147Y-28.17G85X35.348Y-28.17
G05
M30
