G04 #@! TF.GenerationSoftware,KiCad,Pcbnew,10.0.6*
G04 #@! TF.CreationDate,2026-10-03T23:19:28+01:00*
G04 #@! TF.ProjectId,lock-picking,6c6f636b-2d70-4696-936b-696e672e6b69,v2*
G04 #@! TF.SameCoordinates,Original*
G04 #@! TF.FileFunction,Copper,L1,Top*
G04 #@! TF.FilePolarity,Positive*
%FSLAX46Y46*%
G04 Gerber Fmt 4.6, Leading zero omitted, Abs format (unit mm)*
G04 Created by KiCad (PCBNEW 10.0.6) date 2026-10-03 23:19:28*
%MOMM*%
%LPD*%
G01*
G04 APERTURE LIST*
G04 #@! TA.AperFunction,ComponentPad*
%ADD10R,1.500000X1.400000*%
G04 #@! TD*
G04 #@! TA.AperFunction,ComponentPad*
%ADD11C,1.400000*%
G04 #@! TD*
G04 #@! TA.AperFunction,SMDPad,CuDef*
%ADD12C,1.500000*%
G04 #@! TD*
G04 #@! TA.AperFunction,ComponentPad*
%ADD13C,4.200000*%
G04 #@! TD*
G04 #@! TA.AperFunction,SMDPad,CuDef*
%ADD14C,5.600000*%
G04 #@! TD*
G04 #@! TA.AperFunction,ComponentPad*
%ADD15C,1.508000*%
G04 #@! TD*
G04 #@! TA.AperFunction,ComponentPad*
%ADD16R,1.508000X1.508000*%
G04 #@! TD*
G04 #@! TA.AperFunction,ComponentPad*
%ADD17C,0.500000*%
G04 #@! TD*
G04 #@! TA.AperFunction,ComponentPad*
%ADD18O,2.000000X1.000000*%
G04 #@! TD*
G04 #@! TA.AperFunction,ComponentPad*
%ADD19O,1.800000X1.000000*%
G04 #@! TD*
G04 #@! TA.AperFunction,ViaPad*
%ADD20C,0.600000*%
G04 #@! TD*
G04 #@! TA.AperFunction,ViaPad*
%ADD21C,0.500000*%
G04 #@! TD*
G04 #@! TA.AperFunction,Conductor*
%ADD22C,0.250000*%
G04 #@! TD*
G04 #@! TA.AperFunction,Conductor*
%ADD23C,0.400000*%
G04 #@! TD*
G04 #@! TA.AperFunction,Conductor*
%ADD24C,0.200000*%
G04 #@! TD*
G04 #@! TA.AperFunction,Conductor*
%ADD25C,0.300000*%
G04 #@! TD*
G04 APERTURE END LIST*
D10*
G04 #@! TO.P,J2,1,1_1*
G04 #@! TO.N,/MOT_OUT1*
X20250000Y-17290000D03*
D11*
G04 #@! TO.P,J2,2,2_2*
G04 #@! TO.N,/MOT_OUT2*
X18250000Y-17290000D03*
G04 #@! TD*
D12*
G04 #@! TO.P,TP3,1,1_1*
G04 #@! TO.N,/EXP_TX*
X24910000Y-34000000D03*
G04 #@! TD*
G04 #@! TO.P,TP8,1,1_1*
G04 #@! TO.N,+12V*
X35200000Y-22600000D03*
G04 #@! TD*
G04 #@! TO.P,TP9,1,1_1*
G04 #@! TO.N,GND*
X35200000Y-25140000D03*
G04 #@! TD*
G04 #@! TO.P,TP1,1,1_1*
G04 #@! TO.N,/EXP_IO12*
X21100000Y-30750000D03*
G04 #@! TD*
D13*
G04 #@! TO.P,H1,1*
G04 #@! TO.N,GND*
X33299999Y-15350000D03*
D14*
X33299999Y-15350000D03*
G04 #@! TD*
D12*
G04 #@! TO.P,TP6,1,1_1*
G04 #@! TO.N,VBUS*
X17290000Y-34000000D03*
G04 #@! TD*
D13*
G04 #@! TO.P,H2,1*
G04 #@! TO.N,GND*
X33299999Y-32350000D03*
D14*
X33299999Y-32350000D03*
G04 #@! TD*
D12*
G04 #@! TO.P,TP5,1,1_1*
G04 #@! TO.N,+3V3*
X23640000Y-30750000D03*
G04 #@! TD*
D15*
G04 #@! TO.P,U1,1,GPIO1_1*
G04 #@! TO.N,/DRV_IPROPI*
X28720000Y-28930000D03*
G04 #@! TO.P,U1,2,GPIO2_2*
G04 #@! TO.N,/DRV_nFAULT*
X28720000Y-26390000D03*
G04 #@! TO.P,U1,3,GPIO3_3*
G04 #@! TO.N,/I2C_SDA*
X28720000Y-23850000D03*
G04 #@! TO.P,U1,3V3,3V3_3V3*
G04 #@! TO.N,+3V3*
X13480000Y-28930000D03*
G04 #@! TO.P,U1,4,GPIO4_4*
G04 #@! TO.N,/I2C_SCL*
X28720000Y-21310000D03*
G04 #@! TO.P,U1,5,GPIO5_5*
G04 #@! TO.N,/DRV_nSLEEP*
X28720000Y-18770000D03*
D16*
G04 #@! TO.P,U1,5V,5V_5V*
G04 #@! TO.N,VBUS*
X13480000Y-34010000D03*
D15*
G04 #@! TO.P,U1,6,GPIO6_6*
G04 #@! TO.N,/DRV_IN2_PH*
X28720000Y-16230000D03*
G04 #@! TO.P,U1,7,GPIO7_7*
G04 #@! TO.N,/DRV_IN1_EN*
X28720000Y-13690000D03*
G04 #@! TO.P,U1,8,GPIO8_8*
G04 #@! TO.N,unconnected-(U1-GPIO8-Pad8)*
X13480000Y-13690000D03*
G04 #@! TO.P,U1,9,GPIO9_9*
G04 #@! TO.N,/MAG_SDA*
X13480000Y-16230000D03*
G04 #@! TO.P,U1,10,GPIO10_10*
G04 #@! TO.N,/MAG_SCL*
X13480000Y-18770000D03*
G04 #@! TO.P,U1,11,GPIO11_11*
G04 #@! TO.N,/MAG_INT*
X13480000Y-21310000D03*
G04 #@! TO.P,U1,12,GPIO12_12*
G04 #@! TO.N,/EXP_IO12*
X13480000Y-23850000D03*
G04 #@! TO.P,U1,13,GPIO13_13*
G04 #@! TO.N,/EXP_IO13*
X13480000Y-26350000D03*
G04 #@! TO.P,U1,GND,GND_GND*
G04 #@! TO.N,GND*
X13480000Y-31470000D03*
G04 #@! TO.P,U1,RX,RX_RX*
G04 #@! TO.N,/EXP_RX*
X28720000Y-31470000D03*
G04 #@! TO.P,U1,TX,TX_TX*
G04 #@! TO.N,/EXP_TX*
X28720000Y-34010000D03*
G04 #@! TD*
D12*
G04 #@! TO.P,TP2,1,1_1*
G04 #@! TO.N,/EXP_IO13*
X18560000Y-30750000D03*
G04 #@! TD*
G04 #@! TO.P,TP7,1,1_1*
G04 #@! TO.N,GND*
X19830000Y-34000000D03*
G04 #@! TD*
G04 #@! TO.P,TP4,1,1_1*
G04 #@! TO.N,/EXP_RX*
X22369999Y-34000000D03*
G04 #@! TD*
D17*
G04 #@! TO.P,U2,17*
G04 #@! TO.N,GND*
X23360000Y-16890000D03*
X24540000Y-16890000D03*
X23360000Y-15710000D03*
X24540000Y-15710000D03*
G04 #@! TD*
D18*
G04 #@! TO.P,J1,17*
G04 #@! TO.N,GND*
X31547500Y-19530000D03*
D19*
G04 #@! TO.P,J1,18*
X35747500Y-19530000D03*
G04 #@! TO.P,J1,19*
X35747500Y-28170000D03*
D18*
G04 #@! TO.P,J1,20*
X31547500Y-28170000D03*
G04 #@! TD*
D20*
G04 #@! TO.N,+12V*
X29950000Y-27660000D03*
X22420000Y-12620000D03*
X23060000Y-12620000D03*
X29900000Y-20300000D03*
X29900000Y-19700000D03*
X30000000Y-19100000D03*
X21780000Y-12620000D03*
G04 #@! TO.N,GND*
X22200000Y-28600000D03*
X21000000Y-33400000D03*
X31000000Y-29400000D03*
X30700000Y-18200000D03*
X16900000Y-28600000D03*
X28200000Y-30200000D03*
X16425000Y-14800000D03*
X14700000Y-14900000D03*
X36400000Y-28700000D03*
X21600000Y-24000000D03*
X15600000Y-33250000D03*
X27000000Y-29600000D03*
X20820000Y-14300000D03*
X23700000Y-33299999D03*
X26000000Y-28700000D03*
D21*
X16600000Y-27000000D03*
D20*
X25300000Y-27600000D03*
X15550000Y-14800000D03*
X15300000Y-12750000D03*
D21*
X18750000Y-26830000D03*
D20*
X26300000Y-19800000D03*
X21600000Y-26600000D03*
X21500000Y-22850000D03*
X21700000Y-18400000D03*
X36400000Y-19000000D03*
G04 #@! TO.N,+3V3*
X23640000Y-28800000D03*
D21*
X23500000Y-19900000D03*
X21900000Y-19900000D03*
G04 #@! TO.N,/MAG_INT*
X16300000Y-22100000D03*
G04 #@! TD*
G04 #@! TO.N,/EXP_TX*
D22*
X28720000Y-34010000D02*
X24910000Y-34000000D01*
G04 #@! TO.N,GND*
D23*
X35200000Y-25140000D02*
X35200000Y-28170000D01*
G04 #@! TO.N,/EXP_IO12*
D24*
X15650000Y-29600000D02*
X20500000Y-29600000D01*
X15050000Y-29000000D02*
X15650000Y-29600000D01*
X14400000Y-23850000D02*
X15050000Y-24500000D01*
X13480000Y-23850000D02*
X14400000Y-23850000D01*
X21100000Y-30200000D02*
X21100000Y-30750000D01*
X15050000Y-24500000D02*
X15050000Y-29000000D01*
X20500000Y-29600000D02*
X21100000Y-30200000D01*
G04 #@! TO.N,VBUS*
D23*
X13480000Y-34010000D02*
X17290000Y-34000000D01*
G04 #@! TO.N,+3V3*
D25*
X21900000Y-19900000D02*
X23500000Y-19900000D01*
X23640000Y-28800000D02*
X23640000Y-30750000D01*
G04 #@! TO.N,/MAG_INT*
D24*
X16300000Y-22100000D02*
X14300000Y-22100000D01*
X14300000Y-22100000D02*
X13480000Y-21310000D01*
G04 #@! TO.N,/EXP_IO13*
X14550000Y-27420000D02*
X14550000Y-30200000D01*
X15100000Y-30750000D02*
X18560000Y-30750000D01*
X13480000Y-26350000D02*
X14550000Y-27420000D01*
X14550000Y-30200000D02*
X15100000Y-30750000D01*
G04 #@! TO.N,/EXP_RX*
D22*
X22369999Y-33120000D02*
X22369999Y-34000000D01*
X23200000Y-32290000D02*
X22369999Y-33120000D01*
X27900000Y-32290000D02*
X23200000Y-32290000D01*
X28720000Y-31470000D02*
X27900000Y-32290000D01*
G04 #@! TD*
G04 #@! TA.AperFunction,Conductor*
G04 #@! TO.N,GND*
G36*
X20903691Y-12319407D02*
G01*
X20939655Y-12368907D01*
X20944500Y-12399500D01*
X20944500Y-13401000D01*
X20947645Y-13440965D01*
X20951560Y-13465686D01*
X20952492Y-13471570D01*
X20956405Y-13491240D01*
X20998138Y-13581768D01*
X20998141Y-13581773D01*
X21034101Y-13631269D01*
X21034104Y-13631272D01*
X21034105Y-13631273D01*
X21074876Y-13675378D01*
X21161857Y-13724088D01*
X21220048Y-13742995D01*
X21220049Y-13742995D01*
X21220052Y-13742996D01*
X21298997Y-13755500D01*
X21299000Y-13755500D01*
X25945500Y-13755500D01*
X26003691Y-13774407D01*
X26039655Y-13823907D01*
X26044500Y-13854500D01*
X26044500Y-19154152D01*
X26044586Y-19160766D01*
X26044724Y-19166001D01*
X26061605Y-19250854D01*
X26083530Y-19307974D01*
X26111497Y-19361132D01*
X26111498Y-19361134D01*
X26162000Y-19410330D01*
X26182906Y-19430696D01*
X26234220Y-19464020D01*
X26240201Y-19466683D01*
X26241264Y-19467156D01*
X26286735Y-19508095D01*
X26300000Y-19557598D01*
X26300000Y-20043137D01*
X26281093Y-20101328D01*
X26244788Y-20131927D01*
X26218229Y-20145024D01*
X26168725Y-20180991D01*
X26124622Y-20221761D01*
X26124621Y-20221762D01*
X26075913Y-20308740D01*
X26057003Y-20366937D01*
X26044500Y-20445881D01*
X26044500Y-20450500D01*
X26025593Y-20508691D01*
X25976093Y-20544655D01*
X25945500Y-20549500D01*
X25741967Y-20549500D01*
X25500932Y-20587675D01*
X25268813Y-20663096D01*
X25051363Y-20773890D01*
X24853919Y-20917343D01*
X24681343Y-21089919D01*
X24537890Y-21287363D01*
X24427096Y-21504813D01*
X24351675Y-21736932D01*
X24313500Y-21977965D01*
X24313500Y-22222033D01*
X24351675Y-22463066D01*
X24427096Y-22695185D01*
X24537891Y-22912636D01*
X24572177Y-22959825D01*
X24572178Y-22959828D01*
X24652049Y-23069761D01*
X24681345Y-23110083D01*
X24853917Y-23282655D01*
X24853920Y-23282657D01*
X24853922Y-23282659D01*
X24911554Y-23324530D01*
X24997367Y-23386876D01*
X24997368Y-23386878D01*
X25033231Y-23412933D01*
X25051362Y-23426107D01*
X25140566Y-23471558D01*
X25268815Y-23536904D01*
X25500822Y-23612288D01*
X25500923Y-23612321D01*
X25500926Y-23612321D01*
X25500928Y-23612322D01*
X25574328Y-23623947D01*
X25741967Y-23650500D01*
X25986030Y-23650500D01*
X25986032Y-23650500D01*
X26073808Y-23636597D01*
X26227071Y-23612322D01*
X26227071Y-23612321D01*
X26227073Y-23612321D01*
X26227076Y-23612321D01*
X26227079Y-23612320D01*
X26229655Y-23611912D01*
X26234462Y-23609920D01*
X26459185Y-23536904D01*
X26676639Y-23426106D01*
X26874083Y-23282655D01*
X27046655Y-23110083D01*
X27190106Y-22912639D01*
X27300904Y-22695185D01*
X27376321Y-22463076D01*
X27376322Y-22463071D01*
X27394104Y-22350804D01*
X27414500Y-22222032D01*
X27414500Y-21977966D01*
X27376322Y-21736926D01*
X27376321Y-21736925D01*
X27374266Y-21730599D01*
X27374265Y-21730598D01*
X27374264Y-21730593D01*
X27300904Y-21504815D01*
X27196262Y-21299444D01*
X27186692Y-21239013D01*
X27214469Y-21184496D01*
X27268986Y-21156719D01*
X27284473Y-21155500D01*
X27616500Y-21155500D01*
X27674691Y-21174407D01*
X27710655Y-21223907D01*
X27715500Y-21254500D01*
X27715500Y-21408935D01*
X27733146Y-21497645D01*
X27736340Y-21513701D01*
X27753406Y-21599500D01*
X27753408Y-21599508D01*
X27754103Y-21603005D01*
X27829824Y-21785811D01*
X27829828Y-21785818D01*
X27908437Y-21903462D01*
X27939753Y-21950330D01*
X27939761Y-21950339D01*
X28079669Y-22090246D01*
X28149811Y-22137113D01*
X28149812Y-22137114D01*
X28195498Y-22167641D01*
X28244183Y-22200172D01*
X28244195Y-22200178D01*
X28284059Y-22216690D01*
X28284060Y-22216691D01*
X28337949Y-22239012D01*
X28426998Y-22275897D01*
X28621065Y-22314500D01*
X28621066Y-22314500D01*
X28818934Y-22314500D01*
X28818935Y-22314500D01*
X29013002Y-22275897D01*
X29107615Y-22236706D01*
X29168611Y-22231906D01*
X29220780Y-22263876D01*
X29244195Y-22320404D01*
X29244500Y-22328171D01*
X29244500Y-22831828D01*
X29225593Y-22890019D01*
X29176093Y-22925983D01*
X29114907Y-22925983D01*
X29107615Y-22923292D01*
X29013003Y-22884103D01*
X28818937Y-22845500D01*
X28818935Y-22845500D01*
X28621065Y-22845500D01*
X28621062Y-22845500D01*
X28621061Y-22845500D01*
X28436560Y-22882201D01*
X28436557Y-22882201D01*
X28426996Y-22884102D01*
X28244187Y-22959824D01*
X28244180Y-22959828D01*
X28079669Y-23069753D01*
X27939753Y-23209669D01*
X27829828Y-23374180D01*
X27829824Y-23374187D01*
X27754104Y-23556992D01*
X27754104Y-23556993D01*
X27754103Y-23556998D01*
X27715500Y-23751061D01*
X27715500Y-23948937D01*
X27754103Y-24143001D01*
X27754104Y-24143006D01*
X27829824Y-24325811D01*
X27829825Y-24325813D01*
X27829827Y-24325816D01*
X27882833Y-24405143D01*
X27939754Y-24490331D01*
X28079669Y-24630246D01*
X28140217Y-24670703D01*
X28244183Y-24740172D01*
X28244195Y-24740178D01*
X28311722Y-24768148D01*
X28311723Y-24768149D01*
X28369360Y-24792022D01*
X28426998Y-24815897D01*
X28621065Y-24854500D01*
X28621066Y-24854500D01*
X28818934Y-24854500D01*
X28818935Y-24854500D01*
X29013002Y-24815897D01*
X29107615Y-24776706D01*
X29168611Y-24771906D01*
X29220780Y-24803876D01*
X29244195Y-24860404D01*
X29244500Y-24868171D01*
X29244500Y-25371828D01*
X29225593Y-25430019D01*
X29176093Y-25465983D01*
X29114907Y-25465983D01*
X29107615Y-25463292D01*
X29013003Y-25424103D01*
X28818937Y-25385500D01*
X28818935Y-25385500D01*
X28621065Y-25385500D01*
X28621062Y-25385500D01*
X28621061Y-25385500D01*
X28436560Y-25422201D01*
X28436557Y-25422201D01*
X28426996Y-25424102D01*
X28244187Y-25499824D01*
X28244180Y-25499828D01*
X28079669Y-25609753D01*
X27939753Y-25749669D01*
X27829828Y-25914180D01*
X27829824Y-25914187D01*
X27754104Y-26096992D01*
X27754104Y-26096993D01*
X27754103Y-26096996D01*
X27754103Y-26096998D01*
X27715500Y-26291062D01*
X27715500Y-26488937D01*
X27754103Y-26683001D01*
X27754103Y-26683003D01*
X27813255Y-26825811D01*
X27829824Y-26865811D01*
X27829828Y-26865818D01*
X27872006Y-26928941D01*
X27872023Y-26928965D01*
X27939755Y-27030333D01*
X28079669Y-27170246D01*
X28124970Y-27200515D01*
X28124971Y-27200516D01*
X28244180Y-27280170D01*
X28244184Y-27280173D01*
X28244187Y-27280174D01*
X28244195Y-27280178D01*
X28266233Y-27289306D01*
X28266234Y-27289307D01*
X28301876Y-27304070D01*
X28426998Y-27355897D01*
X28621065Y-27394500D01*
X28621066Y-27394500D01*
X28818934Y-27394500D01*
X28818935Y-27394500D01*
X29013002Y-27355897D01*
X29107615Y-27316706D01*
X29168611Y-27311906D01*
X29220780Y-27343876D01*
X29244195Y-27400404D01*
X29244500Y-27408171D01*
X29244500Y-27911828D01*
X29225593Y-27970019D01*
X29176093Y-28005983D01*
X29114907Y-28005983D01*
X29107615Y-28003292D01*
X29013003Y-27964103D01*
X28818937Y-27925500D01*
X28818935Y-27925500D01*
X28621065Y-27925500D01*
X28621062Y-27925500D01*
X28621061Y-27925500D01*
X28436560Y-27962201D01*
X28436557Y-27962201D01*
X28426996Y-27964102D01*
X28244187Y-28039824D01*
X28244180Y-28039828D01*
X28079669Y-28149753D01*
X27939753Y-28289669D01*
X27829828Y-28454180D01*
X27829824Y-28454187D01*
X27754104Y-28636992D01*
X27754104Y-28636993D01*
X27754103Y-28636998D01*
X27723258Y-28792063D01*
X27715500Y-28831062D01*
X27715500Y-29028937D01*
X27729636Y-29100000D01*
X27750232Y-29203544D01*
X27750232Y-29203545D01*
X27752200Y-29213435D01*
X27752201Y-29213442D01*
X27754102Y-29223002D01*
X27829824Y-29405811D01*
X27829828Y-29405818D01*
X27886769Y-29491034D01*
X27939755Y-29570333D01*
X28079669Y-29710246D01*
X28129644Y-29743638D01*
X28129645Y-29743639D01*
X28203777Y-29793173D01*
X28244183Y-29820172D01*
X28244195Y-29820178D01*
X28298236Y-29842562D01*
X28298237Y-29842563D01*
X28348471Y-29863370D01*
X28426998Y-29895897D01*
X28621065Y-29934500D01*
X28621066Y-29934500D01*
X28818934Y-29934500D01*
X28818935Y-29934500D01*
X29013002Y-29895897D01*
X29195411Y-29820340D01*
X29195801Y-29820182D01*
X29275677Y-29766810D01*
X29275678Y-29766809D01*
X29291871Y-29755989D01*
X29360331Y-29710246D01*
X29500246Y-29570331D01*
X29578430Y-29453319D01*
X29610172Y-29405816D01*
X29610174Y-29405812D01*
X29610175Y-29405811D01*
X29614025Y-29396516D01*
X29653761Y-29349989D01*
X29713255Y-29335704D01*
X29736082Y-29340244D01*
X29744548Y-29342995D01*
X29776128Y-29347997D01*
X29823497Y-29355500D01*
X30481500Y-29355500D01*
X30481509Y-29355500D01*
X30500912Y-29354099D01*
X30518168Y-29352855D01*
X30546289Y-29348777D01*
X30562759Y-29345835D01*
X30654352Y-29306477D01*
X30698581Y-29276075D01*
X30698580Y-29276074D01*
X30719328Y-29261813D01*
X30721032Y-29258674D01*
X30734189Y-29248160D01*
X30735570Y-29247238D01*
X30843953Y-29138854D01*
X30844240Y-29138481D01*
X30844341Y-29138413D01*
X30846041Y-29136481D01*
X30846534Y-29136915D01*
X30894775Y-29103988D01*
X30922589Y-29100000D01*
X31822243Y-29100000D01*
X31880434Y-29118907D01*
X31912149Y-29157552D01*
X31923314Y-29181772D01*
X31923315Y-29181773D01*
X31959275Y-29231269D01*
X31959278Y-29231272D01*
X31959279Y-29231273D01*
X32000050Y-29275378D01*
X32087031Y-29324088D01*
X32145222Y-29342995D01*
X32145223Y-29342995D01*
X32145226Y-29342996D01*
X32224171Y-29355500D01*
X32224174Y-29355500D01*
X35170824Y-29355500D01*
X35170826Y-29355500D01*
X35225583Y-29349563D01*
X35225594Y-29349561D01*
X35244128Y-29345493D01*
X35267030Y-29340469D01*
X35300703Y-29330615D01*
X35385705Y-29278527D01*
X35430635Y-29236995D01*
X35469642Y-29191324D01*
X35482155Y-29161112D01*
X35521892Y-29114589D01*
X35573619Y-29100000D01*
X36584820Y-29100000D01*
X36615408Y-29104843D01*
X36628095Y-29108966D01*
X36677595Y-29144927D01*
X36677596Y-29144928D01*
X36680591Y-29149050D01*
X36699500Y-29207240D01*
X36699500Y-34692698D01*
X36699380Y-34697574D01*
X36699140Y-34702441D01*
X36698783Y-34707269D01*
X36687491Y-34821915D01*
X36686065Y-34831526D01*
X36684175Y-34841027D01*
X36681815Y-34850451D01*
X36650494Y-34953701D01*
X36647220Y-34962849D01*
X36643513Y-34971798D01*
X36639360Y-34980580D01*
X36588500Y-35075731D01*
X36583508Y-35084060D01*
X36578133Y-35092105D01*
X36572343Y-35099912D01*
X36503894Y-35183317D01*
X36497370Y-35190516D01*
X36490516Y-35197370D01*
X36483317Y-35203894D01*
X36399912Y-35272343D01*
X36392105Y-35278133D01*
X36384060Y-35283508D01*
X36375731Y-35288500D01*
X36280580Y-35339360D01*
X36271798Y-35343513D01*
X36262849Y-35347220D01*
X36253701Y-35350494D01*
X36150451Y-35381815D01*
X36141025Y-35384176D01*
X36131523Y-35386066D01*
X36121914Y-35387491D01*
X36017527Y-35397773D01*
X36017524Y-35397773D01*
X36015334Y-35397989D01*
X36007258Y-35398784D01*
X36002440Y-35399140D01*
X35997576Y-35399380D01*
X35992697Y-35399500D01*
X13007301Y-35399500D01*
X13002431Y-35399380D01*
X12997558Y-35399140D01*
X12992743Y-35398785D01*
X12976659Y-35397201D01*
X12976658Y-35397200D01*
X12976658Y-35397201D01*
X12878080Y-35387491D01*
X12868470Y-35386065D01*
X12858969Y-35384175D01*
X12849546Y-35381815D01*
X12746305Y-35350497D01*
X12742200Y-35347636D01*
X12737160Y-35347225D01*
X12728205Y-35343516D01*
X12719420Y-35339361D01*
X12624264Y-35288499D01*
X12615927Y-35283502D01*
X12607882Y-35278126D01*
X12606726Y-35276659D01*
X12600082Y-35272341D01*
X12516680Y-35203895D01*
X12509481Y-35197371D01*
X12502627Y-35190517D01*
X12496103Y-35183318D01*
X12435819Y-35109862D01*
X12420157Y-35083140D01*
X12417256Y-35075728D01*
X12413654Y-35014648D01*
X12446641Y-34963117D01*
X12503618Y-34940817D01*
X12562821Y-34956265D01*
X12564407Y-34957303D01*
X12592236Y-34975897D01*
X12628257Y-34999965D01*
X12628259Y-34999965D01*
X12628260Y-34999966D01*
X12683808Y-35011015D01*
X12695240Y-35013289D01*
X12697405Y-35013863D01*
X12699579Y-35014216D01*
X12701152Y-35014500D01*
X12701326Y-35014500D01*
X12701327Y-35014500D01*
X14258673Y-35014500D01*
X14258674Y-35014500D01*
X14331740Y-34999966D01*
X14414601Y-34944601D01*
X14469966Y-34861740D01*
X14484500Y-34788674D01*
X14484500Y-34572285D01*
X14489343Y-34541699D01*
X14493465Y-34529010D01*
X14529423Y-34479511D01*
X14533590Y-34476485D01*
X14591512Y-34457583D01*
X16320541Y-34453045D01*
X16351143Y-34457809D01*
X16370790Y-34464136D01*
X16411743Y-34489687D01*
X16412688Y-34490668D01*
X16423703Y-34504349D01*
X16448660Y-34541699D01*
X16512861Y-34637782D01*
X16652218Y-34777139D01*
X16816086Y-34886632D01*
X16998165Y-34962051D01*
X17191459Y-35000500D01*
X17191460Y-35000500D01*
X17388540Y-35000500D01*
X17388541Y-35000500D01*
X17581835Y-34962051D01*
X17763914Y-34886632D01*
X17927782Y-34777139D01*
X18067139Y-34637782D01*
X18176632Y-34473914D01*
X18252051Y-34291835D01*
X18290500Y-34098541D01*
X18290500Y-33901459D01*
X18290499Y-33901456D01*
X18290499Y-33901455D01*
X21369499Y-33901455D01*
X21369499Y-34098543D01*
X21406046Y-34282271D01*
X21406046Y-34282275D01*
X21407947Y-34291837D01*
X21483363Y-34473907D01*
X21483364Y-34473909D01*
X21483366Y-34473913D01*
X21498794Y-34497002D01*
X21592860Y-34637782D01*
X21732217Y-34777139D01*
X21896085Y-34886632D01*
X22078164Y-34962051D01*
X22271458Y-35000500D01*
X22271459Y-35000500D01*
X22468539Y-35000500D01*
X22468540Y-35000500D01*
X22661834Y-34962051D01*
X22843913Y-34886632D01*
X23007781Y-34777139D01*
X23147138Y-34637782D01*
X23256631Y-34473914D01*
X23332050Y-34291835D01*
X23370499Y-34098541D01*
X23370499Y-33901459D01*
X23370498Y-33901456D01*
X23370498Y-33901455D01*
X23909500Y-33901455D01*
X23909500Y-34098543D01*
X23946047Y-34282271D01*
X23946047Y-34282275D01*
X23947948Y-34291837D01*
X24023364Y-34473907D01*
X24023365Y-34473909D01*
X24023367Y-34473913D01*
X24038795Y-34497002D01*
X24132861Y-34637782D01*
X24272218Y-34777139D01*
X24436086Y-34886632D01*
X24618165Y-34962051D01*
X24811459Y-35000500D01*
X24811460Y-35000500D01*
X25008540Y-35000500D01*
X25008541Y-35000500D01*
X25201835Y-34962051D01*
X25383914Y-34886632D01*
X25547782Y-34777139D01*
X25687139Y-34637782D01*
X25796632Y-34473914D01*
X25805003Y-34453702D01*
X25821178Y-34427304D01*
X25831188Y-34415582D01*
X25879720Y-34384561D01*
X25889483Y-34381821D01*
X25916484Y-34378142D01*
X27705625Y-34382836D01*
X27736202Y-34387763D01*
X27750971Y-34392605D01*
X27797953Y-34425486D01*
X27804081Y-34433280D01*
X27817716Y-34456579D01*
X27820148Y-34462450D01*
X27829823Y-34485809D01*
X27837303Y-34497002D01*
X27837304Y-34497004D01*
X27871608Y-34548343D01*
X27939754Y-34650331D01*
X28079669Y-34790246D01*
X28134316Y-34826760D01*
X28244183Y-34900172D01*
X28244195Y-34900178D01*
X28311722Y-34928148D01*
X28311723Y-34928149D01*
X28351438Y-34944599D01*
X28426998Y-34975897D01*
X28621065Y-35014500D01*
X28621066Y-35014500D01*
X28818934Y-35014500D01*
X28818935Y-35014500D01*
X29013002Y-34975897D01*
X29128276Y-34928149D01*
X29195361Y-34900362D01*
X29195797Y-34900184D01*
X29195813Y-34900173D01*
X29195816Y-34900172D01*
X29243319Y-34868430D01*
X29360331Y-34790246D01*
X29500246Y-34650331D01*
X29601754Y-34498414D01*
X29610172Y-34485816D01*
X29610178Y-34485804D01*
X29685897Y-34303002D01*
X29724500Y-34108935D01*
X29724500Y-33911065D01*
X29685897Y-33716998D01*
X29617492Y-33551853D01*
X29610178Y-33534195D01*
X29610172Y-33534183D01*
X29547113Y-33439811D01*
X29500246Y-33369669D01*
X29360331Y-33229754D01*
X29350019Y-33222864D01*
X29305941Y-33193412D01*
X29305940Y-33193411D01*
X29195818Y-33119828D01*
X29195811Y-33119824D01*
X29195806Y-33119821D01*
X29013003Y-33044103D01*
X28818937Y-33005500D01*
X28818935Y-33005500D01*
X28621065Y-33005500D01*
X28621062Y-33005500D01*
X28621061Y-33005500D01*
X28436560Y-33042201D01*
X28436557Y-33042201D01*
X28426996Y-33044102D01*
X28244187Y-33119824D01*
X28244180Y-33119828D01*
X28079669Y-33229753D01*
X27939753Y-33369669D01*
X27829828Y-33534180D01*
X27829827Y-33534183D01*
X27820670Y-33556286D01*
X27804488Y-33582689D01*
X27794485Y-33594401D01*
X27745947Y-33625426D01*
X27736191Y-33628163D01*
X27709189Y-33631843D01*
X25920045Y-33627149D01*
X25889465Y-33622223D01*
X25874695Y-33617381D01*
X25827710Y-33584498D01*
X25826288Y-33582689D01*
X25821582Y-33576703D01*
X25807946Y-33553401D01*
X25796634Y-33526090D01*
X25796632Y-33526087D01*
X25796626Y-33526075D01*
X25733822Y-33432084D01*
X25733820Y-33432081D01*
X25687139Y-33362218D01*
X25547782Y-33222861D01*
X25438288Y-33149699D01*
X25383913Y-33113367D01*
X25383911Y-33113366D01*
X25201836Y-33037949D01*
X25201835Y-33037949D01*
X25137404Y-33025132D01*
X25008545Y-32999500D01*
X25008543Y-32999500D01*
X25008541Y-32999500D01*
X24811459Y-32999500D01*
X24811456Y-32999500D01*
X24811455Y-32999500D01*
X24755885Y-33010554D01*
X24627727Y-33036047D01*
X24627720Y-33036047D01*
X24618161Y-33037948D01*
X24436088Y-33113365D01*
X24436087Y-33113365D01*
X24272220Y-33222858D01*
X24132860Y-33362218D01*
X24132859Y-33362220D01*
X24023365Y-33526087D01*
X24023365Y-33526088D01*
X23947950Y-33708158D01*
X23947950Y-33708159D01*
X23947949Y-33708161D01*
X23947949Y-33708163D01*
X23947949Y-33708165D01*
X23946192Y-33716998D01*
X23909500Y-33901455D01*
X23370498Y-33901455D01*
X23364119Y-33869388D01*
X23332050Y-33708165D01*
X23256631Y-33526086D01*
X23147138Y-33362218D01*
X23147133Y-33362213D01*
X23147133Y-33362212D01*
X23007778Y-33222857D01*
X22995471Y-33214635D01*
X22972725Y-33193610D01*
X22964466Y-33183134D01*
X22943307Y-33126145D01*
X22943305Y-33126099D01*
X22956802Y-33071738D01*
X22961008Y-33064562D01*
X22976411Y-33044623D01*
X23315455Y-32705581D01*
X23340513Y-32687377D01*
X23362276Y-32676289D01*
X23407218Y-32665500D01*
X27949435Y-32665500D01*
X27949436Y-32665500D01*
X27997186Y-32652705D01*
X27997187Y-32652705D01*
X28041878Y-32640729D01*
X28046618Y-32639622D01*
X28049665Y-32638642D01*
X28078860Y-32630819D01*
X28102221Y-32606837D01*
X28130562Y-32590475D01*
X28200475Y-32520562D01*
X28268829Y-32452205D01*
X28293884Y-32434002D01*
X28307674Y-32426975D01*
X28364251Y-32416874D01*
X28374205Y-32418052D01*
X28400454Y-32424902D01*
X28423769Y-32434560D01*
X28426205Y-32435672D01*
X28426738Y-32435844D01*
X28426988Y-32435893D01*
X28426989Y-32435894D01*
X28426994Y-32435895D01*
X28426998Y-32435897D01*
X28621065Y-32474500D01*
X28621066Y-32474500D01*
X28818934Y-32474500D01*
X28818935Y-32474500D01*
X29013002Y-32435897D01*
X29117890Y-32392450D01*
X29195361Y-32360362D01*
X29195797Y-32360184D01*
X29195813Y-32360173D01*
X29195816Y-32360172D01*
X29243319Y-32328430D01*
X29360331Y-32250246D01*
X29500246Y-32110331D01*
X29597483Y-31964806D01*
X29610172Y-31945816D01*
X29610178Y-31945804D01*
X29617845Y-31927294D01*
X29685897Y-31763002D01*
X29724500Y-31568935D01*
X29724500Y-31371065D01*
X29685897Y-31176998D01*
X29683217Y-31170529D01*
X29629911Y-31041835D01*
X29610177Y-30994192D01*
X29610174Y-30994187D01*
X29610172Y-30994183D01*
X29543573Y-30894513D01*
X29500246Y-30829669D01*
X29500242Y-30829665D01*
X29360339Y-30689761D01*
X29360335Y-30689758D01*
X29360331Y-30689754D01*
X29303020Y-30651460D01*
X29303018Y-30651459D01*
X29303018Y-30651458D01*
X29195818Y-30579828D01*
X29195811Y-30579824D01*
X29195806Y-30579821D01*
X29013003Y-30504103D01*
X28818937Y-30465500D01*
X28818935Y-30465500D01*
X28621065Y-30465500D01*
X28621062Y-30465500D01*
X28621061Y-30465500D01*
X28436560Y-30502201D01*
X28436557Y-30502201D01*
X28426996Y-30504102D01*
X28244187Y-30579824D01*
X28244180Y-30579828D01*
X28079669Y-30689753D01*
X27939753Y-30829669D01*
X27829828Y-30994180D01*
X27829824Y-30994187D01*
X27754104Y-31176992D01*
X27754104Y-31176993D01*
X27754103Y-31176998D01*
X27715500Y-31371061D01*
X27715500Y-31568939D01*
X27754102Y-31763000D01*
X27756249Y-31769267D01*
X27754738Y-31769784D01*
X27761436Y-31793879D01*
X27762280Y-31804601D01*
X27747997Y-31864096D01*
X27701477Y-31903831D01*
X27693922Y-31906961D01*
X27656030Y-31914500D01*
X23934900Y-31914500D01*
X23904302Y-31909653D01*
X23898597Y-31907799D01*
X23849099Y-31871833D01*
X23830195Y-31813641D01*
X23849105Y-31755451D01*
X23889537Y-31722936D01*
X23890094Y-31722693D01*
X23910428Y-31716308D01*
X23931835Y-31712051D01*
X24113914Y-31636632D01*
X24277782Y-31527139D01*
X24417139Y-31387782D01*
X24526632Y-31223914D01*
X24526632Y-31223913D01*
X24526634Y-31223911D01*
X24602051Y-31041835D01*
X24640500Y-30848541D01*
X24640500Y-30651459D01*
X24602051Y-30458165D01*
X24526632Y-30276086D01*
X24417139Y-30112218D01*
X24417134Y-30112213D01*
X24417131Y-30112209D01*
X24277781Y-29972860D01*
X24220369Y-29934499D01*
X24220368Y-29934498D01*
X24113920Y-29863370D01*
X24113838Y-29863334D01*
X24113725Y-29863263D01*
X24110214Y-29861328D01*
X24110328Y-29861120D01*
X24089765Y-29848153D01*
X24077925Y-29838041D01*
X24046934Y-29789624D01*
X24044215Y-29779980D01*
X24040500Y-29753116D01*
X24040500Y-29234711D01*
X24045344Y-29204122D01*
X24052891Y-29180891D01*
X24077049Y-29141473D01*
X24080509Y-29138015D01*
X24125460Y-29060158D01*
X24152982Y-29012489D01*
X24152982Y-29012487D01*
X24152984Y-29012485D01*
X24190500Y-28872475D01*
X24190500Y-28727525D01*
X24152984Y-28587515D01*
X24152982Y-28587512D01*
X24152982Y-28587510D01*
X24152981Y-28587508D01*
X24152890Y-28587168D01*
X24151397Y-28584764D01*
X24081985Y-28464539D01*
X24080805Y-28462347D01*
X24080617Y-28462094D01*
X24080510Y-28461987D01*
X24080509Y-28461985D01*
X23978015Y-28359491D01*
X23978012Y-28359489D01*
X23978010Y-28359487D01*
X23909774Y-28320091D01*
X23888741Y-28296731D01*
X23822897Y-28279087D01*
X23822896Y-28279087D01*
X23712475Y-28249500D01*
X23712473Y-28249500D01*
X23567523Y-28249500D01*
X23505788Y-28266041D01*
X23505787Y-28266040D01*
X23427512Y-28287015D01*
X23427506Y-28287018D01*
X23301993Y-28359483D01*
X23199483Y-28461993D01*
X23127016Y-28587510D01*
X23126739Y-28588244D01*
X23126192Y-28590587D01*
X23098228Y-28694951D01*
X23089500Y-28727525D01*
X23089500Y-28872475D01*
X23119087Y-28982896D01*
X23123665Y-28999982D01*
X23127017Y-29012491D01*
X23127018Y-29012492D01*
X23199556Y-29138131D01*
X23199624Y-29138224D01*
X23200461Y-29139280D01*
X23201661Y-29140844D01*
X23203332Y-29142711D01*
X23203336Y-29142716D01*
X23203188Y-29142834D01*
X23203436Y-29143157D01*
X23203289Y-29143269D01*
X23217623Y-29163000D01*
X23227188Y-29181773D01*
X23228710Y-29184759D01*
X23239500Y-29229703D01*
X23239500Y-29751128D01*
X23234654Y-29781722D01*
X23229872Y-29796439D01*
X23197006Y-29843593D01*
X23189137Y-29849796D01*
X23169710Y-29861192D01*
X23169785Y-29861328D01*
X23167198Y-29862753D01*
X23167243Y-29862853D01*
X23166079Y-29863370D01*
X23002218Y-29972860D01*
X22862858Y-30112220D01*
X22753365Y-30276087D01*
X22753365Y-30276088D01*
X22677950Y-30458158D01*
X22677950Y-30458159D01*
X22677949Y-30458161D01*
X22677949Y-30458163D01*
X22677949Y-30458165D01*
X22639500Y-30651456D01*
X22639500Y-30848543D01*
X22654319Y-30923043D01*
X22663660Y-30969999D01*
X22663660Y-30970002D01*
X22668517Y-30994422D01*
X22668519Y-30994430D01*
X22675688Y-31030470D01*
X22676046Y-31032266D01*
X22676047Y-31032275D01*
X22677948Y-31041835D01*
X22753364Y-31223909D01*
X22753366Y-31223911D01*
X22753367Y-31223913D01*
X22753368Y-31223914D01*
X22862861Y-31387782D01*
X23002218Y-31527139D01*
X23166086Y-31636632D01*
X23348165Y-31712051D01*
X23364711Y-31715342D01*
X23393786Y-31726070D01*
X23399018Y-31729001D01*
X23440545Y-31773936D01*
X23447728Y-31834698D01*
X23417824Y-31888078D01*
X23371881Y-31912064D01*
X23371293Y-31912193D01*
X23350046Y-31914500D01*
X23150564Y-31914500D01*
X23128435Y-31920428D01*
X23128436Y-31920429D01*
X23102812Y-31927294D01*
X23055065Y-31940088D01*
X23055064Y-31940088D01*
X23055062Y-31940089D01*
X23055059Y-31940091D01*
X22970031Y-31989177D01*
X22969983Y-31989209D01*
X22969440Y-31989522D01*
X22168434Y-32790528D01*
X22168427Y-32790531D01*
X22069523Y-32889436D01*
X22069523Y-32889437D01*
X22020085Y-32975066D01*
X22020043Y-32975151D01*
X22019703Y-32976503D01*
X22010579Y-33010554D01*
X21997979Y-33038852D01*
X21986017Y-33057271D01*
X21940876Y-33094814D01*
X21896083Y-33113367D01*
X21896080Y-33113369D01*
X21732236Y-33222846D01*
X21732218Y-33222859D01*
X21592859Y-33362218D01*
X21592858Y-33362220D01*
X21483364Y-33526087D01*
X21483364Y-33526088D01*
X21407949Y-33708158D01*
X21407949Y-33708159D01*
X21407948Y-33708161D01*
X21407948Y-33708163D01*
X21407948Y-33708165D01*
X21406191Y-33716998D01*
X21369499Y-33901455D01*
X18290499Y-33901455D01*
X18284120Y-33869388D01*
X18252051Y-33708165D01*
X18176632Y-33526086D01*
X18067139Y-33362218D01*
X17927782Y-33222861D01*
X17818288Y-33149699D01*
X17763913Y-33113367D01*
X17763911Y-33113366D01*
X17581836Y-33037949D01*
X17581835Y-33037949D01*
X17517404Y-33025132D01*
X17388545Y-32999500D01*
X17388543Y-32999500D01*
X17388541Y-32999500D01*
X17191459Y-32999500D01*
X17191456Y-32999500D01*
X17191455Y-32999500D01*
X17135885Y-33010554D01*
X17007727Y-33036047D01*
X17007720Y-33036047D01*
X16998161Y-33037948D01*
X16816088Y-33113365D01*
X16816087Y-33113365D01*
X16652220Y-33222858D01*
X16512860Y-33362218D01*
X16512859Y-33362220D01*
X16424157Y-33494971D01*
X16403132Y-33517716D01*
X16386814Y-33530580D01*
X16343023Y-33550274D01*
X16341926Y-33550471D01*
X16324687Y-33552030D01*
X14599438Y-33556558D01*
X14568833Y-33551793D01*
X14556138Y-33547705D01*
X14506544Y-33511871D01*
X14506538Y-33511863D01*
X14503555Y-33507779D01*
X14484500Y-33449636D01*
X14484500Y-33231325D01*
X14484499Y-33231324D01*
X14484498Y-33231315D01*
X14479447Y-33205924D01*
X14469966Y-33158260D01*
X14469708Y-33157874D01*
X14469371Y-33157369D01*
X14414606Y-33075405D01*
X14414604Y-33075403D01*
X14414602Y-33075400D01*
X14414599Y-33075397D01*
X14414595Y-33075394D01*
X14414593Y-33075392D01*
X14331748Y-33020038D01*
X14331737Y-33020032D01*
X14331534Y-33019964D01*
X14329997Y-33019687D01*
X14258694Y-33005503D01*
X14258684Y-33005501D01*
X14258679Y-33005500D01*
X14258676Y-33005500D01*
X14258674Y-33005500D01*
X12701326Y-33005500D01*
X12701325Y-33005500D01*
X12701322Y-33005500D01*
X12701318Y-33005500D01*
X12701315Y-33005501D01*
X12675914Y-33010554D01*
X12628261Y-33020033D01*
X12628256Y-33020035D01*
X12545403Y-33075394D01*
X12545396Y-33075401D01*
X12496835Y-33148080D01*
X12489804Y-33157369D01*
X12475431Y-33174200D01*
X12423264Y-33206173D01*
X12362267Y-33201377D01*
X12315738Y-33161644D01*
X12315091Y-33160588D01*
X12300500Y-33108856D01*
X12300500Y-31707432D01*
X12305344Y-31676844D01*
X12307197Y-31671140D01*
X12343158Y-31621638D01*
X12401348Y-31602728D01*
X12459539Y-31621632D01*
X12492056Y-31662056D01*
X12492297Y-31662607D01*
X12498692Y-31682966D01*
X12514582Y-31762854D01*
X12514583Y-31762857D01*
X12514584Y-31762860D01*
X12590264Y-31945567D01*
X12590266Y-31945571D01*
X12657026Y-32045484D01*
X12933042Y-31769466D01*
X12987557Y-31741690D01*
X13047989Y-31751261D01*
X13074458Y-31773272D01*
X13075313Y-31772418D01*
X13079899Y-31777004D01*
X13079901Y-31777007D01*
X13172993Y-31870099D01*
X13172995Y-31870100D01*
X13177582Y-31874687D01*
X13176113Y-31876155D01*
X13205446Y-31918828D01*
X13203849Y-31979993D01*
X13180529Y-32016955D01*
X12904512Y-32292972D01*
X12904513Y-32292972D01*
X12904513Y-32292973D01*
X13004428Y-32359733D01*
X13004429Y-32359733D01*
X13004430Y-32359734D01*
X13045821Y-32376878D01*
X13187145Y-32435417D01*
X13378784Y-32473536D01*
X13380526Y-32473926D01*
X13381110Y-32473998D01*
X13381112Y-32473999D01*
X13381116Y-32474000D01*
X13381121Y-32474000D01*
X13578884Y-32474000D01*
X13578886Y-32474000D01*
X13582798Y-32473364D01*
X13584968Y-32472789D01*
X13772854Y-32435417D01*
X13955571Y-32359733D01*
X14055485Y-32292973D01*
X14055484Y-32292972D01*
X14055485Y-32292972D01*
X13779469Y-32016956D01*
X13751692Y-31962440D01*
X13761263Y-31902008D01*
X13783276Y-31875545D01*
X13782418Y-31874687D01*
X13787004Y-31870100D01*
X13787007Y-31870099D01*
X13880099Y-31777007D01*
X13880100Y-31777004D01*
X13884687Y-31772418D01*
X13886156Y-31773887D01*
X13928818Y-31744555D01*
X13989983Y-31746146D01*
X14026956Y-31769469D01*
X14302972Y-32045484D01*
X14302973Y-32045485D01*
X14369733Y-31945571D01*
X14445417Y-31762854D01*
X14483536Y-31571214D01*
X14483926Y-31569473D01*
X14483999Y-31568887D01*
X14484000Y-31568883D01*
X14484000Y-31371116D01*
X14483999Y-31371112D01*
X14483998Y-31371110D01*
X14483926Y-31370526D01*
X14483536Y-31368784D01*
X14445417Y-31177145D01*
X14389369Y-31041834D01*
X14369734Y-30994430D01*
X14358461Y-30977559D01*
X14302973Y-30894513D01*
X14302972Y-30894512D01*
X14026955Y-31170529D01*
X13972439Y-31198306D01*
X13912007Y-31188735D01*
X13885544Y-31166724D01*
X13884687Y-31167582D01*
X13880100Y-31162995D01*
X13880099Y-31162993D01*
X13787007Y-31069901D01*
X13787004Y-31069899D01*
X13782418Y-31065313D01*
X13783882Y-31063848D01*
X13754544Y-31021149D01*
X13756154Y-30959985D01*
X13779465Y-30923043D01*
X14055484Y-30647026D01*
X13955571Y-30580266D01*
X13955568Y-30580264D01*
X13955567Y-30580264D01*
X13772854Y-30504582D01*
X13578889Y-30466000D01*
X13578887Y-30466000D01*
X13381112Y-30466000D01*
X13381109Y-30466000D01*
X13187145Y-30504582D01*
X13187143Y-30504582D01*
X13004427Y-30580265D01*
X12904513Y-30647025D01*
X13180530Y-30923043D01*
X13208307Y-30977559D01*
X13198736Y-31037991D01*
X13176727Y-31064458D01*
X13177582Y-31065313D01*
X13172995Y-31069899D01*
X13172993Y-31069901D01*
X13079901Y-31162993D01*
X13079899Y-31162995D01*
X13075313Y-31167582D01*
X13073848Y-31166117D01*
X13031145Y-31195455D01*
X12969981Y-31193841D01*
X12933043Y-31170530D01*
X12657025Y-30894513D01*
X12590265Y-30994427D01*
X12514584Y-31177138D01*
X12514581Y-31177148D01*
X12499657Y-31252181D01*
X12488933Y-31281245D01*
X12486002Y-31286478D01*
X12441070Y-31328008D01*
X12380309Y-31335197D01*
X12326926Y-31305297D01*
X12302894Y-31259161D01*
X12302765Y-31258570D01*
X12300500Y-31237512D01*
X12300500Y-29169993D01*
X12305344Y-29139405D01*
X12307197Y-29133701D01*
X12343158Y-29084199D01*
X12401348Y-29065289D01*
X12459539Y-29084193D01*
X12492070Y-29124649D01*
X12492311Y-29125198D01*
X12498689Y-29145520D01*
X12505901Y-29181772D01*
X12510232Y-29203544D01*
X12512105Y-29212957D01*
X12512200Y-29213435D01*
X12512201Y-29213442D01*
X12514102Y-29223002D01*
X12589824Y-29405811D01*
X12589828Y-29405818D01*
X12646769Y-29491034D01*
X12699755Y-29570333D01*
X12839669Y-29710246D01*
X12889644Y-29743638D01*
X12889645Y-29743639D01*
X12963777Y-29793173D01*
X13004183Y-29820172D01*
X13004195Y-29820178D01*
X13058236Y-29842562D01*
X13058237Y-29842563D01*
X13108471Y-29863370D01*
X13186998Y-29895897D01*
X13381065Y-29934500D01*
X13381066Y-29934500D01*
X13578934Y-29934500D01*
X13578935Y-29934500D01*
X13773002Y-29895897D01*
X13955809Y-29820176D01*
X14032470Y-29768952D01*
X14060589Y-29755990D01*
X14071556Y-29752897D01*
X14132694Y-29755300D01*
X14180737Y-29793171D01*
X14182812Y-29796277D01*
X14199500Y-29851282D01*
X14199500Y-30246144D01*
X14223386Y-30335288D01*
X14269530Y-30415212D01*
X14884787Y-31030469D01*
X14954088Y-31070480D01*
X14964712Y-31076614D01*
X15053856Y-31100500D01*
X17540419Y-31100500D01*
X17571006Y-31105343D01*
X17585727Y-31110126D01*
X17632883Y-31142993D01*
X17639086Y-31150862D01*
X17652802Y-31174264D01*
X17673365Y-31223909D01*
X17673367Y-31223913D01*
X17673368Y-31223914D01*
X17782861Y-31387782D01*
X17922218Y-31527139D01*
X18086086Y-31636632D01*
X18268165Y-31712051D01*
X18461459Y-31750500D01*
X18461460Y-31750500D01*
X18658540Y-31750500D01*
X18658541Y-31750500D01*
X18851835Y-31712051D01*
X19033914Y-31636632D01*
X19197782Y-31527139D01*
X19337139Y-31387782D01*
X19446632Y-31223914D01*
X19446632Y-31223913D01*
X19446634Y-31223911D01*
X19522051Y-31041835D01*
X19560500Y-30848541D01*
X19560500Y-30651459D01*
X19522051Y-30458165D01*
X19446632Y-30276086D01*
X19343183Y-30121264D01*
X19333314Y-30102357D01*
X19327338Y-30087085D01*
X19323741Y-30026010D01*
X19356729Y-29974483D01*
X19358093Y-29973364D01*
X19402542Y-29952612D01*
X19404650Y-29952214D01*
X19422997Y-29950500D01*
X20230582Y-29950500D01*
X20261170Y-29955343D01*
X20272007Y-29958865D01*
X20321507Y-29994826D01*
X20340417Y-30053016D01*
X20340417Y-30054773D01*
X20328256Y-30102312D01*
X20324811Y-30108605D01*
X20320288Y-30116067D01*
X20213368Y-30276083D01*
X20213363Y-30276092D01*
X20137950Y-30458158D01*
X20137950Y-30458159D01*
X20137949Y-30458161D01*
X20137949Y-30458163D01*
X20137949Y-30458165D01*
X20099500Y-30651456D01*
X20099500Y-30848543D01*
X20114319Y-30923043D01*
X20123660Y-30969999D01*
X20123660Y-30970002D01*
X20128517Y-30994422D01*
X20128519Y-30994430D01*
X20135688Y-31030470D01*
X20136046Y-31032266D01*
X20136047Y-31032275D01*
X20137948Y-31041835D01*
X20213364Y-31223909D01*
X20213366Y-31223911D01*
X20213367Y-31223913D01*
X20213368Y-31223914D01*
X20322861Y-31387782D01*
X20462218Y-31527139D01*
X20626086Y-31636632D01*
X20808165Y-31712051D01*
X21001459Y-31750500D01*
X21001460Y-31750500D01*
X21198540Y-31750500D01*
X21198541Y-31750500D01*
X21391835Y-31712051D01*
X21573914Y-31636632D01*
X21737782Y-31527139D01*
X21877139Y-31387782D01*
X21986632Y-31223914D01*
X21986632Y-31223913D01*
X21986634Y-31223911D01*
X22062051Y-31041835D01*
X22100500Y-30848541D01*
X22100500Y-30651459D01*
X22062051Y-30458165D01*
X21986632Y-30276086D01*
X21877139Y-30112218D01*
X21737782Y-29972861D01*
X21599509Y-29880470D01*
X21573913Y-29863367D01*
X21573910Y-29863365D01*
X21573909Y-29863365D01*
X21391835Y-29787949D01*
X21198545Y-29749500D01*
X21193707Y-29749024D01*
X21193786Y-29748219D01*
X21171277Y-29744654D01*
X21148050Y-29737107D01*
X21108640Y-29712957D01*
X20715214Y-29319532D01*
X20715212Y-29319530D01*
X20635288Y-29273386D01*
X20546144Y-29249500D01*
X20546142Y-29249500D01*
X15851870Y-29249500D01*
X15821277Y-29244654D01*
X15798050Y-29237107D01*
X15758639Y-29212957D01*
X15440582Y-28894900D01*
X15422376Y-28869841D01*
X15411288Y-28848079D01*
X15400500Y-28803137D01*
X15400500Y-24453857D01*
X15387447Y-24405143D01*
X15387447Y-24405142D01*
X15376615Y-24364715D01*
X15376614Y-24364714D01*
X15376614Y-24364712D01*
X15330470Y-24284788D01*
X14615212Y-23569530D01*
X14593506Y-23556998D01*
X14535297Y-23523390D01*
X14535286Y-23523385D01*
X14535283Y-23523383D01*
X14481378Y-23508940D01*
X14453081Y-23496341D01*
X14434663Y-23484380D01*
X14397119Y-23439237D01*
X14370177Y-23374192D01*
X14370174Y-23374187D01*
X14370170Y-23374180D01*
X14279030Y-23237782D01*
X14260246Y-23209669D01*
X14260242Y-23209665D01*
X14120339Y-23069761D01*
X14120334Y-23069757D01*
X14120331Y-23069754D01*
X14069894Y-23036053D01*
X14004500Y-22992357D01*
X13955818Y-22959828D01*
X13955811Y-22959824D01*
X13955806Y-22959821D01*
X13773003Y-22884103D01*
X13578937Y-22845500D01*
X13578935Y-22845500D01*
X13381065Y-22845500D01*
X13381062Y-22845500D01*
X13381061Y-22845500D01*
X13196560Y-22882201D01*
X13196557Y-22882201D01*
X13186996Y-22884102D01*
X13004187Y-22959824D01*
X13004180Y-22959828D01*
X12839669Y-23069753D01*
X12699753Y-23209669D01*
X12589828Y-23374180D01*
X12589824Y-23374187D01*
X12514104Y-23556992D01*
X12514103Y-23556998D01*
X12499657Y-23629621D01*
X12488929Y-23658692D01*
X12485998Y-23663924D01*
X12441063Y-23705451D01*
X12380301Y-23712634D01*
X12326921Y-23682730D01*
X12302894Y-23636600D01*
X12302765Y-23636009D01*
X12300500Y-23614951D01*
X12300500Y-21549993D01*
X12305344Y-21519405D01*
X12307197Y-21513701D01*
X12343158Y-21464199D01*
X12401348Y-21445289D01*
X12459539Y-21464193D01*
X12492070Y-21504649D01*
X12492311Y-21505198D01*
X12498689Y-21525520D01*
X12513407Y-21599506D01*
X12513408Y-21599508D01*
X12514103Y-21603005D01*
X12589824Y-21785811D01*
X12589828Y-21785818D01*
X12668437Y-21903462D01*
X12699753Y-21950330D01*
X12699761Y-21950339D01*
X12839669Y-22090246D01*
X12909811Y-22137113D01*
X12909812Y-22137114D01*
X12955498Y-22167641D01*
X13004183Y-22200172D01*
X13004195Y-22200178D01*
X13044059Y-22216690D01*
X13044060Y-22216691D01*
X13097949Y-22239012D01*
X13186998Y-22275897D01*
X13381065Y-22314500D01*
X13381066Y-22314500D01*
X13578934Y-22314500D01*
X13578935Y-22314500D01*
X13773002Y-22275897D01*
X13773004Y-22275896D01*
X13773005Y-22275896D01*
X13841563Y-22247497D01*
X13852688Y-22246621D01*
X13871682Y-22240265D01*
X13887612Y-22239012D01*
X13942944Y-22250883D01*
X13951027Y-22255312D01*
X13972145Y-22270839D01*
X14053477Y-22349195D01*
X14054123Y-22349823D01*
X14054758Y-22350446D01*
X14055428Y-22351109D01*
X14084788Y-22380469D01*
X14084792Y-22380471D01*
X14086010Y-22381406D01*
X14086348Y-22381697D01*
X14086695Y-22381953D01*
X14088200Y-22383085D01*
X14088453Y-22383279D01*
X14088790Y-22383500D01*
X14090048Y-22384428D01*
X14090051Y-22384431D01*
X14126799Y-22404744D01*
X14128340Y-22405614D01*
X14139298Y-22411941D01*
X14164711Y-22426614D01*
X14166134Y-22427203D01*
X14166521Y-22427389D01*
X14166912Y-22427543D01*
X14168597Y-22428223D01*
X14168976Y-22428380D01*
X14169384Y-22428514D01*
X14170818Y-22429077D01*
X14170820Y-22429077D01*
X14170821Y-22429078D01*
X14211609Y-22439196D01*
X14213234Y-22439615D01*
X14253856Y-22450500D01*
X14253863Y-22450500D01*
X14255403Y-22450703D01*
X14255831Y-22450784D01*
X14256209Y-22450827D01*
X14258043Y-22451051D01*
X14258406Y-22451098D01*
X14258836Y-22451123D01*
X14260393Y-22451298D01*
X14260395Y-22451299D01*
X14260396Y-22451298D01*
X14260397Y-22451299D01*
X14302004Y-22450523D01*
X14302879Y-22450512D01*
X14302918Y-22450511D01*
X14303832Y-22450504D01*
X14304669Y-22450500D01*
X15885999Y-22450500D01*
X15916590Y-22455344D01*
X15939816Y-22462891D01*
X15979226Y-22487041D01*
X15992790Y-22500605D01*
X15993046Y-22500794D01*
X15995239Y-22501975D01*
X16039207Y-22527359D01*
X16050040Y-22533614D01*
X16071634Y-22557596D01*
X16105944Y-22566174D01*
X16107548Y-22566588D01*
X16234108Y-22600500D01*
X16234110Y-22600500D01*
X16365890Y-22600500D01*
X16365892Y-22600500D01*
X16493186Y-22566392D01*
X16493188Y-22566390D01*
X16493190Y-22566390D01*
X16601179Y-22504042D01*
X16604067Y-22502639D01*
X16604853Y-22502122D01*
X16609862Y-22499028D01*
X16611161Y-22498277D01*
X16616519Y-22491294D01*
X16700500Y-22407314D01*
X16733872Y-22349513D01*
X16766390Y-22293190D01*
X16766390Y-22293188D01*
X16766392Y-22293186D01*
X16800500Y-22165892D01*
X16800500Y-22034108D01*
X16766392Y-21906814D01*
X16766390Y-21906811D01*
X16766390Y-21906809D01*
X16766388Y-21906806D01*
X16766298Y-21906469D01*
X16764812Y-21904076D01*
X16701971Y-21795233D01*
X16700794Y-21793045D01*
X16700608Y-21792795D01*
X16700501Y-21792688D01*
X16700500Y-21792686D01*
X16607314Y-21699500D01*
X16607311Y-21699498D01*
X16607309Y-21699496D01*
X16550476Y-21666683D01*
X16529442Y-21643321D01*
X16442053Y-21619907D01*
X16442052Y-21619906D01*
X16378973Y-21603005D01*
X16365892Y-21599500D01*
X16365891Y-21599500D01*
X16234109Y-21599500D01*
X16234108Y-21599500D01*
X16196027Y-21609703D01*
X16157946Y-21619907D01*
X16157945Y-21619906D01*
X16106807Y-21633609D01*
X16106805Y-21633610D01*
X15991718Y-21700056D01*
X15989944Y-21701326D01*
X15972619Y-21712875D01*
X15957423Y-21727769D01*
X15935950Y-21738710D01*
X15891005Y-21749500D01*
X14549059Y-21749500D01*
X14518462Y-21744653D01*
X14507627Y-21741132D01*
X14458129Y-21705166D01*
X14439224Y-21646979D01*
X14439224Y-21638804D01*
X14445369Y-21607919D01*
X14444486Y-21607652D01*
X14445893Y-21603010D01*
X14445897Y-21603002D01*
X14484500Y-21408935D01*
X14484500Y-21211065D01*
X14445897Y-21016998D01*
X14419825Y-20954055D01*
X14370178Y-20834195D01*
X14370177Y-20834192D01*
X14370176Y-20834191D01*
X14370172Y-20834183D01*
X14278572Y-20697096D01*
X14278571Y-20697094D01*
X14260248Y-20669671D01*
X14120339Y-20529761D01*
X14120334Y-20529757D01*
X14120331Y-20529754D01*
X14050829Y-20483314D01*
X13955818Y-20419828D01*
X13955811Y-20419824D01*
X13955806Y-20419821D01*
X13773003Y-20344103D01*
X13578937Y-20305500D01*
X13578935Y-20305500D01*
X13381065Y-20305500D01*
X13381062Y-20305500D01*
X13381061Y-20305500D01*
X13196560Y-20342201D01*
X13196557Y-20342201D01*
X13186996Y-20344102D01*
X13004187Y-20419824D01*
X13004180Y-20419828D01*
X12839669Y-20529753D01*
X12699753Y-20669669D01*
X12589828Y-20834180D01*
X12589824Y-20834187D01*
X12514104Y-21016992D01*
X12514103Y-21016998D01*
X12499657Y-21089621D01*
X12488929Y-21118692D01*
X12485998Y-21123924D01*
X12441063Y-21165451D01*
X12380301Y-21172634D01*
X12326921Y-21142730D01*
X12302894Y-21096600D01*
X12302765Y-21096009D01*
X12300500Y-21074951D01*
X12300500Y-19834108D01*
X21399500Y-19834108D01*
X21399500Y-19965892D01*
X21408639Y-20000000D01*
X21433610Y-20093194D01*
X21499494Y-20207307D01*
X21499496Y-20207309D01*
X21499498Y-20207311D01*
X21499500Y-20207314D01*
X21592686Y-20300500D01*
X21592688Y-20300501D01*
X21592795Y-20300608D01*
X21593046Y-20300794D01*
X21595239Y-20301975D01*
X21609815Y-20310390D01*
X21650040Y-20333614D01*
X21671634Y-20357596D01*
X21705944Y-20366174D01*
X21707548Y-20366588D01*
X21834108Y-20400500D01*
X21834110Y-20400500D01*
X21965890Y-20400500D01*
X21965892Y-20400500D01*
X22093186Y-20366392D01*
X22173055Y-20320278D01*
X22196930Y-20310390D01*
X22221254Y-20303873D01*
X22246875Y-20300500D01*
X23153125Y-20300500D01*
X23178748Y-20303873D01*
X23196919Y-20308742D01*
X23203070Y-20310390D01*
X23226947Y-20320281D01*
X23306810Y-20366390D01*
X23306808Y-20366390D01*
X23306812Y-20366391D01*
X23306814Y-20366392D01*
X23434108Y-20400500D01*
X23434110Y-20400500D01*
X23565890Y-20400500D01*
X23565892Y-20400500D01*
X23693186Y-20366392D01*
X23693188Y-20366390D01*
X23693190Y-20366390D01*
X23801179Y-20304042D01*
X23804067Y-20302639D01*
X23804853Y-20302122D01*
X23809862Y-20299028D01*
X23811161Y-20298277D01*
X23816519Y-20291294D01*
X23900500Y-20207314D01*
X23961691Y-20101328D01*
X23966390Y-20093190D01*
X23966390Y-20093188D01*
X23966392Y-20093186D01*
X24000500Y-19965892D01*
X24000500Y-19834108D01*
X23966392Y-19706814D01*
X23966390Y-19706811D01*
X23966390Y-19706809D01*
X23966388Y-19706805D01*
X23966298Y-19706469D01*
X23964812Y-19704076D01*
X23901971Y-19595233D01*
X23900794Y-19593045D01*
X23900608Y-19592795D01*
X23900501Y-19592688D01*
X23900500Y-19592686D01*
X23807314Y-19499500D01*
X23807311Y-19499498D01*
X23807309Y-19499496D01*
X23790186Y-19489610D01*
X23750476Y-19466683D01*
X23729442Y-19443322D01*
X23643799Y-19420375D01*
X23643798Y-19420374D01*
X23586766Y-19405093D01*
X23565892Y-19399500D01*
X23565891Y-19399500D01*
X23434109Y-19399500D01*
X23434108Y-19399500D01*
X23393690Y-19410330D01*
X23308238Y-19433226D01*
X23306905Y-19433561D01*
X23306814Y-19433607D01*
X23258749Y-19461357D01*
X23258747Y-19461358D01*
X23226939Y-19479721D01*
X23203071Y-19489608D01*
X23178755Y-19496125D01*
X23153126Y-19499500D01*
X22246873Y-19499500D01*
X22221249Y-19496126D01*
X22196932Y-19489610D01*
X22173057Y-19479721D01*
X22093187Y-19433608D01*
X22043799Y-19420375D01*
X21965892Y-19399500D01*
X21965890Y-19399500D01*
X21834109Y-19399500D01*
X21834108Y-19399500D01*
X21795154Y-19409937D01*
X21756199Y-19420375D01*
X21756198Y-19420374D01*
X21706807Y-19433609D01*
X21706805Y-19433610D01*
X21592694Y-19499492D01*
X21499492Y-19592694D01*
X21433610Y-19706805D01*
X21433608Y-19706809D01*
X21425814Y-19735895D01*
X21425815Y-19735896D01*
X21399500Y-19834108D01*
X12300500Y-19834108D01*
X12300500Y-19009993D01*
X12305344Y-18979405D01*
X12307197Y-18973701D01*
X12343158Y-18924199D01*
X12401348Y-18905289D01*
X12459539Y-18924193D01*
X12492090Y-18964694D01*
X12492330Y-18965244D01*
X12498690Y-18985524D01*
X12512200Y-19053438D01*
X12512200Y-19053442D01*
X12512201Y-19053442D01*
X12514102Y-19063002D01*
X12589824Y-19245811D01*
X12589825Y-19245812D01*
X12589827Y-19245816D01*
X12634375Y-19312485D01*
X12699754Y-19410331D01*
X12839669Y-19550246D01*
X12887360Y-19582112D01*
X12903186Y-19592687D01*
X12996104Y-19654774D01*
X13004183Y-19660172D01*
X13004195Y-19660178D01*
X13071722Y-19688148D01*
X13071723Y-19688149D01*
X13129360Y-19712022D01*
X13186998Y-19735897D01*
X13381065Y-19774500D01*
X13381066Y-19774500D01*
X13578934Y-19774500D01*
X13578935Y-19774500D01*
X13773002Y-19735897D01*
X13955428Y-19660333D01*
X13955799Y-19660182D01*
X13955806Y-19660177D01*
X13955809Y-19660176D01*
X13955811Y-19660174D01*
X13955816Y-19660172D01*
X14004675Y-19627525D01*
X14120331Y-19550246D01*
X14260246Y-19410331D01*
X14338430Y-19293319D01*
X14370172Y-19245816D01*
X14370178Y-19245804D01*
X14400552Y-19172475D01*
X14445897Y-19063002D01*
X14484500Y-18868935D01*
X14484500Y-18671065D01*
X14445897Y-18476998D01*
X14401322Y-18369385D01*
X14370175Y-18294188D01*
X14370174Y-18294187D01*
X14370172Y-18294183D01*
X14307113Y-18199811D01*
X14260246Y-18129669D01*
X14203224Y-18072647D01*
X14120339Y-17989761D01*
X14120330Y-17989753D01*
X14073462Y-17958437D01*
X13955818Y-17879828D01*
X13955811Y-17879824D01*
X13955806Y-17879821D01*
X13773003Y-17804103D01*
X13578937Y-17765500D01*
X13578935Y-17765500D01*
X13381065Y-17765500D01*
X13381062Y-17765500D01*
X13381061Y-17765500D01*
X13196560Y-17802201D01*
X13196557Y-17802201D01*
X13186996Y-17804102D01*
X13004187Y-17879824D01*
X13004180Y-17879828D01*
X12839669Y-17989753D01*
X12699753Y-18129669D01*
X12589828Y-18294180D01*
X12589824Y-18294187D01*
X12514104Y-18476992D01*
X12514103Y-18476998D01*
X12499657Y-18549621D01*
X12488929Y-18578692D01*
X12485998Y-18583924D01*
X12441063Y-18625451D01*
X12380301Y-18632634D01*
X12326921Y-18602730D01*
X12302894Y-18556600D01*
X12302765Y-18556009D01*
X12300500Y-18534951D01*
X12300500Y-16469993D01*
X12305344Y-16439405D01*
X12307197Y-16433701D01*
X12343158Y-16384199D01*
X12401348Y-16365289D01*
X12459539Y-16384193D01*
X12492070Y-16424649D01*
X12492311Y-16425198D01*
X12498689Y-16445519D01*
X12507987Y-16492255D01*
X12507987Y-16492256D01*
X12512200Y-16513434D01*
X12512201Y-16513442D01*
X12514102Y-16523002D01*
X12589824Y-16705811D01*
X12589828Y-16705818D01*
X12640110Y-16781069D01*
X12640127Y-16781093D01*
X12699754Y-16870331D01*
X12699757Y-16870334D01*
X12699761Y-16870339D01*
X12839665Y-17010242D01*
X12839669Y-17010246D01*
X12909811Y-17057113D01*
X13004183Y-17120172D01*
X13004195Y-17120178D01*
X13071722Y-17148148D01*
X13071723Y-17148149D01*
X13129360Y-17172022D01*
X13186998Y-17195897D01*
X13381065Y-17234500D01*
X13381066Y-17234500D01*
X13578934Y-17234500D01*
X13578935Y-17234500D01*
X13770584Y-17196378D01*
X17299500Y-17196378D01*
X17299500Y-17383620D01*
X17336025Y-17567247D01*
X17407681Y-17740239D01*
X17465970Y-17827472D01*
X17511694Y-17895903D01*
X17511695Y-17895904D01*
X17511698Y-17895908D01*
X17644092Y-18028302D01*
X17644095Y-18028304D01*
X17644097Y-18028306D01*
X17710460Y-18072647D01*
X17710462Y-18072649D01*
X17710463Y-18072649D01*
X17799761Y-18132318D01*
X17799763Y-18132318D01*
X17800211Y-18132618D01*
X17802988Y-18133655D01*
X17972749Y-18203973D01*
X18156384Y-18240500D01*
X18156385Y-18240500D01*
X18343615Y-18240500D01*
X18343616Y-18240500D01*
X18527251Y-18203973D01*
X18693484Y-18135116D01*
X18695189Y-18134554D01*
X18699069Y-18132835D01*
X18700170Y-18132362D01*
X18700228Y-18132323D01*
X18700231Y-18132322D01*
X18700234Y-18132319D01*
X18700238Y-18132318D01*
X18745187Y-18102282D01*
X18855908Y-18028302D01*
X18988302Y-17895908D01*
X19059476Y-17789387D01*
X19080497Y-17766648D01*
X19086975Y-17761541D01*
X19144380Y-17740367D01*
X19203267Y-17756978D01*
X19241139Y-17805014D01*
X19243377Y-17811080D01*
X19249500Y-17845355D01*
X19249500Y-18014678D01*
X19264033Y-18087737D01*
X19264035Y-18087742D01*
X19313091Y-18161162D01*
X19319397Y-18170599D01*
X19319400Y-18170602D01*
X19319403Y-18170604D01*
X19402210Y-18225933D01*
X19402236Y-18225950D01*
X19402257Y-18225964D01*
X19402260Y-18225966D01*
X19457808Y-18237015D01*
X19469240Y-18239289D01*
X19471405Y-18239863D01*
X19473579Y-18240216D01*
X19475152Y-18240500D01*
X19475326Y-18240500D01*
X19475327Y-18240500D01*
X21024673Y-18240500D01*
X21024674Y-18240500D01*
X21097740Y-18225966D01*
X21180601Y-18170601D01*
X21235966Y-18087740D01*
X21250500Y-18014674D01*
X21250500Y-16565326D01*
X21248844Y-16557003D01*
X21242596Y-16525593D01*
X21235966Y-16492260D01*
X21180601Y-16409399D01*
X21180599Y-16409397D01*
X21180595Y-16409394D01*
X21180593Y-16409392D01*
X21097748Y-16354038D01*
X21097737Y-16354032D01*
X21097534Y-16353964D01*
X21095997Y-16353687D01*
X21024694Y-16339503D01*
X21024684Y-16339501D01*
X21024679Y-16339500D01*
X21024676Y-16339500D01*
X21024674Y-16339500D01*
X19475326Y-16339500D01*
X19475325Y-16339500D01*
X19475322Y-16339500D01*
X19475318Y-16339500D01*
X19475315Y-16339501D01*
X19439039Y-16346717D01*
X19402261Y-16354033D01*
X19402256Y-16354035D01*
X19319403Y-16409394D01*
X19319394Y-16409403D01*
X19264034Y-16492257D01*
X19249500Y-16565320D01*
X19249500Y-16732961D01*
X19244652Y-16763561D01*
X19242104Y-16771401D01*
X19206137Y-16820898D01*
X19147945Y-16839801D01*
X19089759Y-16820892D01*
X19084529Y-16817092D01*
X19060407Y-16792004D01*
X19020041Y-16731593D01*
X18988302Y-16684092D01*
X18928831Y-16624621D01*
X18855916Y-16551705D01*
X18855907Y-16551697D01*
X18811558Y-16522064D01*
X18700239Y-16447681D01*
X18527247Y-16376025D01*
X18343620Y-16339500D01*
X18343618Y-16339500D01*
X18343616Y-16339500D01*
X18156384Y-16339500D01*
X18156381Y-16339500D01*
X18156378Y-16339500D01*
X17972751Y-16376025D01*
X17799759Y-16447681D01*
X17644092Y-16551697D01*
X17511697Y-16684092D01*
X17407681Y-16839759D01*
X17336025Y-17012751D01*
X17299500Y-17196378D01*
X13770584Y-17196378D01*
X13773002Y-17195897D01*
X13955809Y-17120176D01*
X14120331Y-17010246D01*
X14260246Y-16870331D01*
X14352948Y-16731593D01*
X14361877Y-16718231D01*
X14370168Y-16705822D01*
X14370168Y-16705821D01*
X14370172Y-16705816D01*
X14370178Y-16705804D01*
X14387220Y-16664659D01*
X14428365Y-16565328D01*
X14428365Y-16565327D01*
X14431813Y-16557003D01*
X14445897Y-16523002D01*
X14484500Y-16328935D01*
X14484500Y-16131065D01*
X14445897Y-15936998D01*
X14370176Y-15754191D01*
X14370175Y-15754188D01*
X14370174Y-15754187D01*
X14370170Y-15754180D01*
X14298687Y-15647200D01*
X14298685Y-15647197D01*
X14260246Y-15589669D01*
X14120331Y-15449754D01*
X14073462Y-15418437D01*
X13987523Y-15361013D01*
X13955818Y-15339828D01*
X13955811Y-15339824D01*
X13955806Y-15339821D01*
X13773003Y-15264103D01*
X13578937Y-15225500D01*
X13578935Y-15225500D01*
X13381065Y-15225500D01*
X13381062Y-15225500D01*
X13381061Y-15225500D01*
X13196560Y-15262201D01*
X13196557Y-15262201D01*
X13186996Y-15264102D01*
X13004187Y-15339824D01*
X13004180Y-15339828D01*
X12839669Y-15449753D01*
X12699753Y-15589669D01*
X12589828Y-15754180D01*
X12589824Y-15754187D01*
X12514104Y-15936992D01*
X12514103Y-15936998D01*
X12499657Y-16009621D01*
X12488929Y-16038692D01*
X12485998Y-16043924D01*
X12441063Y-16085451D01*
X12380301Y-16092634D01*
X12326921Y-16062730D01*
X12302894Y-16016600D01*
X12302765Y-16016009D01*
X12300500Y-15994951D01*
X12300500Y-13929993D01*
X12305344Y-13899405D01*
X12307197Y-13893701D01*
X12343158Y-13844199D01*
X12401348Y-13825289D01*
X12459539Y-13844193D01*
X12492090Y-13884694D01*
X12492330Y-13885244D01*
X12498690Y-13905524D01*
X12512200Y-13973438D01*
X12512200Y-13973442D01*
X12512201Y-13973442D01*
X12514102Y-13983002D01*
X12589824Y-14165811D01*
X12589828Y-14165818D01*
X12661291Y-14272768D01*
X12661300Y-14272781D01*
X12661315Y-14272803D01*
X12699754Y-14330331D01*
X12699758Y-14330335D01*
X12699761Y-14330339D01*
X12839669Y-14470246D01*
X12909811Y-14517113D01*
X12909812Y-14517114D01*
X12956679Y-14548430D01*
X13004183Y-14580172D01*
X13004195Y-14580178D01*
X13071722Y-14608148D01*
X13071723Y-14608149D01*
X13129360Y-14632022D01*
X13186998Y-14655897D01*
X13381065Y-14694500D01*
X13381066Y-14694500D01*
X13578934Y-14694500D01*
X13578935Y-14694500D01*
X13773002Y-14655897D01*
X13888276Y-14608149D01*
X13955361Y-14580362D01*
X13955797Y-14580184D01*
X13955813Y-14580173D01*
X13955816Y-14580172D01*
X14003319Y-14548430D01*
X14120331Y-14470246D01*
X14260246Y-14330331D01*
X14338430Y-14213319D01*
X14370172Y-14165816D01*
X14370175Y-14165811D01*
X14370176Y-14165808D01*
X14370178Y-14165804D01*
X14445897Y-13983002D01*
X14484500Y-13788935D01*
X14484500Y-13591065D01*
X14445897Y-13396998D01*
X14370176Y-13214191D01*
X14370175Y-13214188D01*
X14370174Y-13214187D01*
X14370170Y-13214180D01*
X14298687Y-13107200D01*
X14298685Y-13107197D01*
X14260246Y-13049669D01*
X14120331Y-12909754D01*
X14073462Y-12878437D01*
X14044327Y-12858969D01*
X13955818Y-12799828D01*
X13955811Y-12799824D01*
X13955806Y-12799821D01*
X13773003Y-12724103D01*
X13578937Y-12685500D01*
X13578935Y-12685500D01*
X13381065Y-12685500D01*
X13381062Y-12685500D01*
X13381061Y-12685500D01*
X13196560Y-12722201D01*
X13196557Y-12722201D01*
X13186996Y-12724102D01*
X13004187Y-12799824D01*
X13004180Y-12799828D01*
X12839669Y-12909753D01*
X12699753Y-13049669D01*
X12589828Y-13214180D01*
X12589824Y-13214187D01*
X12514104Y-13396992D01*
X12514103Y-13396998D01*
X12499657Y-13469621D01*
X12488929Y-13498692D01*
X12485998Y-13503924D01*
X12441063Y-13545451D01*
X12380301Y-13552634D01*
X12326921Y-13522730D01*
X12302894Y-13476600D01*
X12302765Y-13476009D01*
X12300500Y-13454951D01*
X12300500Y-13007300D01*
X12300619Y-13002447D01*
X12300858Y-12997577D01*
X12301216Y-12992726D01*
X12309388Y-12909757D01*
X12312510Y-12878049D01*
X12313931Y-12868477D01*
X12315825Y-12858955D01*
X12318176Y-12849569D01*
X12349511Y-12746271D01*
X12352773Y-12737155D01*
X12356480Y-12728205D01*
X12360624Y-12719442D01*
X12411511Y-12624240D01*
X12416481Y-12615947D01*
X12421874Y-12607875D01*
X12427647Y-12600093D01*
X12496111Y-12516671D01*
X12502627Y-12509481D01*
X12509483Y-12502624D01*
X12516671Y-12496111D01*
X12600093Y-12427647D01*
X12607879Y-12421872D01*
X12615947Y-12416481D01*
X12624240Y-12411511D01*
X12719442Y-12360624D01*
X12728198Y-12356482D01*
X12737165Y-12352768D01*
X12746271Y-12349511D01*
X12849570Y-12318175D01*
X12858957Y-12315824D01*
X12868481Y-12313930D01*
X12878062Y-12312509D01*
X12992769Y-12301211D01*
X12997561Y-12300858D01*
X13002457Y-12300617D01*
X13007285Y-12300500D01*
X20845500Y-12300500D01*
X20903691Y-12319407D01*
G37*
G04 #@! TD.AperFunction*
G04 #@! TA.AperFunction,Conductor*
G36*
X35997541Y-12300617D02*
G01*
X36002436Y-12300858D01*
X36007229Y-12301211D01*
X36121928Y-12312508D01*
X36131518Y-12313930D01*
X36141032Y-12315823D01*
X36150447Y-12318182D01*
X36222227Y-12339956D01*
X36253693Y-12349501D01*
X36262838Y-12352773D01*
X36271793Y-12356482D01*
X36280578Y-12360637D01*
X36375734Y-12411499D01*
X36384063Y-12416491D01*
X36392095Y-12421858D01*
X36392116Y-12421872D01*
X36399916Y-12427657D01*
X36483318Y-12496103D01*
X36490517Y-12502627D01*
X36497371Y-12509481D01*
X36503895Y-12516680D01*
X36572341Y-12600082D01*
X36578126Y-12607882D01*
X36583502Y-12615927D01*
X36588499Y-12624264D01*
X36639361Y-12719420D01*
X36643516Y-12728205D01*
X36647225Y-12737160D01*
X36650497Y-12746305D01*
X36681815Y-12849546D01*
X36684175Y-12858969D01*
X36686065Y-12868470D01*
X36687491Y-12878081D01*
X36698783Y-12992728D01*
X36699140Y-12997556D01*
X36699380Y-13002423D01*
X36699500Y-13007299D01*
X36699500Y-18485319D01*
X36694654Y-18515912D01*
X36690532Y-18528598D01*
X36654580Y-18578089D01*
X36650459Y-18581084D01*
X36592271Y-18600000D01*
X35572757Y-18600000D01*
X35514566Y-18581093D01*
X35482851Y-18542448D01*
X35471685Y-18518227D01*
X35471684Y-18518226D01*
X35435724Y-18468730D01*
X35435721Y-18468727D01*
X35430436Y-18463010D01*
X35394950Y-18424622D01*
X35307969Y-18375912D01*
X35270571Y-18363761D01*
X35249773Y-18357003D01*
X35170829Y-18344500D01*
X35170826Y-18344500D01*
X32224174Y-18344500D01*
X32215215Y-18345471D01*
X32169416Y-18350436D01*
X32169405Y-18350438D01*
X32127985Y-18359527D01*
X32127950Y-18359536D01*
X32094300Y-18369383D01*
X32094294Y-18369386D01*
X32009298Y-18421470D01*
X31964360Y-18463010D01*
X31939399Y-18492236D01*
X31925358Y-18508676D01*
X31912844Y-18538887D01*
X31873108Y-18585411D01*
X31821381Y-18600000D01*
X30858478Y-18600000D01*
X30800287Y-18581093D01*
X30789401Y-18571918D01*
X30775190Y-18558074D01*
X30723878Y-18524751D01*
X30723875Y-18524749D01*
X30650851Y-18492237D01*
X30650841Y-18492233D01*
X30598720Y-18478267D01*
X30597582Y-18477528D01*
X30596225Y-18477564D01*
X30574846Y-18468379D01*
X30530153Y-18442575D01*
X30509653Y-18426845D01*
X30473151Y-18390343D01*
X30457422Y-18369844D01*
X30431619Y-18325152D01*
X30421731Y-18301279D01*
X30408373Y-18251424D01*
X30405522Y-18229771D01*
X30405034Y-18228392D01*
X30405246Y-18227674D01*
X30405000Y-18225802D01*
X30405000Y-18174196D01*
X30408373Y-18148575D01*
X30413818Y-18128250D01*
X30413818Y-18128247D01*
X30421732Y-18098712D01*
X30431618Y-18074845D01*
X30457423Y-18030151D01*
X30473149Y-18009657D01*
X30521321Y-17961486D01*
X30522122Y-17961078D01*
X30536435Y-17946384D01*
X30537284Y-17945523D01*
X30542651Y-17940157D01*
X30542653Y-17940155D01*
X30542652Y-17940154D01*
X30542657Y-17940151D01*
X30545464Y-17937343D01*
X30546333Y-17936473D01*
X30548151Y-17934703D01*
X30549158Y-17933745D01*
X30550243Y-17932564D01*
X30563455Y-17919352D01*
X30568517Y-17913144D01*
X30575377Y-17905624D01*
X30580814Y-17895916D01*
X30624088Y-17818642D01*
X30642995Y-17760451D01*
X30646176Y-17740367D01*
X30655500Y-17681502D01*
X30655500Y-16899006D01*
X30655500Y-16899000D01*
X30652355Y-16859035D01*
X30647510Y-16828442D01*
X30643595Y-16808761D01*
X30601859Y-16718227D01*
X30592833Y-16705804D01*
X30565898Y-16668730D01*
X30565895Y-16668727D01*
X30525124Y-16624622D01*
X30438143Y-16575912D01*
X30400745Y-16563761D01*
X30379947Y-16557003D01*
X30301003Y-16544500D01*
X30301000Y-16544500D01*
X29802253Y-16544500D01*
X29744062Y-16525593D01*
X29708098Y-16476093D01*
X29705155Y-16426185D01*
X29724500Y-16328935D01*
X29724500Y-16131065D01*
X29685897Y-15936998D01*
X29610176Y-15754191D01*
X29610175Y-15754188D01*
X29610174Y-15754187D01*
X29610170Y-15754180D01*
X29538687Y-15647200D01*
X29538685Y-15647197D01*
X29500246Y-15589669D01*
X29360331Y-15449754D01*
X29313462Y-15418437D01*
X29227523Y-15361013D01*
X29195818Y-15339828D01*
X29195811Y-15339824D01*
X29195806Y-15339821D01*
X29013003Y-15264103D01*
X28818937Y-15225500D01*
X28818935Y-15225500D01*
X28621065Y-15225500D01*
X28621062Y-15225500D01*
X28621061Y-15225500D01*
X28436560Y-15262201D01*
X28436557Y-15262201D01*
X28426996Y-15264102D01*
X28244187Y-15339824D01*
X28244180Y-15339828D01*
X28129502Y-15416455D01*
X28070614Y-15433064D01*
X28013210Y-15411887D01*
X27979217Y-15361013D01*
X27975500Y-15334140D01*
X27975500Y-14585858D01*
X27994407Y-14527667D01*
X28043907Y-14491703D01*
X28105093Y-14491703D01*
X28129502Y-14503543D01*
X28149812Y-14517114D01*
X28196679Y-14548430D01*
X28244183Y-14580172D01*
X28244195Y-14580178D01*
X28311722Y-14608148D01*
X28311723Y-14608149D01*
X28369360Y-14632022D01*
X28426998Y-14655897D01*
X28621065Y-14694500D01*
X28621066Y-14694500D01*
X28818934Y-14694500D01*
X28818935Y-14694500D01*
X29013002Y-14655897D01*
X29128276Y-14608149D01*
X29195361Y-14580362D01*
X29195797Y-14580184D01*
X29195813Y-14580173D01*
X29195816Y-14580172D01*
X29243319Y-14548430D01*
X29360331Y-14470246D01*
X29500246Y-14330331D01*
X29578430Y-14213319D01*
X29610172Y-14165816D01*
X29610175Y-14165811D01*
X29610176Y-14165808D01*
X29610178Y-14165804D01*
X29685897Y-13983002D01*
X29724500Y-13788935D01*
X29724500Y-13591065D01*
X29685897Y-13396998D01*
X29610176Y-13214191D01*
X29610175Y-13214188D01*
X29610174Y-13214187D01*
X29610170Y-13214180D01*
X29538687Y-13107200D01*
X29538685Y-13107197D01*
X29500246Y-13049669D01*
X29360331Y-12909754D01*
X29313462Y-12878437D01*
X29284327Y-12858969D01*
X29195818Y-12799828D01*
X29195811Y-12799824D01*
X29195806Y-12799821D01*
X29013003Y-12724103D01*
X28818937Y-12685500D01*
X28818935Y-12685500D01*
X28621065Y-12685500D01*
X28621062Y-12685500D01*
X28621061Y-12685500D01*
X28436560Y-12722201D01*
X28436557Y-12722201D01*
X28426996Y-12724102D01*
X28244187Y-12799824D01*
X28244180Y-12799828D01*
X28129502Y-12876455D01*
X28070614Y-12893064D01*
X28013210Y-12871887D01*
X27979217Y-12821013D01*
X27975500Y-12794140D01*
X27975500Y-12399500D01*
X27994407Y-12341309D01*
X28043907Y-12305345D01*
X28074500Y-12300500D01*
X35992714Y-12300500D01*
X35997541Y-12300617D01*
G37*
G04 #@! TD.AperFunction*
G04 #@! TD*
G04 #@! TA.AperFunction,Conductor*
G04 #@! TO.N,+12V*
G36*
X27679191Y-12319407D02*
G01*
X27715155Y-12368907D01*
X27720000Y-12399500D01*
X27720000Y-13558689D01*
X27718098Y-13578003D01*
X27715500Y-13591062D01*
X27715500Y-13788937D01*
X27718098Y-13801996D01*
X27720000Y-13821308D01*
X27720000Y-16098689D01*
X27718098Y-16118003D01*
X27715500Y-16131062D01*
X27715500Y-16328937D01*
X27718098Y-16341996D01*
X27720000Y-16361308D01*
X27720000Y-16800000D01*
X27839844Y-16800000D01*
X27898035Y-16818907D01*
X27922158Y-16843997D01*
X27939754Y-16870331D01*
X28079669Y-17010246D01*
X28149811Y-17057113D01*
X28244183Y-17120172D01*
X28244195Y-17120178D01*
X28311722Y-17148148D01*
X28426998Y-17195897D01*
X28621065Y-17234500D01*
X28621066Y-17234500D01*
X28818934Y-17234500D01*
X28818935Y-17234500D01*
X29013002Y-17195897D01*
X29195809Y-17120176D01*
X29195811Y-17120174D01*
X29195816Y-17120172D01*
X29251168Y-17083186D01*
X29360331Y-17010246D01*
X29500246Y-16870331D01*
X29517840Y-16843998D01*
X29565890Y-16806119D01*
X29600156Y-16800000D01*
X30301000Y-16800000D01*
X30359191Y-16818907D01*
X30395155Y-16868407D01*
X30400000Y-16899000D01*
X30400000Y-17681499D01*
X30381093Y-17739690D01*
X30366421Y-17754752D01*
X30366573Y-17754904D01*
X30361987Y-17759489D01*
X30361985Y-17759491D01*
X30279687Y-17841789D01*
X30259488Y-17861988D01*
X30259487Y-17861989D01*
X30187017Y-17987510D01*
X30160160Y-18087740D01*
X30149500Y-18127525D01*
X30149500Y-18272475D01*
X30155317Y-18294183D01*
X30187017Y-18412489D01*
X30259487Y-18538010D01*
X30259489Y-18538012D01*
X30259491Y-18538015D01*
X30361985Y-18640509D01*
X30361987Y-18640510D01*
X30361989Y-18640512D01*
X30487511Y-18712982D01*
X30487509Y-18712982D01*
X30487513Y-18712983D01*
X30487515Y-18712984D01*
X30584721Y-18739030D01*
X30636033Y-18772353D01*
X30657960Y-18829475D01*
X30642125Y-18888575D01*
X30614098Y-18916971D01*
X30569086Y-18947048D01*
X30569083Y-18947050D01*
X30464548Y-19051585D01*
X30382415Y-19174506D01*
X30325842Y-19311085D01*
X30297000Y-19456081D01*
X30297000Y-19603918D01*
X30325842Y-19748914D01*
X30377023Y-19872475D01*
X30382416Y-19885495D01*
X30464549Y-20008416D01*
X30569084Y-20112951D01*
X30692005Y-20195084D01*
X30828587Y-20251658D01*
X30973582Y-20280500D01*
X30973583Y-20280500D01*
X31703954Y-20280500D01*
X31762145Y-20299407D01*
X31798109Y-20348907D01*
X31798109Y-20410093D01*
X31762145Y-20459593D01*
X31753454Y-20465236D01*
X31694139Y-20499481D01*
X31586981Y-20606639D01*
X31511220Y-20737860D01*
X31511219Y-20737865D01*
X31472000Y-20884234D01*
X31472000Y-21035766D01*
X31486510Y-21089917D01*
X31511220Y-21182139D01*
X31586981Y-21313360D01*
X31586983Y-21313362D01*
X31586985Y-21313365D01*
X31694135Y-21420515D01*
X31694137Y-21420516D01*
X31694139Y-21420518D01*
X31825361Y-21496279D01*
X31825359Y-21496279D01*
X31825363Y-21496280D01*
X31825365Y-21496281D01*
X31971734Y-21535500D01*
X31971736Y-21535500D01*
X32123264Y-21535500D01*
X32123266Y-21535500D01*
X32269635Y-21496281D01*
X32269637Y-21496279D01*
X32269639Y-21496279D01*
X32400860Y-21420518D01*
X32400860Y-21420517D01*
X32400865Y-21420515D01*
X32508015Y-21313365D01*
X32508018Y-21313360D01*
X32583779Y-21182139D01*
X32583779Y-21182137D01*
X32583781Y-21182135D01*
X32623000Y-21035766D01*
X32623000Y-20884234D01*
X32583781Y-20737865D01*
X32583779Y-20737862D01*
X32583779Y-20737860D01*
X32508018Y-20606639D01*
X32508016Y-20606637D01*
X32508015Y-20606635D01*
X32400865Y-20499485D01*
X32400862Y-20499483D01*
X32400860Y-20499481D01*
X32268620Y-20423132D01*
X32227679Y-20377663D01*
X32221283Y-20316812D01*
X32251876Y-20263824D01*
X32280231Y-20245934D01*
X32402995Y-20195084D01*
X32525916Y-20112951D01*
X32630451Y-20008416D01*
X32712584Y-19885495D01*
X32769158Y-19748913D01*
X32798000Y-19603918D01*
X32798000Y-19456082D01*
X32769158Y-19311087D01*
X32712584Y-19174505D01*
X32630451Y-19051584D01*
X32525916Y-18947049D01*
X32402995Y-18864916D01*
X32402993Y-18864915D01*
X32266414Y-18808342D01*
X32231279Y-18801353D01*
X32204858Y-18796097D01*
X32151476Y-18766201D01*
X32125860Y-18710635D01*
X32137797Y-18650626D01*
X32182727Y-18609094D01*
X32224174Y-18600000D01*
X35170826Y-18600000D01*
X35229017Y-18618907D01*
X35264981Y-18668407D01*
X35264981Y-18729593D01*
X35229017Y-18779093D01*
X35190141Y-18796097D01*
X35173321Y-18799443D01*
X35128585Y-18808342D01*
X34992006Y-18864915D01*
X34869085Y-18947048D01*
X34764548Y-19051585D01*
X34682415Y-19174506D01*
X34625842Y-19311085D01*
X34597000Y-19456081D01*
X34597000Y-19603918D01*
X34625842Y-19748914D01*
X34677023Y-19872475D01*
X34682416Y-19885495D01*
X34764549Y-20008416D01*
X34869084Y-20112951D01*
X34992005Y-20195084D01*
X35128587Y-20251658D01*
X35273582Y-20280500D01*
X35273583Y-20280500D01*
X36221417Y-20280500D01*
X36221418Y-20280500D01*
X36366413Y-20251658D01*
X36502995Y-20195084D01*
X36545499Y-20166683D01*
X36604386Y-20150075D01*
X36661790Y-20171252D01*
X36695783Y-20222126D01*
X36699500Y-20248999D01*
X36699500Y-27451000D01*
X36680593Y-27509191D01*
X36631093Y-27545155D01*
X36569907Y-27545155D01*
X36545499Y-27533316D01*
X36502992Y-27504914D01*
X36366414Y-27448342D01*
X36221418Y-27419500D01*
X35749500Y-27419500D01*
X35691309Y-27400593D01*
X35655345Y-27351093D01*
X35650500Y-27320500D01*
X35650500Y-26095193D01*
X35669407Y-26037002D01*
X35694498Y-26012878D01*
X35837782Y-25917139D01*
X35977139Y-25777782D01*
X36086632Y-25613914D01*
X36162051Y-25431835D01*
X36200500Y-25238541D01*
X36200500Y-25041459D01*
X36162051Y-24848165D01*
X36086632Y-24666086D01*
X35977139Y-24502218D01*
X35837782Y-24362861D01*
X35673914Y-24253368D01*
X35673915Y-24253368D01*
X35673913Y-24253367D01*
X35491835Y-24177949D01*
X35298543Y-24139500D01*
X35298541Y-24139500D01*
X35101459Y-24139500D01*
X35101456Y-24139500D01*
X34908165Y-24177949D01*
X34908163Y-24177949D01*
X34726086Y-24253367D01*
X34562218Y-24362861D01*
X34562214Y-24362864D01*
X34422864Y-24502214D01*
X34422861Y-24502218D01*
X34313367Y-24666086D01*
X34237949Y-24848163D01*
X34237949Y-24848165D01*
X34199500Y-25041456D01*
X34199500Y-25238543D01*
X34237949Y-25431834D01*
X34237949Y-25431836D01*
X34313367Y-25613913D01*
X34313368Y-25613914D01*
X34422861Y-25777782D01*
X34562218Y-25917139D01*
X34705502Y-26012878D01*
X34743381Y-26060928D01*
X34749500Y-26095193D01*
X34749500Y-27684074D01*
X34732816Y-27739075D01*
X34682414Y-27814507D01*
X34625842Y-27951085D01*
X34597000Y-28096081D01*
X34597000Y-28243918D01*
X34625842Y-28388914D01*
X34656109Y-28461985D01*
X34682416Y-28525495D01*
X34764549Y-28648416D01*
X34869084Y-28752951D01*
X34992005Y-28835084D01*
X35128587Y-28891658D01*
X35190141Y-28903902D01*
X35243524Y-28933799D01*
X35269140Y-28989365D01*
X35257203Y-29049374D01*
X35212273Y-29090906D01*
X35170826Y-29100000D01*
X32224174Y-29100000D01*
X32165983Y-29081093D01*
X32130019Y-29031593D01*
X32130019Y-28970407D01*
X32165983Y-28920907D01*
X32204858Y-28903902D01*
X32266413Y-28891658D01*
X32402995Y-28835084D01*
X32525916Y-28752951D01*
X32630451Y-28648416D01*
X32712584Y-28525495D01*
X32769158Y-28388913D01*
X32798000Y-28243918D01*
X32798000Y-28096082D01*
X32769158Y-27951087D01*
X32712584Y-27814505D01*
X32630451Y-27691584D01*
X32525916Y-27587049D01*
X32402995Y-27504916D01*
X32402993Y-27504915D01*
X32280235Y-27454067D01*
X32233709Y-27414331D01*
X32219425Y-27354836D01*
X32242840Y-27298308D01*
X32268620Y-27276866D01*
X32269631Y-27276281D01*
X32269635Y-27276281D01*
X32400865Y-27200515D01*
X32508015Y-27093365D01*
X32511681Y-27087016D01*
X32583779Y-26962139D01*
X32583779Y-26962137D01*
X32583781Y-26962135D01*
X32623000Y-26815766D01*
X32623000Y-26664234D01*
X32583781Y-26517865D01*
X32583779Y-26517862D01*
X32583779Y-26517860D01*
X32508018Y-26386639D01*
X32508016Y-26386637D01*
X32508015Y-26386635D01*
X32400865Y-26279485D01*
X32400862Y-26279483D01*
X32400860Y-26279481D01*
X32269638Y-26203720D01*
X32269640Y-26203720D01*
X32212847Y-26188503D01*
X32123266Y-26164500D01*
X31971734Y-26164500D01*
X31882152Y-26188503D01*
X31825360Y-26203720D01*
X31694139Y-26279481D01*
X31586981Y-26386639D01*
X31511220Y-26517860D01*
X31489293Y-26599693D01*
X31472000Y-26664234D01*
X31472000Y-26815766D01*
X31504756Y-26938015D01*
X31511220Y-26962139D01*
X31586981Y-27093360D01*
X31586983Y-27093362D01*
X31586985Y-27093365D01*
X31694135Y-27200515D01*
X31694137Y-27200516D01*
X31694139Y-27200518D01*
X31753454Y-27234764D01*
X31794395Y-27280234D01*
X31800791Y-27341084D01*
X31770198Y-27394072D01*
X31714302Y-27418958D01*
X31703954Y-27419500D01*
X30973581Y-27419500D01*
X30828585Y-27448342D01*
X30692006Y-27504915D01*
X30569085Y-27587048D01*
X30464548Y-27691585D01*
X30382415Y-27814506D01*
X30325842Y-27951085D01*
X30297000Y-28096081D01*
X30297000Y-28243918D01*
X30325842Y-28388914D01*
X30356109Y-28461985D01*
X30382416Y-28525495D01*
X30464549Y-28648416D01*
X30569084Y-28752951D01*
X30598304Y-28772475D01*
X30648284Y-28805871D01*
X30686163Y-28853921D01*
X30688565Y-28915059D01*
X30663286Y-28958189D01*
X30554903Y-29066573D01*
X30553850Y-29065520D01*
X30509621Y-29095922D01*
X30481500Y-29100000D01*
X29823500Y-29100000D01*
X29765309Y-29081093D01*
X29729345Y-29031593D01*
X29724500Y-29001000D01*
X29724500Y-28831066D01*
X29724499Y-28831062D01*
X29720804Y-28812485D01*
X29685897Y-28636998D01*
X29623979Y-28487515D01*
X29610178Y-28454195D01*
X29610172Y-28454183D01*
X29516685Y-28314272D01*
X29500000Y-28259270D01*
X29500000Y-27060729D01*
X29516684Y-27005729D01*
X29610176Y-26865809D01*
X29685897Y-26683002D01*
X29724500Y-26488935D01*
X29724500Y-26291065D01*
X29685897Y-26096998D01*
X29611397Y-25917138D01*
X29610178Y-25914195D01*
X29610172Y-25914183D01*
X29516685Y-25774272D01*
X29500000Y-25719270D01*
X29500000Y-24520729D01*
X29516684Y-24465729D01*
X29610176Y-24325809D01*
X29685897Y-24143002D01*
X29724500Y-23948935D01*
X29724500Y-23751065D01*
X29685897Y-23556998D01*
X29610176Y-23374191D01*
X29610172Y-23374183D01*
X29516685Y-23234272D01*
X29500000Y-23179270D01*
X29500000Y-21980729D01*
X29516684Y-21925729D01*
X29610176Y-21785809D01*
X29685897Y-21603002D01*
X29724500Y-21408935D01*
X29724500Y-21211065D01*
X29685897Y-21016998D01*
X29660656Y-20956062D01*
X29610178Y-20834195D01*
X29610172Y-20834183D01*
X29545810Y-20737860D01*
X29500246Y-20669669D01*
X29360331Y-20529754D01*
X29313462Y-20498437D01*
X29195816Y-20419827D01*
X29195804Y-20419821D01*
X29013002Y-20344103D01*
X28818937Y-20305500D01*
X28818935Y-20305500D01*
X28621065Y-20305500D01*
X28621062Y-20305500D01*
X28426998Y-20344103D01*
X28426996Y-20344103D01*
X28244195Y-20419821D01*
X28244183Y-20419827D01*
X28079669Y-20529754D01*
X28079665Y-20529757D01*
X27939757Y-20669665D01*
X27939754Y-20669669D01*
X27829827Y-20834183D01*
X27829820Y-20834198D01*
X27827878Y-20838887D01*
X27788141Y-20885412D01*
X27736415Y-20900000D01*
X26882378Y-20900000D01*
X26824188Y-20881093D01*
X26676642Y-20773895D01*
X26676638Y-20773893D01*
X26459181Y-20663094D01*
X26459178Y-20663092D01*
X26368407Y-20633599D01*
X26318907Y-20597635D01*
X26300000Y-20539445D01*
X26300000Y-20445885D01*
X26318907Y-20387694D01*
X26368407Y-20351730D01*
X26373366Y-20350261D01*
X26512485Y-20312984D01*
X26512487Y-20312982D01*
X26512489Y-20312982D01*
X26638010Y-20240512D01*
X26638010Y-20240511D01*
X26638015Y-20240509D01*
X26740509Y-20138015D01*
X26812984Y-20012485D01*
X26850500Y-19872475D01*
X26850500Y-19727525D01*
X26812984Y-19587515D01*
X26812982Y-19587512D01*
X26812982Y-19587510D01*
X26740512Y-19461989D01*
X26740510Y-19461987D01*
X26740509Y-19461985D01*
X26638015Y-19359491D01*
X26638012Y-19359489D01*
X26638010Y-19359487D01*
X26512488Y-19287017D01*
X26512484Y-19287015D01*
X26373376Y-19249740D01*
X26322062Y-19216416D01*
X26300136Y-19159294D01*
X26300000Y-19154114D01*
X26300000Y-18671062D01*
X27715500Y-18671062D01*
X27715500Y-18868937D01*
X27754103Y-19063001D01*
X27754103Y-19063003D01*
X27829821Y-19245804D01*
X27829827Y-19245816D01*
X27873441Y-19311087D01*
X27939754Y-19410331D01*
X28079669Y-19550246D01*
X28135439Y-19587510D01*
X28244183Y-19660172D01*
X28244195Y-19660178D01*
X28311722Y-19688148D01*
X28426998Y-19735897D01*
X28621065Y-19774500D01*
X28621066Y-19774500D01*
X28818934Y-19774500D01*
X28818935Y-19774500D01*
X29013002Y-19735897D01*
X29195809Y-19660176D01*
X29195811Y-19660174D01*
X29195816Y-19660172D01*
X29243319Y-19628430D01*
X29360331Y-19550246D01*
X29500246Y-19410331D01*
X29582643Y-19287015D01*
X29610172Y-19245816D01*
X29610178Y-19245804D01*
X29622351Y-19216416D01*
X29685897Y-19063002D01*
X29724500Y-18868935D01*
X29724500Y-18671065D01*
X29685897Y-18476998D01*
X29638321Y-18362139D01*
X29610178Y-18294195D01*
X29610172Y-18294183D01*
X29529022Y-18172736D01*
X29500246Y-18129669D01*
X29360331Y-17989754D01*
X29313462Y-17958437D01*
X29195816Y-17879827D01*
X29195804Y-17879821D01*
X29013002Y-17804103D01*
X28818937Y-17765500D01*
X28818935Y-17765500D01*
X28621065Y-17765500D01*
X28621062Y-17765500D01*
X28426998Y-17804103D01*
X28426996Y-17804103D01*
X28244195Y-17879821D01*
X28244183Y-17879827D01*
X28079669Y-17989754D01*
X28079665Y-17989757D01*
X27939757Y-18129665D01*
X27939754Y-18129669D01*
X27829827Y-18294183D01*
X27829821Y-18294195D01*
X27754103Y-18476996D01*
X27754103Y-18476998D01*
X27715500Y-18671062D01*
X26300000Y-18671062D01*
X26300000Y-13500001D01*
X26300000Y-13500000D01*
X26299999Y-13500000D01*
X21299000Y-13500000D01*
X21240809Y-13481093D01*
X21204845Y-13431593D01*
X21200000Y-13401000D01*
X21200000Y-12399500D01*
X21218907Y-12341309D01*
X21268407Y-12305345D01*
X21299000Y-12300500D01*
X27621000Y-12300500D01*
X27679191Y-12319407D01*
G37*
G04 #@! TD.AperFunction*
G04 #@! TD*
M02*
