G04 #@! TF.GenerationSoftware,KiCad,Pcbnew,10.0.6*
G04 #@! TF.CreationDate,2026-10-03T23:19:28+01:00*
G04 #@! TF.ProjectId,lock-picking,6c6f636b-2d70-4696-936b-696e672e6b69,v2*
G04 #@! TF.SameCoordinates,Original*
G04 #@! TF.FileFunction,Paste,Bot*
G04 #@! TF.FilePolarity,Positive*
%FSLAX46Y46*%
G04 Gerber Fmt 4.6, Leading zero omitted, Abs format (unit mm)*
G04 Created by KiCad (PCBNEW 10.0.6) date 2026-10-03 23:19:28*
%MOMM*%
%LPD*%
G01*
G04 APERTURE LIST*
G04 Aperture macros list*
%AMRoundRect*
0 Rectangle with rounded corners*
0 $1 Rounding radius*
0 $2 $3 $4 $5 $6 $7 $8 $9 X,Y pos of 4 corners*
0 Add a 4 corners polygon primitive as box body*
4,1,4,$2,$3,$4,$5,$6,$7,$8,$9,$2,$3,0*
0 Add four circle primitives for the rounded corners*
1,1,$1+$1,$2,$3*
1,1,$1+$1,$4,$5*
1,1,$1+$1,$6,$7*
1,1,$1+$1,$8,$9*
0 Add four rect primitives between the rounded corners*
20,1,$1+$1,$2,$3,$4,$5,0*
20,1,$1+$1,$4,$5,$6,$7,0*
20,1,$1+$1,$6,$7,$8,$9,0*
20,1,$1+$1,$8,$9,$2,$3,0*%
%AMFreePoly0*
4,1,14,0.885366,0.885366,0.900011,0.850011,0.900011,-0.850011,0.885366,-0.885366,0.850011,-0.900011,-0.850011,-0.900011,-0.885366,-0.885366,-0.900011,-0.850011,-0.900011,0.499999,-0.885366,0.535354,-0.535354,0.885366,-0.499999,0.900011,0.850011,0.900011,0.885366,0.885366,0.885366,0.885366,$1*%
G04 Aperture macros list end*
%ADD10R,0.600000X0.400000*%
%ADD11R,0.400000X0.600000*%
%ADD12R,0.600000X0.600000*%
%ADD13RoundRect,0.062500X0.062500X-0.350000X0.062500X0.350000X-0.062500X0.350000X-0.062500X-0.350000X0*%
%ADD14RoundRect,0.062500X0.350000X-0.062500X0.350000X0.062500X-0.350000X0.062500X-0.350000X-0.062500X0*%
%ADD15R,1.100000X0.300000*%
%ADD16R,1.100000X0.500000*%
%ADD17RoundRect,0.140000X0.140000X0.170000X-0.140000X0.170000X-0.140000X-0.170000X0.140000X-0.170000X0*%
%ADD18RoundRect,0.237500X0.237500X1.012500X-0.237500X1.012500X-0.237500X-1.012500X0.237500X-1.012500X0*%
%ADD19RoundRect,0.150000X0.512500X0.150000X-0.512500X0.150000X-0.512500X-0.150000X0.512500X-0.150000X0*%
%ADD20RoundRect,0.135000X0.135000X0.185000X-0.135000X0.185000X-0.135000X-0.185000X0.135000X-0.185000X0*%
%ADD21RoundRect,0.140000X-0.140000X-0.170000X0.140000X-0.170000X0.140000X0.170000X-0.140000X0.170000X0*%
%ADD22RoundRect,0.140000X-0.170000X0.140000X-0.170000X-0.140000X0.170000X-0.140000X0.170000X0.140000X0*%
%ADD23RoundRect,0.140000X0.170000X-0.140000X0.170000X0.140000X-0.170000X0.140000X-0.170000X-0.140000X0*%
%ADD24R,0.280000X0.800000*%
%ADD25R,0.800000X0.280000*%
%ADD26FreePoly0,0.000000*%
%ADD27RoundRect,0.250000X-0.250000X-0.475000X0.250000X-0.475000X0.250000X0.475000X-0.250000X0.475000X0*%
%ADD28RoundRect,0.135000X-0.185000X0.135000X-0.185000X-0.135000X0.185000X-0.135000X0.185000X0.135000X0*%
%ADD29RoundRect,0.250000X0.250000X0.475000X-0.250000X0.475000X-0.250000X-0.475000X0.250000X-0.475000X0*%
%ADD30RoundRect,0.112500X-0.187500X-0.112500X0.187500X-0.112500X0.187500X0.112500X-0.187500X0.112500X0*%
%ADD31RoundRect,0.250000X0.325000X0.650000X-0.325000X0.650000X-0.325000X-0.650000X0.325000X-0.650000X0*%
G04 APERTURE END LIST*
D10*
G04 #@! TO.C,U2*
X23950000Y-16900000D03*
D11*
X23350000Y-16300000D03*
D12*
X23950000Y-16300000D03*
D11*
X24550000Y-16300000D03*
D10*
X23950000Y-15700000D03*
D13*
X24700000Y-17762500D03*
X24200000Y-17762500D03*
X23700000Y-17762500D03*
X23200000Y-17762500D03*
D14*
X22487500Y-17050000D03*
X22487500Y-16550000D03*
X22487500Y-16050000D03*
X22487500Y-15550000D03*
D13*
X23200000Y-14837500D03*
X23700000Y-14837500D03*
X24200000Y-14837500D03*
X24700000Y-14837500D03*
D14*
X25412500Y-15550000D03*
X25412500Y-16050000D03*
X25412500Y-16550000D03*
X25412500Y-17050000D03*
G04 #@! TD*
D15*
G04 #@! TO.C,J1*
X30997500Y-22600000D03*
X30997500Y-23600000D03*
X30997500Y-24100000D03*
X30987500Y-25100000D03*
D16*
X30997500Y-26250000D03*
X30997500Y-27050000D03*
D15*
X30997500Y-25600000D03*
X30997500Y-24600000D03*
X30997500Y-23100000D03*
X30987500Y-22100000D03*
D16*
X30997500Y-21450000D03*
X30997500Y-20650000D03*
G04 #@! TD*
D17*
G04 #@! TO.C,C5*
X21780000Y-13450000D03*
X20820000Y-13450000D03*
G04 #@! TD*
D18*
G04 #@! TO.C,L1*
X20975000Y-31500000D03*
X19325000Y-31500000D03*
G04 #@! TD*
D19*
G04 #@! TO.C,U4*
X26287500Y-30550000D03*
X26287500Y-31500000D03*
X26287500Y-32450000D03*
X24012500Y-32450000D03*
X24012500Y-31500000D03*
X24012500Y-30550000D03*
G04 #@! TD*
D20*
G04 #@! TO.C,R4*
X18110000Y-21200000D03*
X17090000Y-21200000D03*
G04 #@! TD*
G04 #@! TO.C,R2*
X24460000Y-19150000D03*
X23440000Y-19150000D03*
G04 #@! TD*
D17*
G04 #@! TO.C,C7*
X23730000Y-13450000D03*
X22770000Y-13450000D03*
G04 #@! TD*
D21*
G04 #@! TO.C,C11*
X15170000Y-28930000D03*
X16130000Y-28930000D03*
G04 #@! TD*
D22*
G04 #@! TO.C,C9*
X15450000Y-21170000D03*
X15450000Y-22130000D03*
G04 #@! TD*
D23*
G04 #@! TO.C,C2*
X22500000Y-31505000D03*
X22500000Y-30545000D03*
G04 #@! TD*
D24*
G04 #@! TO.C,U3*
X16350000Y-23100000D03*
X16850000Y-23100000D03*
X17350000Y-23100000D03*
X17850000Y-23100000D03*
D25*
X18600000Y-23850000D03*
X18600000Y-24350000D03*
X18600000Y-24850000D03*
X18600000Y-25350000D03*
D24*
X17850000Y-26100000D03*
X17350000Y-26100000D03*
X16850000Y-26100000D03*
X16350000Y-26100000D03*
D25*
X15600000Y-25350000D03*
X15600000Y-24850000D03*
X15600000Y-24350000D03*
X15600000Y-23850000D03*
D26*
X17100000Y-24600000D03*
G04 #@! TD*
D27*
G04 #@! TO.C,C3*
X19800000Y-34450000D03*
X21700000Y-34450000D03*
G04 #@! TD*
D28*
G04 #@! TO.C,R3*
X19750000Y-23890000D03*
X19750000Y-24910000D03*
G04 #@! TD*
D17*
G04 #@! TO.C,C12*
X22480000Y-22050000D03*
X21520000Y-22050000D03*
G04 #@! TD*
D20*
G04 #@! TO.C,R1*
X22510000Y-21000000D03*
X21490000Y-21000000D03*
G04 #@! TD*
D29*
G04 #@! TO.C,C4*
X18100000Y-34450000D03*
X16200000Y-34450000D03*
G04 #@! TD*
D22*
G04 #@! TO.C,C10*
X19750000Y-25870000D03*
X19750000Y-26830000D03*
G04 #@! TD*
D30*
G04 #@! TO.C,D1*
X15250000Y-32400000D03*
X17350000Y-32400000D03*
G04 #@! TD*
D31*
G04 #@! TO.C,C6*
X19375000Y-13500000D03*
X16425000Y-13500000D03*
G04 #@! TD*
D29*
G04 #@! TO.C,C1*
X26100000Y-34350000D03*
X24200000Y-34350000D03*
G04 #@! TD*
D21*
G04 #@! TO.C,C8*
X24720000Y-13450000D03*
X25680000Y-13450000D03*
G04 #@! TD*
M02*
