G04 #@! TF.GenerationSoftware,KiCad,Pcbnew,10.0.6*
G04 #@! TF.CreationDate,2026-10-03T23:19:28+01:00*
G04 #@! TF.ProjectId,lock-picking,6c6f636b-2d70-4696-936b-696e672e6b69,v2*
G04 #@! TF.SameCoordinates,Original*
G04 #@! TF.FileFunction,Copper,L2,Bot*
G04 #@! TF.FilePolarity,Positive*
%FSLAX46Y46*%
G04 Gerber Fmt 4.6, Leading zero omitted, Abs format (unit mm)*
G04 Created by KiCad (PCBNEW 10.0.6) date 2026-10-03 23:19:28*
%MOMM*%
%LPD*%
G01*
G04 APERTURE LIST*
G04 Aperture macros list*
%AMRoundRect*
0 Rectangle with rounded corners*
0 $1 Rounding radius*
0 $2 $3 $4 $5 $6 $7 $8 $9 X,Y pos of 4 corners*
0 Add a 4 corners polygon primitive as box body*
4,1,4,$2,$3,$4,$5,$6,$7,$8,$9,$2,$3,0*
0 Add four circle primitives for the rounded corners*
1,1,$1+$1,$2,$3*
1,1,$1+$1,$4,$5*
1,1,$1+$1,$6,$7*
1,1,$1+$1,$8,$9*
0 Add four rect primitives between the rounded corners*
20,1,$1+$1,$2,$3,$4,$5,0*
20,1,$1+$1,$4,$5,$6,$7,0*
20,1,$1+$1,$6,$7,$8,$9,0*
20,1,$1+$1,$8,$9,$2,$3,0*%
%AMFreePoly0*
4,1,14,0.885366,0.885366,0.900011,0.850011,0.900011,-0.850011,0.885366,-0.885366,0.850011,-0.900011,-0.850011,-0.900011,-0.885366,-0.885366,-0.900011,-0.850011,-0.900011,0.499999,-0.885366,0.535354,-0.535354,0.885366,-0.499999,0.900011,0.850011,0.900011,0.885366,0.885366,0.885366,0.885366,$1*%
G04 Aperture macros list end*
G04 #@! TA.AperFunction,ComponentPad*
%ADD10R,1.500000X1.400000*%
G04 #@! TD*
G04 #@! TA.AperFunction,ComponentPad*
%ADD11C,1.400000*%
G04 #@! TD*
G04 #@! TA.AperFunction,ComponentPad*
%ADD12C,4.200000*%
G04 #@! TD*
G04 #@! TA.AperFunction,ComponentPad*
%ADD13C,1.508000*%
G04 #@! TD*
G04 #@! TA.AperFunction,ComponentPad*
%ADD14R,1.508000X1.508000*%
G04 #@! TD*
G04 #@! TA.AperFunction,SMDPad,CuDef*
%ADD15C,1.000000*%
G04 #@! TD*
G04 #@! TA.AperFunction,SMDPad,CuDef*
%ADD16RoundRect,0.062500X0.062500X-0.350000X0.062500X0.350000X-0.062500X0.350000X-0.062500X-0.350000X0*%
G04 #@! TD*
G04 #@! TA.AperFunction,SMDPad,CuDef*
%ADD17RoundRect,0.062500X0.350000X-0.062500X0.350000X0.062500X-0.350000X0.062500X-0.350000X-0.062500X0*%
G04 #@! TD*
G04 #@! TA.AperFunction,ComponentPad*
%ADD18C,0.500000*%
G04 #@! TD*
G04 #@! TA.AperFunction,HeatsinkPad*
%ADD19R,1.680000X1.680000*%
G04 #@! TD*
G04 #@! TA.AperFunction,ComponentPad*
%ADD20O,2.000000X1.000000*%
G04 #@! TD*
G04 #@! TA.AperFunction,ComponentPad*
%ADD21O,1.800000X1.000000*%
G04 #@! TD*
G04 #@! TA.AperFunction,SMDPad,CuDef*
%ADD22R,1.100000X0.300000*%
G04 #@! TD*
G04 #@! TA.AperFunction,SMDPad,CuDef*
%ADD23R,1.100000X0.500000*%
G04 #@! TD*
G04 #@! TA.AperFunction,SMDPad,CuDef*
%ADD24RoundRect,0.140000X0.140000X0.170000X-0.140000X0.170000X-0.140000X-0.170000X0.140000X-0.170000X0*%
G04 #@! TD*
G04 #@! TA.AperFunction,SMDPad,CuDef*
%ADD25RoundRect,0.237500X0.237500X1.012500X-0.237500X1.012500X-0.237500X-1.012500X0.237500X-1.012500X0*%
G04 #@! TD*
G04 #@! TA.AperFunction,SMDPad,CuDef*
%ADD26RoundRect,0.150000X0.512500X0.150000X-0.512500X0.150000X-0.512500X-0.150000X0.512500X-0.150000X0*%
G04 #@! TD*
G04 #@! TA.AperFunction,SMDPad,CuDef*
%ADD27RoundRect,0.135000X0.135000X0.185000X-0.135000X0.185000X-0.135000X-0.185000X0.135000X-0.185000X0*%
G04 #@! TD*
G04 #@! TA.AperFunction,SMDPad,CuDef*
%ADD28RoundRect,0.140000X-0.140000X-0.170000X0.140000X-0.170000X0.140000X0.170000X-0.140000X0.170000X0*%
G04 #@! TD*
G04 #@! TA.AperFunction,SMDPad,CuDef*
%ADD29RoundRect,0.140000X-0.170000X0.140000X-0.170000X-0.140000X0.170000X-0.140000X0.170000X0.140000X0*%
G04 #@! TD*
G04 #@! TA.AperFunction,SMDPad,CuDef*
%ADD30RoundRect,0.140000X0.170000X-0.140000X0.170000X0.140000X-0.170000X0.140000X-0.170000X-0.140000X0*%
G04 #@! TD*
G04 #@! TA.AperFunction,SMDPad,CuDef*
%ADD31R,0.280000X0.800000*%
G04 #@! TD*
G04 #@! TA.AperFunction,SMDPad,CuDef*
%ADD32R,0.800000X0.280000*%
G04 #@! TD*
G04 #@! TA.AperFunction,SMDPad,CuDef*
%ADD33FreePoly0,0.000000*%
G04 #@! TD*
G04 #@! TA.AperFunction,SMDPad,CuDef*
%ADD34RoundRect,0.250000X-0.250000X-0.475000X0.250000X-0.475000X0.250000X0.475000X-0.250000X0.475000X0*%
G04 #@! TD*
G04 #@! TA.AperFunction,SMDPad,CuDef*
%ADD35RoundRect,0.135000X-0.185000X0.135000X-0.185000X-0.135000X0.185000X-0.135000X0.185000X0.135000X0*%
G04 #@! TD*
G04 #@! TA.AperFunction,SMDPad,CuDef*
%ADD36RoundRect,0.250000X0.250000X0.475000X-0.250000X0.475000X-0.250000X-0.475000X0.250000X-0.475000X0*%
G04 #@! TD*
G04 #@! TA.AperFunction,SMDPad,CuDef*
%ADD37RoundRect,0.112500X-0.187500X-0.112500X0.187500X-0.112500X0.187500X0.112500X-0.187500X0.112500X0*%
G04 #@! TD*
G04 #@! TA.AperFunction,SMDPad,CuDef*
%ADD38RoundRect,0.250000X0.325000X0.650000X-0.325000X0.650000X-0.325000X-0.650000X0.325000X-0.650000X0*%
G04 #@! TD*
G04 #@! TA.AperFunction,ViaPad*
%ADD39C,0.600000*%
G04 #@! TD*
G04 #@! TA.AperFunction,ViaPad*
%ADD40C,0.500000*%
G04 #@! TD*
G04 #@! TA.AperFunction,Conductor*
%ADD41C,0.600000*%
G04 #@! TD*
G04 #@! TA.AperFunction,Conductor*
%ADD42C,0.250000*%
G04 #@! TD*
G04 #@! TA.AperFunction,Conductor*
%ADD43C,0.500000*%
G04 #@! TD*
G04 #@! TA.AperFunction,Conductor*
%ADD44C,0.400000*%
G04 #@! TD*
G04 #@! TA.AperFunction,Conductor*
%ADD45C,0.350000*%
G04 #@! TD*
G04 #@! TA.AperFunction,Conductor*
%ADD46C,0.300000*%
G04 #@! TD*
G04 #@! TA.AperFunction,Conductor*
%ADD47C,0.200000*%
G04 #@! TD*
G04 #@! TA.AperFunction,Conductor*
%ADD48C,0.800000*%
G04 #@! TD*
G04 APERTURE END LIST*
D10*
G04 #@! TO.P,J2,1,1_1*
G04 #@! TO.N,/MOT_OUT1*
X20250000Y-17290000D03*
D11*
G04 #@! TO.P,J2,2,2_2*
G04 #@! TO.N,/MOT_OUT2*
X18250000Y-17290000D03*
G04 #@! TD*
D12*
G04 #@! TO.P,H1,1*
G04 #@! TO.N,GND*
X33299999Y-15350000D03*
G04 #@! TD*
G04 #@! TO.P,H2,1*
G04 #@! TO.N,GND*
X33299999Y-32350000D03*
G04 #@! TD*
D13*
G04 #@! TO.P,U1,1,GPIO1_1*
G04 #@! TO.N,/DRV_IPROPI*
X28720000Y-28930000D03*
G04 #@! TO.P,U1,2,GPIO2_2*
G04 #@! TO.N,/DRV_nFAULT*
X28720000Y-26390000D03*
G04 #@! TO.P,U1,3,GPIO3_3*
G04 #@! TO.N,/I2C_SDA*
X28720000Y-23850000D03*
G04 #@! TO.P,U1,3V3,3V3_3V3*
G04 #@! TO.N,+3V3*
X13480000Y-28930000D03*
G04 #@! TO.P,U1,4,GPIO4_4*
G04 #@! TO.N,/I2C_SCL*
X28720000Y-21310000D03*
G04 #@! TO.P,U1,5,GPIO5_5*
G04 #@! TO.N,/DRV_nSLEEP*
X28720000Y-18770000D03*
D14*
G04 #@! TO.P,U1,5V,5V_5V*
G04 #@! TO.N,VBUS*
X13480000Y-34010000D03*
D13*
G04 #@! TO.P,U1,6,GPIO6_6*
G04 #@! TO.N,/DRV_IN2_PH*
X28720000Y-16230000D03*
G04 #@! TO.P,U1,7,GPIO7_7*
G04 #@! TO.N,/DRV_IN1_EN*
X28720000Y-13690000D03*
G04 #@! TO.P,U1,8,GPIO8_8*
G04 #@! TO.N,unconnected-(U1-GPIO8-Pad8)*
X13480000Y-13690000D03*
G04 #@! TO.P,U1,9,GPIO9_9*
G04 #@! TO.N,/MAG_SDA*
X13480000Y-16230000D03*
G04 #@! TO.P,U1,10,GPIO10_10*
G04 #@! TO.N,/MAG_SCL*
X13480000Y-18770000D03*
G04 #@! TO.P,U1,11,GPIO11_11*
G04 #@! TO.N,/MAG_INT*
X13480000Y-21310000D03*
G04 #@! TO.P,U1,12,GPIO12_12*
G04 #@! TO.N,/EXP_IO12*
X13480000Y-23850000D03*
G04 #@! TO.P,U1,13,GPIO13_13*
G04 #@! TO.N,/EXP_IO13*
X13480000Y-26350000D03*
G04 #@! TO.P,U1,GND,GND_GND*
G04 #@! TO.N,GND*
X13480000Y-31470000D03*
G04 #@! TO.P,U1,RX,RX_RX*
G04 #@! TO.N,/EXP_RX*
X28720000Y-31470000D03*
G04 #@! TO.P,U1,TX,TX_TX*
G04 #@! TO.N,/EXP_TX*
X28720000Y-34010000D03*
G04 #@! TD*
D15*
G04 #@! TO.P,TP10,1,1_1*
G04 #@! TO.N,+5V*
X20200000Y-28950000D03*
G04 #@! TD*
D16*
G04 #@! TO.P,U2,1*
G04 #@! TO.N,/DRV_nSLEEP*
X24700000Y-17762500D03*
G04 #@! TO.P,U2,2*
G04 #@! TO.N,/DRV_nFAULT*
X24200000Y-17762500D03*
G04 #@! TO.P,U2,3*
G04 #@! TO.N,+3V3*
X23700000Y-17762500D03*
G04 #@! TO.P,U2,4*
G04 #@! TO.N,/DRV_IPROPI*
X23200000Y-17762500D03*
D17*
G04 #@! TO.P,U2,5*
G04 #@! TO.N,GND*
X22487500Y-17050000D03*
G04 #@! TO.P,U2,6*
G04 #@! TO.N,/MOT_OUT1*
X22487500Y-16550000D03*
G04 #@! TO.P,U2,7*
G04 #@! TO.N,GND*
X22487500Y-16050000D03*
G04 #@! TO.P,U2,8*
G04 #@! TO.N,/MOT_OUT2*
X22487500Y-15550000D03*
D16*
G04 #@! TO.P,U2,9*
G04 #@! TO.N,+12V*
X23200000Y-14837500D03*
G04 #@! TO.P,U2,10*
G04 #@! TO.N,/DRV_VCP*
X23700000Y-14837500D03*
G04 #@! TO.P,U2,11*
G04 #@! TO.N,/DRV_CPH*
X24200000Y-14837500D03*
G04 #@! TO.P,U2,12*
G04 #@! TO.N,/DRV_CPL*
X24700000Y-14837500D03*
D17*
G04 #@! TO.P,U2,13*
G04 #@! TO.N,GND*
X25412500Y-15550000D03*
G04 #@! TO.P,U2,14*
X25412500Y-16050000D03*
G04 #@! TO.P,U2,15*
G04 #@! TO.N,/DRV_IN1_EN*
X25412500Y-16550000D03*
G04 #@! TO.P,U2,16*
G04 #@! TO.N,/DRV_IN2_PH*
X25412500Y-17050000D03*
D18*
G04 #@! TO.P,U2,17*
G04 #@! TO.N,GND*
X23360000Y-16890000D03*
X24540000Y-16890000D03*
D19*
X23950000Y-16300000D03*
D18*
X23360000Y-15710000D03*
X24540000Y-15710000D03*
G04 #@! TD*
D20*
G04 #@! TO.P,J1,17*
G04 #@! TO.N,GND*
X31547500Y-19530000D03*
D21*
G04 #@! TO.P,J1,18*
X35747500Y-19530000D03*
G04 #@! TO.P,J1,19*
X35747500Y-28170000D03*
D20*
G04 #@! TO.P,J1,20*
X31547500Y-28170000D03*
D22*
G04 #@! TO.P,J1,A5*
G04 #@! TO.N,unconnected-(J1-CC1-PadA5)*
X30997500Y-22600000D03*
G04 #@! TO.P,J1,A6*
G04 #@! TO.N,/I2C_SDA*
X30997500Y-23600000D03*
G04 #@! TO.P,J1,A7*
G04 #@! TO.N,/I2C_SCL*
X30997500Y-24100000D03*
G04 #@! TO.P,J1,A8*
G04 #@! TO.N,unconnected-(J1-SBU1-PadA8)*
X30987500Y-25100000D03*
D23*
G04 #@! TO.P,J1,A9B4*
G04 #@! TO.N,+12V*
X30997500Y-26250000D03*
G04 #@! TO.P,J1,A12B1*
G04 #@! TO.N,GND*
X30997500Y-27050000D03*
D22*
G04 #@! TO.P,J1,B5*
G04 #@! TO.N,unconnected-(J1-CC2-PadB5)*
X30997500Y-25600000D03*
G04 #@! TO.P,J1,B6*
G04 #@! TO.N,/I2C_SDA*
X30997500Y-24600000D03*
G04 #@! TO.P,J1,B7*
G04 #@! TO.N,/I2C_SCL*
X30997500Y-23100000D03*
G04 #@! TO.P,J1,B8*
G04 #@! TO.N,unconnected-(J1-SBU2-PadB8)*
X30987500Y-22100000D03*
D23*
G04 #@! TO.P,J1,B9A4*
G04 #@! TO.N,+12V*
X30997500Y-21450000D03*
G04 #@! TO.P,J1,B12A1*
G04 #@! TO.N,GND*
X30997500Y-20650000D03*
G04 #@! TD*
D24*
G04 #@! TO.P,C5,1*
G04 #@! TO.N,+12V*
X21780000Y-13450000D03*
G04 #@! TO.P,C5,2*
G04 #@! TO.N,GND*
X20820000Y-13450000D03*
G04 #@! TD*
D25*
G04 #@! TO.P,L1,1,1_1*
G04 #@! TO.N,Net-(U4-SW)*
X20975000Y-31500000D03*
G04 #@! TO.P,L1,2,2_2*
G04 #@! TO.N,+5V*
X19325000Y-31500000D03*
G04 #@! TD*
D26*
G04 #@! TO.P,U4,1,FB_1*
G04 #@! TO.N,+5V*
X26287500Y-30550000D03*
G04 #@! TO.P,U4,2,EN_2*
G04 #@! TO.N,+12V*
X26287500Y-31500000D03*
G04 #@! TO.P,U4,3,IN_3*
X26287500Y-32450000D03*
G04 #@! TO.P,U4,4,GND_4*
G04 #@! TO.N,GND*
X24012500Y-32450000D03*
G04 #@! TO.P,U4,5,SW_5*
G04 #@! TO.N,Net-(U4-SW)*
X24012500Y-31500000D03*
G04 #@! TO.P,U4,6,BST_6*
G04 #@! TO.N,Net-(U4-BST)*
X24012500Y-30550000D03*
G04 #@! TD*
D27*
G04 #@! TO.P,R4,1*
G04 #@! TO.N,/MAG_SCL*
X18110000Y-21200000D03*
G04 #@! TO.P,R4,2*
G04 #@! TO.N,+3V3*
X17090000Y-21200000D03*
G04 #@! TD*
G04 #@! TO.P,R2,1*
G04 #@! TO.N,/DRV_nFAULT*
X24460000Y-19150000D03*
G04 #@! TO.P,R2,2*
G04 #@! TO.N,+3V3*
X23440000Y-19150000D03*
G04 #@! TD*
D24*
G04 #@! TO.P,C7,1*
G04 #@! TO.N,/DRV_VCP*
X23730000Y-13450000D03*
G04 #@! TO.P,C7,2*
G04 #@! TO.N,+12V*
X22770000Y-13450000D03*
G04 #@! TD*
D28*
G04 #@! TO.P,C11,1*
G04 #@! TO.N,+3V3*
X15170000Y-28930000D03*
G04 #@! TO.P,C11,2*
G04 #@! TO.N,GND*
X16130000Y-28930000D03*
G04 #@! TD*
D29*
G04 #@! TO.P,C9,1*
G04 #@! TO.N,+3V3*
X15450000Y-21170000D03*
G04 #@! TO.P,C9,2*
G04 #@! TO.N,GND*
X15450000Y-22130000D03*
G04 #@! TD*
D30*
G04 #@! TO.P,C2,1*
G04 #@! TO.N,Net-(U4-SW)*
X22500000Y-31505000D03*
G04 #@! TO.P,C2,2*
G04 #@! TO.N,Net-(U4-BST)*
X22500000Y-30545000D03*
G04 #@! TD*
D31*
G04 #@! TO.P,U3,1,INT_1*
G04 #@! TO.N,/MAG_INT*
X16350000Y-23100000D03*
G04 #@! TO.P,U3,2,SENB/CS_2*
G04 #@! TO.N,+3V3*
X16850000Y-23100000D03*
G04 #@! TO.P,U3,3,SCL/SCLK_3*
G04 #@! TO.N,/MAG_SCL*
X17350000Y-23100000D03*
G04 #@! TO.P,U3,4,N/C_4*
G04 #@! TO.N,GND*
X17850000Y-23100000D03*
D32*
G04 #@! TO.P,U3,5,SDA/MOSI_5*
G04 #@! TO.N,/MAG_SDA*
X18600000Y-23850000D03*
G04 #@! TO.P,U3,6,MISO_6*
G04 #@! TO.N,unconnected-(U3-MISO-Pad6)*
X18600000Y-24350000D03*
G04 #@! TO.P,U3,7,INT/TRIG_7*
G04 #@! TO.N,unconnected-(U3-INT{slash}TRIG-Pad7)*
X18600000Y-24850000D03*
G04 #@! TO.P,U3,8,VDD_IO_8*
G04 #@! TO.N,+3V3*
X18600000Y-25350000D03*
D31*
G04 #@! TO.P,U3,9,N/C_9*
G04 #@! TO.N,GND*
X17850000Y-26100000D03*
G04 #@! TO.P,U3,10,N/C_10*
X17350000Y-26100000D03*
G04 #@! TO.P,U3,11,A1_11*
X16850000Y-26100000D03*
G04 #@! TO.P,U3,12,A0_12*
X16350000Y-26100000D03*
D32*
G04 #@! TO.P,U3,13,VSS_13*
X15600000Y-25350000D03*
G04 #@! TO.P,U3,14,N/C_14*
X15600000Y-24850000D03*
G04 #@! TO.P,U3,15,VDD_15*
G04 #@! TO.N,+3V3*
X15600000Y-24350000D03*
G04 #@! TO.P,U3,16,N/C_16*
G04 #@! TO.N,GND*
X15600000Y-23850000D03*
D33*
G04 #@! TO.P,U3,17,EP_17*
X17100000Y-24600000D03*
G04 #@! TD*
D34*
G04 #@! TO.P,C3,1*
G04 #@! TO.N,+5V*
X19800000Y-34450000D03*
G04 #@! TO.P,C3,2*
G04 #@! TO.N,GND*
X21700000Y-34450000D03*
G04 #@! TD*
D35*
G04 #@! TO.P,R3,1*
G04 #@! TO.N,/MAG_SDA*
X19750000Y-23890000D03*
G04 #@! TO.P,R3,2*
G04 #@! TO.N,+3V3*
X19750000Y-24910000D03*
G04 #@! TD*
D24*
G04 #@! TO.P,C12,1*
G04 #@! TO.N,/DRV_IPROPI*
X22480000Y-22050000D03*
G04 #@! TO.P,C12,2*
G04 #@! TO.N,GND*
X21520000Y-22050000D03*
G04 #@! TD*
D27*
G04 #@! TO.P,R1,1*
G04 #@! TO.N,/DRV_IPROPI*
X22510000Y-21000000D03*
G04 #@! TO.P,R1,2*
G04 #@! TO.N,GND*
X21490000Y-21000000D03*
G04 #@! TD*
D36*
G04 #@! TO.P,C4,1*
G04 #@! TO.N,+5V*
X18100000Y-34450000D03*
G04 #@! TO.P,C4,2*
G04 #@! TO.N,GND*
X16200000Y-34450000D03*
G04 #@! TD*
D15*
G04 #@! TO.P,TP11,1,1_1*
G04 #@! TO.N,GND*
X17660000Y-28950000D03*
G04 #@! TD*
D29*
G04 #@! TO.P,C10,1*
G04 #@! TO.N,+3V3*
X19750000Y-25870000D03*
G04 #@! TO.P,C10,2*
G04 #@! TO.N,GND*
X19750000Y-26830000D03*
G04 #@! TD*
D37*
G04 #@! TO.P,D1,1,K_1*
G04 #@! TO.N,VBUS*
X15250000Y-32400000D03*
G04 #@! TO.P,D1,2,A_2*
G04 #@! TO.N,+5V*
X17350000Y-32400000D03*
G04 #@! TD*
D38*
G04 #@! TO.P,C6,1*
G04 #@! TO.N,+12V*
X19375000Y-13500000D03*
G04 #@! TO.P,C6,2*
G04 #@! TO.N,GND*
X16425000Y-13500000D03*
G04 #@! TD*
D36*
G04 #@! TO.P,C1,1*
G04 #@! TO.N,+12V*
X26100000Y-34350000D03*
G04 #@! TO.P,C1,2*
G04 #@! TO.N,GND*
X24200000Y-34350000D03*
G04 #@! TD*
D28*
G04 #@! TO.P,C8,1*
G04 #@! TO.N,/DRV_CPH*
X24720000Y-13450000D03*
G04 #@! TO.P,C8,2*
G04 #@! TO.N,/DRV_CPL*
X25680000Y-13450000D03*
G04 #@! TD*
D39*
G04 #@! TO.N,+12V*
X29950000Y-27660000D03*
X22420000Y-12620000D03*
X23060000Y-12620000D03*
X29900000Y-20300000D03*
X29900000Y-19700000D03*
X30000000Y-19100000D03*
X21780000Y-12620000D03*
G04 #@! TO.N,GND*
X22200000Y-28600000D03*
X21000000Y-33400000D03*
X31000000Y-29400000D03*
X30700000Y-18200000D03*
X16900000Y-28600000D03*
X28200000Y-30200000D03*
X16425000Y-14800000D03*
X14700000Y-14900000D03*
X36400000Y-28700000D03*
X21600000Y-24000000D03*
X15600000Y-33250000D03*
X27000000Y-29600000D03*
X20820000Y-14300000D03*
X23700000Y-33299999D03*
X26000000Y-28700000D03*
D40*
X16600000Y-27000000D03*
D39*
X25300000Y-27600000D03*
X15550000Y-14800000D03*
X15300000Y-12750000D03*
D40*
X18750000Y-26830000D03*
D39*
X26300000Y-19800000D03*
X21600000Y-26600000D03*
X21500000Y-22850000D03*
X21700000Y-18400000D03*
X36400000Y-19000000D03*
G04 #@! TO.N,+3V3*
X23640000Y-28800000D03*
D40*
X23500000Y-19900000D03*
X21900000Y-19900000D03*
G04 #@! TO.N,/MAG_INT*
X16300000Y-22100000D03*
G04 #@! TD*
G04 #@! TO.N,/MOT_OUT1*
D41*
X21600000Y-16550000D02*
X20250000Y-17290000D01*
D42*
X22488000Y-16550000D02*
X21600000Y-16550000D01*
G04 #@! TO.N,/MOT_OUT2*
D41*
X18250000Y-16149999D02*
X18250000Y-17290000D01*
X18850000Y-15550000D02*
X18250000Y-16149999D01*
D42*
X22488000Y-15550000D02*
X21600000Y-15550000D01*
D41*
X21600000Y-15550000D02*
X18850000Y-15550000D01*
G04 #@! TO.N,+12V*
D43*
X26287500Y-32450000D02*
X26100000Y-33700000D01*
X30600000Y-21450000D02*
X30050000Y-21450000D01*
X21780000Y-12620000D02*
X21780000Y-13450000D01*
D44*
X19600000Y-12620000D02*
X21780000Y-12620000D01*
D43*
X29950000Y-32739999D02*
X27400000Y-32739999D01*
D41*
X21780000Y-12620000D02*
X23060000Y-12620000D01*
D43*
X30050000Y-21450000D02*
X29900000Y-20300000D01*
X29900000Y-19700000D02*
X30000000Y-19100000D01*
D44*
X19375000Y-13500000D02*
X19600000Y-12620000D01*
D43*
X29950000Y-26250000D02*
X29950000Y-32739999D01*
X26450000Y-31500000D02*
X26450000Y-32450000D01*
X30600000Y-26250000D02*
X29950000Y-26250000D01*
D45*
X23200000Y-14350000D02*
X22770000Y-13760000D01*
D43*
X27400000Y-32739999D02*
X26600000Y-32450000D01*
X22770000Y-12620000D02*
X22770000Y-13450000D01*
X29900000Y-20300000D02*
X29900000Y-19700000D01*
D42*
X23200000Y-14838000D02*
X23200000Y-14350000D01*
G04 #@! TO.N,GND*
D46*
X21520000Y-22050000D02*
X21500000Y-22850000D01*
D47*
X25413000Y-15550000D02*
X24700000Y-15550000D01*
D42*
X18300000Y-26830000D02*
X17850000Y-26380000D01*
X15450000Y-23000000D02*
X15600000Y-23850000D01*
D47*
X22488000Y-17050000D02*
X23200000Y-17050000D01*
D44*
X15550000Y-14800000D02*
X16425000Y-14800000D01*
D46*
X21490000Y-21000000D02*
X21520000Y-22050000D01*
D47*
X15600000Y-23850000D02*
X16300000Y-23850000D01*
D41*
X21700000Y-34450000D02*
X24200000Y-34350000D01*
D44*
X20820000Y-13450000D02*
X20820000Y-14300000D01*
D43*
X16425000Y-13500000D02*
X16425000Y-14800000D01*
D47*
X16350000Y-26100000D02*
X16350000Y-25400000D01*
X15600000Y-25350000D02*
X16300000Y-25350000D01*
X16350000Y-26100000D02*
X16600000Y-27000000D01*
X17850000Y-23100000D02*
X17850000Y-23800000D01*
X15600000Y-24850000D02*
X16300000Y-24850000D01*
X16850000Y-26100000D02*
X16850000Y-25400000D01*
D43*
X24012500Y-32450000D02*
X24200000Y-33700000D01*
D47*
X25413000Y-16050000D02*
X24700000Y-16050000D01*
D44*
X15600000Y-33250000D02*
X16200000Y-34000000D01*
D42*
X19750000Y-26830000D02*
X18300000Y-26830000D01*
D44*
X31300000Y-20650000D02*
X31300000Y-19600000D01*
D47*
X17350000Y-26100000D02*
X17350000Y-25400000D01*
X17850000Y-26100000D02*
X17850000Y-25400000D01*
D44*
X31300000Y-27050000D02*
X31300000Y-28100000D01*
D42*
X15450000Y-22130000D02*
X15450000Y-23000000D01*
D44*
X16129999Y-28930000D02*
X16900000Y-28600000D01*
X23700000Y-33299999D02*
X24100000Y-33299999D01*
D47*
X22488000Y-16050000D02*
X23200000Y-16050000D01*
G04 #@! TO.N,VBUS*
D44*
X14200000Y-33450000D02*
X13480000Y-34010000D01*
X15250000Y-32400000D02*
X14200000Y-33450000D01*
G04 #@! TO.N,+3V3*
X13480000Y-28930000D02*
X15170000Y-28930000D01*
D46*
X15170000Y-27600000D02*
X20500000Y-27600000D01*
X15170000Y-27600000D02*
X14750000Y-27180000D01*
D47*
X16850000Y-23100000D02*
X16850000Y-21200000D01*
D46*
X15170000Y-28930000D02*
X15170000Y-27600000D01*
X14750000Y-27180000D02*
X14750000Y-21550000D01*
D42*
X15450000Y-21170000D02*
X17090000Y-21200000D01*
D46*
X23640000Y-27600000D02*
X23640000Y-28800000D01*
D42*
X23439999Y-19150000D02*
X23500000Y-19900000D01*
D46*
X20500000Y-20600000D02*
X21200000Y-19900000D01*
D47*
X23700000Y-17762000D02*
X23700000Y-18400000D01*
D46*
X14750000Y-21550000D02*
X15129999Y-21170000D01*
X19750000Y-25350000D02*
X20500000Y-25350000D01*
D42*
X15600000Y-24350000D02*
X14750000Y-24350000D01*
D46*
X20500000Y-27600000D02*
X23640000Y-27600000D01*
X21200000Y-19900000D02*
X21900000Y-19900000D01*
D42*
X18600000Y-25350000D02*
X19750000Y-25350000D01*
X19750000Y-24910000D02*
X19750000Y-25869999D01*
D46*
X20500000Y-27600000D02*
X20500000Y-20600000D01*
D47*
X23700000Y-18400000D02*
X23439999Y-18830000D01*
G04 #@! TO.N,/DRV_IPROPI*
X22850000Y-22050000D02*
X22480000Y-22050000D01*
X27000000Y-26150000D02*
X27300000Y-26450000D01*
X23600000Y-26150000D02*
X27000000Y-26150000D01*
X23200000Y-18350000D02*
X22850000Y-18700000D01*
X22850000Y-21000000D02*
X22509999Y-21000000D01*
X23200000Y-17762000D02*
X23200000Y-18350000D01*
X22850000Y-18700000D02*
X22850000Y-25400000D01*
X27300000Y-28300000D02*
X28720000Y-28930000D01*
X22850000Y-25400000D02*
X23600000Y-26150000D01*
X27300000Y-26450000D02*
X27300000Y-28300000D01*
G04 #@! TO.N,/DRV_nFAULT*
X24460000Y-19600000D02*
X24100000Y-19960000D01*
X27400000Y-25000000D02*
X28100000Y-25700000D01*
X24100000Y-23900000D02*
X25200000Y-25000000D01*
X28100000Y-25700000D02*
X28720000Y-26390000D01*
X24200000Y-17762000D02*
X24200000Y-18400000D01*
X24100000Y-19960000D02*
X24100000Y-23900000D01*
X24460000Y-19150000D02*
X24460000Y-19600000D01*
X24200000Y-18400000D02*
X24460000Y-18830000D01*
X25200000Y-25000000D02*
X27400000Y-25000000D01*
G04 #@! TO.N,/I2C_SDA*
X30600000Y-24600000D02*
X29900000Y-24600000D01*
X30600000Y-23600000D02*
X29300000Y-23600000D01*
X29900000Y-24600000D02*
X29300000Y-24200000D01*
G04 #@! TO.N,/I2C_SCL*
X31900000Y-24100000D02*
X31400000Y-24100000D01*
X29200000Y-22200000D02*
X28720000Y-21310000D01*
X30100000Y-23100000D02*
X29200000Y-22200000D01*
X31400000Y-23100000D02*
X31900000Y-23100000D01*
X31900000Y-23100000D02*
X31900000Y-24100000D01*
X30600000Y-23100000D02*
X30100000Y-23100000D01*
G04 #@! TO.N,/DRV_nSLEEP*
X24700000Y-17762000D02*
X24700000Y-18200000D01*
X24700000Y-18200000D02*
X24950000Y-18450000D01*
X24950000Y-18450000D02*
X27900000Y-18450000D01*
X27900000Y-18450000D02*
X28720000Y-18770000D01*
G04 #@! TO.N,/DRV_IN2_PH*
X25413000Y-17050000D02*
X26750000Y-17050000D01*
X27550000Y-16250000D02*
X28720000Y-16230000D01*
X26750000Y-17050000D02*
X27550000Y-16250000D01*
G04 #@! TO.N,/DRV_IN1_EN*
X27500000Y-13700000D02*
X28720000Y-13690000D01*
X25413000Y-16550000D02*
X26300000Y-16550000D01*
X26300000Y-16550000D02*
X26300000Y-14900000D01*
X26300000Y-14900000D02*
X27500000Y-13700000D01*
G04 #@! TO.N,/MAG_SDA*
X13480000Y-16230000D02*
X15400000Y-16230000D01*
X19300000Y-23850000D02*
X18600000Y-23850000D01*
X16300000Y-19300000D02*
X19300000Y-19300000D01*
X15400000Y-16230000D02*
X15400000Y-18400000D01*
X15400000Y-18400000D02*
X16300000Y-19300000D01*
X19300000Y-23850000D02*
X19750000Y-23890000D01*
X19300000Y-19300000D02*
X19300000Y-23850000D01*
G04 #@! TO.N,/MAG_SCL*
X18110000Y-20100000D02*
X18110000Y-21200000D01*
X18110000Y-21950000D02*
X17350000Y-22500000D01*
X17350000Y-22500000D02*
X17350000Y-23100000D01*
X18110000Y-21200000D02*
X18110000Y-21950000D01*
X13480000Y-18770000D02*
X14810000Y-20100000D01*
X14810000Y-20100000D02*
X18110000Y-20100000D01*
G04 #@! TO.N,/MAG_INT*
X16350000Y-23100000D02*
X16350000Y-22400000D01*
X16350000Y-22400000D02*
X16300000Y-22100000D01*
G04 #@! TO.N,+5V*
X26287500Y-30550000D02*
X26287500Y-29600000D01*
X19325000Y-29600000D02*
X19325000Y-30250000D01*
D41*
X18100000Y-34450000D02*
X19750000Y-34450000D01*
D44*
X17350000Y-32400000D02*
X19000000Y-32400000D01*
D46*
X20200000Y-28950000D02*
X19325000Y-29600000D01*
D41*
X19325000Y-32500000D02*
X19750000Y-33800000D01*
D47*
X26287500Y-29600000D02*
X19325000Y-29600000D01*
G04 #@! TO.N,/DRV_VCP*
D42*
X23700000Y-14838000D02*
X23700000Y-14200000D01*
X23700000Y-14200000D02*
X23730000Y-13760000D01*
G04 #@! TO.N,/DRV_CPH*
X24200000Y-14000000D02*
X24720000Y-13760000D01*
X24200000Y-14838000D02*
X24200000Y-14000000D01*
G04 #@! TO.N,/DRV_CPL*
X24700000Y-14838000D02*
X24700000Y-14350000D01*
X24700000Y-14350000D02*
X25680000Y-13760000D01*
G04 #@! TO.N,Net-(U4-SW)*
D41*
X24012500Y-31500000D02*
X22500000Y-31505000D01*
D48*
X22500000Y-31505000D02*
X20975000Y-31500000D01*
G04 #@! TO.N,Net-(U4-BST)*
D42*
X24012500Y-30550000D02*
X22500000Y-30545000D01*
G04 #@! TD*
G04 #@! TA.AperFunction,Conductor*
G04 #@! TO.N,GND*
G36*
X23198691Y-28019407D02*
G01*
X23234655Y-28068907D01*
X23239500Y-28099500D01*
X23239500Y-28380968D01*
X23220593Y-28439159D01*
X23210506Y-28450969D01*
X23199492Y-28461983D01*
X23199487Y-28461989D01*
X23127017Y-28587510D01*
X23114397Y-28634609D01*
X23089500Y-28727525D01*
X23089500Y-28872475D01*
X23105496Y-28932172D01*
X23127017Y-29012489D01*
X23178120Y-29101000D01*
X23190842Y-29160848D01*
X23165956Y-29216744D01*
X23112968Y-29247336D01*
X23092384Y-29249500D01*
X21026260Y-29249500D01*
X20968069Y-29230593D01*
X20932105Y-29181093D01*
X20929162Y-29131187D01*
X20950500Y-29023918D01*
X20950500Y-28876082D01*
X20921658Y-28731087D01*
X20865084Y-28594505D01*
X20782951Y-28471584D01*
X20678416Y-28367049D01*
X20555495Y-28284916D01*
X20555493Y-28284915D01*
X20418914Y-28228342D01*
X20273918Y-28199500D01*
X20126082Y-28199500D01*
X20126081Y-28199500D01*
X19981085Y-28228342D01*
X19844506Y-28284915D01*
X19721585Y-28367048D01*
X19617048Y-28471585D01*
X19534915Y-28594506D01*
X19478342Y-28731085D01*
X19449500Y-28876081D01*
X19449500Y-28958815D01*
X19430593Y-29017006D01*
X19409536Y-29038287D01*
X19043844Y-29309944D01*
X18978354Y-29392593D01*
X18978353Y-29392595D01*
X18936486Y-29489375D01*
X18936484Y-29489382D01*
X18921093Y-29593703D01*
X18933226Y-29698461D01*
X18967543Y-29785099D01*
X18974500Y-29821556D01*
X18974500Y-29940070D01*
X18955593Y-29998261D01*
X18910098Y-30032828D01*
X18851218Y-30054789D01*
X18738888Y-30138880D01*
X18738880Y-30138888D01*
X18654786Y-30251223D01*
X18605750Y-30382695D01*
X18605748Y-30382706D01*
X18599500Y-30440829D01*
X18599500Y-31850500D01*
X18580593Y-31908691D01*
X18531093Y-31944655D01*
X18500500Y-31949500D01*
X17695523Y-31949500D01*
X17652045Y-31939442D01*
X17642509Y-31934780D01*
X17642510Y-31934780D01*
X17628397Y-31932724D01*
X17571949Y-31924500D01*
X17571945Y-31924500D01*
X17128056Y-31924500D01*
X17128048Y-31924501D01*
X17057495Y-31934778D01*
X17057485Y-31934781D01*
X16948656Y-31987985D01*
X16862987Y-32073654D01*
X16852312Y-32095491D01*
X16809780Y-32182491D01*
X16799501Y-32253048D01*
X16799500Y-32253054D01*
X16799500Y-32546943D01*
X16799501Y-32546951D01*
X16809778Y-32617504D01*
X16809781Y-32617514D01*
X16862985Y-32726343D01*
X16862987Y-32726345D01*
X16862988Y-32726347D01*
X16948653Y-32812012D01*
X17057491Y-32865220D01*
X17128051Y-32875500D01*
X17571948Y-32875499D01*
X17619542Y-32868565D01*
X17642504Y-32865221D01*
X17642504Y-32865220D01*
X17642509Y-32865220D01*
X17650904Y-32861116D01*
X17652044Y-32860559D01*
X17695524Y-32850500D01*
X18691752Y-32850500D01*
X18749943Y-32869407D01*
X18751081Y-32870247D01*
X18796831Y-32904495D01*
X18851222Y-32945212D01*
X18852264Y-32945600D01*
X18852994Y-32946180D01*
X18857438Y-32948607D01*
X18857018Y-32949375D01*
X18900180Y-32983644D01*
X18911774Y-33007598D01*
X19119875Y-33644145D01*
X19119986Y-33705330D01*
X19109176Y-33726226D01*
X19109596Y-33726456D01*
X19106203Y-33732668D01*
X19068001Y-33835096D01*
X19029951Y-33883011D01*
X18975243Y-33899500D01*
X18924758Y-33899500D01*
X18866567Y-33880593D01*
X18832000Y-33835097D01*
X18793796Y-33732669D01*
X18707549Y-33617458D01*
X18707548Y-33617457D01*
X18707546Y-33617454D01*
X18707541Y-33617450D01*
X18592329Y-33531202D01*
X18457488Y-33480910D01*
X18457483Y-33480909D01*
X18457481Y-33480908D01*
X18457477Y-33480908D01*
X18426249Y-33477550D01*
X18397873Y-33474500D01*
X18397870Y-33474500D01*
X17802133Y-33474500D01*
X17802129Y-33474500D01*
X17802128Y-33474501D01*
X17794949Y-33475272D01*
X17742519Y-33480908D01*
X17742514Y-33480909D01*
X17607670Y-33531202D01*
X17492458Y-33617450D01*
X17492450Y-33617458D01*
X17406202Y-33732670D01*
X17355910Y-33867511D01*
X17355908Y-33867522D01*
X17349500Y-33927129D01*
X17349500Y-34972866D01*
X17349501Y-34972870D01*
X17355908Y-35032480D01*
X17355909Y-35032485D01*
X17406202Y-35167329D01*
X17461481Y-35241171D01*
X17481218Y-35299085D01*
X17463144Y-35357540D01*
X17414163Y-35394208D01*
X17382228Y-35399500D01*
X13004861Y-35399500D01*
X12995158Y-35399023D01*
X12976658Y-35397201D01*
X12873237Y-35387014D01*
X12854204Y-35383228D01*
X12741645Y-35349084D01*
X12723714Y-35341657D01*
X12619977Y-35286208D01*
X12603841Y-35275426D01*
X12512916Y-35200806D01*
X12499193Y-35187083D01*
X12425872Y-35097742D01*
X12403572Y-35040766D01*
X12419020Y-34981563D01*
X12466317Y-34942747D01*
X12527396Y-34939145D01*
X12557400Y-34952621D01*
X12628254Y-34999963D01*
X12628257Y-34999964D01*
X12628260Y-34999966D01*
X12683808Y-35011015D01*
X12701315Y-35014498D01*
X12701320Y-35014498D01*
X12701326Y-35014500D01*
X12701327Y-35014500D01*
X14258673Y-35014500D01*
X14258674Y-35014500D01*
X14331740Y-34999966D01*
X14414601Y-34944601D01*
X14469966Y-34861740D01*
X14484500Y-34788674D01*
X14484500Y-33847862D01*
X14503407Y-33789671D01*
X14522721Y-33769715D01*
X14523396Y-33769191D01*
X14536368Y-33752053D01*
X14545286Y-33741815D01*
X15382607Y-32904495D01*
X15437124Y-32876718D01*
X15452611Y-32875499D01*
X15471943Y-32875499D01*
X15471948Y-32875499D01*
X15519542Y-32868565D01*
X15542504Y-32865221D01*
X15542505Y-32865220D01*
X15542509Y-32865220D01*
X15542511Y-32865218D01*
X15542514Y-32865218D01*
X15651343Y-32812014D01*
X15651343Y-32812013D01*
X15651347Y-32812012D01*
X15737012Y-32726347D01*
X15790220Y-32617509D01*
X15800500Y-32546949D01*
X15800499Y-32253052D01*
X15790220Y-32182491D01*
X15790219Y-32182489D01*
X15790218Y-32182485D01*
X15737014Y-32073656D01*
X15737012Y-32073654D01*
X15737012Y-32073653D01*
X15651347Y-31987988D01*
X15542509Y-31934780D01*
X15471949Y-31924500D01*
X15471945Y-31924500D01*
X15028056Y-31924500D01*
X15028048Y-31924501D01*
X14957495Y-31934778D01*
X14957485Y-31934781D01*
X14848656Y-31987985D01*
X14762987Y-32073654D01*
X14752312Y-32095491D01*
X14709780Y-32182491D01*
X14699501Y-32253048D01*
X14699500Y-32253054D01*
X14699500Y-32272388D01*
X14680593Y-32330579D01*
X14670504Y-32342392D01*
X14036393Y-32976504D01*
X13981876Y-33004281D01*
X13966389Y-33005500D01*
X12701326Y-33005500D01*
X12701325Y-33005500D01*
X12701315Y-33005501D01*
X12628263Y-33020033D01*
X12628257Y-33020035D01*
X12545400Y-33075397D01*
X12545397Y-33075400D01*
X12484617Y-33166367D01*
X12483028Y-33165305D01*
X12451231Y-33202538D01*
X12391737Y-33216824D01*
X12335208Y-33193412D01*
X12303236Y-33141244D01*
X12300500Y-33118129D01*
X12300500Y-31691752D01*
X12319407Y-31633561D01*
X12368907Y-31597597D01*
X12430093Y-31597597D01*
X12479593Y-31633561D01*
X12496598Y-31672438D01*
X12514582Y-31762854D01*
X12590266Y-31945571D01*
X12657026Y-32045484D01*
X13023387Y-31679122D01*
X13079901Y-31777007D01*
X13172993Y-31870099D01*
X13270874Y-31926611D01*
X12904513Y-32292973D01*
X13004428Y-32359733D01*
X13187145Y-32435417D01*
X13381112Y-32473999D01*
X13381116Y-32474000D01*
X13578884Y-32474000D01*
X13578887Y-32473999D01*
X13772854Y-32435417D01*
X13955571Y-32359733D01*
X14055485Y-32292973D01*
X13689123Y-31926611D01*
X13787007Y-31870099D01*
X13880099Y-31777007D01*
X13936611Y-31679123D01*
X14302973Y-32045485D01*
X14369733Y-31945571D01*
X14445417Y-31762854D01*
X14483999Y-31568887D01*
X14484000Y-31568883D01*
X14484000Y-31371116D01*
X14483999Y-31371112D01*
X14445417Y-31177145D01*
X14369733Y-30994428D01*
X14302973Y-30894513D01*
X13936611Y-31260874D01*
X13880099Y-31162993D01*
X13787007Y-31069901D01*
X13689122Y-31013387D01*
X14055484Y-30647026D01*
X13955571Y-30580266D01*
X13772854Y-30504582D01*
X13578887Y-30466000D01*
X13381112Y-30466000D01*
X13187145Y-30504582D01*
X13004425Y-30580267D01*
X12904513Y-30647025D01*
X13270876Y-31013388D01*
X13172993Y-31069901D01*
X13079901Y-31162993D01*
X13023388Y-31260876D01*
X12657025Y-30894513D01*
X12590267Y-30994425D01*
X12514582Y-31177145D01*
X12496598Y-31267561D01*
X12466701Y-31320945D01*
X12411136Y-31346561D01*
X12351126Y-31334624D01*
X12309594Y-31289694D01*
X12300500Y-31248247D01*
X12300500Y-29154313D01*
X12319407Y-29096122D01*
X12368907Y-29060158D01*
X12430093Y-29060158D01*
X12479593Y-29096122D01*
X12496597Y-29134998D01*
X12513938Y-29222175D01*
X12514103Y-29223001D01*
X12514103Y-29223003D01*
X12589821Y-29405804D01*
X12589827Y-29405816D01*
X12668437Y-29523462D01*
X12699754Y-29570331D01*
X12839669Y-29710246D01*
X12904502Y-29753566D01*
X13004183Y-29820172D01*
X13004195Y-29820178D01*
X13042106Y-29835881D01*
X13186998Y-29895897D01*
X13381065Y-29934500D01*
X13381066Y-29934500D01*
X13578934Y-29934500D01*
X13578935Y-29934500D01*
X13773002Y-29895897D01*
X13955809Y-29820176D01*
X13955811Y-29820174D01*
X13955816Y-29820172D01*
X14048661Y-29758134D01*
X14120331Y-29710246D01*
X14260246Y-29570331D01*
X14332523Y-29462159D01*
X14357689Y-29424498D01*
X14405739Y-29386619D01*
X14440004Y-29380500D01*
X14717243Y-29380500D01*
X14775434Y-29399407D01*
X14787240Y-29409490D01*
X14797609Y-29419859D01*
X14907825Y-29476017D01*
X14999265Y-29490500D01*
X15340734Y-29490499D01*
X15340737Y-29490499D01*
X15367332Y-29486286D01*
X15432175Y-29476017D01*
X15542391Y-29419859D01*
X15629859Y-29332391D01*
X15686017Y-29222175D01*
X15700500Y-29130735D01*
X15700499Y-28729266D01*
X15700499Y-28729262D01*
X15694882Y-28693801D01*
X15686017Y-28637825D01*
X15629859Y-28527609D01*
X15599495Y-28497245D01*
X15571719Y-28442728D01*
X15570500Y-28427242D01*
X15570500Y-28099500D01*
X15589407Y-28041309D01*
X15638907Y-28005345D01*
X15669500Y-28000500D01*
X20447273Y-28000500D01*
X20552727Y-28000500D01*
X23140500Y-28000500D01*
X23198691Y-28019407D01*
G37*
G04 #@! TD.AperFunction*
G04 #@! TA.AperFunction,Conductor*
G36*
X20401279Y-29969407D02*
G01*
X20437243Y-30018907D01*
X20437243Y-30080093D01*
X20402417Y-30128753D01*
X20388888Y-30138880D01*
X20388880Y-30138888D01*
X20304786Y-30251223D01*
X20255750Y-30382695D01*
X20255748Y-30382706D01*
X20249500Y-30440829D01*
X20249500Y-32559170D01*
X20249499Y-32559170D01*
X20255748Y-32617293D01*
X20255750Y-32617304D01*
X20304786Y-32748776D01*
X20352126Y-32812014D01*
X20388884Y-32861116D01*
X20388887Y-32861118D01*
X20388888Y-32861119D01*
X20501223Y-32945213D01*
X20632695Y-32994249D01*
X20632696Y-32994249D01*
X20632701Y-32994251D01*
X20690826Y-33000500D01*
X20690830Y-33000500D01*
X21259170Y-33000500D01*
X21259174Y-33000500D01*
X21317299Y-32994251D01*
X21364881Y-32976504D01*
X21448776Y-32945213D01*
X21448776Y-32945212D01*
X21448778Y-32945212D01*
X21561116Y-32861116D01*
X21645212Y-32748778D01*
X21653968Y-32725304D01*
X21694173Y-32617508D01*
X21694251Y-32617299D01*
X21700500Y-32559174D01*
X21700500Y-32252206D01*
X21719407Y-32194015D01*
X21768907Y-32158051D01*
X21799820Y-32153207D01*
X22561936Y-32155707D01*
X22561936Y-32155706D01*
X22561938Y-32155707D01*
X22561938Y-32155706D01*
X22687692Y-32131120D01*
X22806235Y-32082472D01*
X22823893Y-32070755D01*
X22878295Y-32054251D01*
X24013147Y-32050500D01*
X24013474Y-32050499D01*
X24556521Y-32050499D01*
X24556522Y-32050498D01*
X24603411Y-32043072D01*
X24650299Y-32035647D01*
X24650299Y-32035646D01*
X24650304Y-32035646D01*
X24763342Y-31978050D01*
X24853050Y-31888342D01*
X24910646Y-31775304D01*
X24925500Y-31681519D01*
X24925499Y-31318482D01*
X24910646Y-31224696D01*
X24853050Y-31111658D01*
X24836393Y-31095001D01*
X24808618Y-31040487D01*
X24818189Y-30980055D01*
X24836394Y-30954998D01*
X24853050Y-30938342D01*
X24910646Y-30825304D01*
X24925500Y-30731519D01*
X24925499Y-30368482D01*
X24923722Y-30357263D01*
X24910647Y-30274700D01*
X24910646Y-30274698D01*
X24910646Y-30274696D01*
X24853050Y-30161658D01*
X24810893Y-30119501D01*
X24783118Y-30064987D01*
X24792689Y-30004555D01*
X24835954Y-29961290D01*
X24880899Y-29950500D01*
X25419101Y-29950500D01*
X25477292Y-29969407D01*
X25513256Y-30018907D01*
X25513256Y-30080093D01*
X25489106Y-30119501D01*
X25446950Y-30161658D01*
X25446949Y-30161659D01*
X25389354Y-30274695D01*
X25374500Y-30368477D01*
X25374500Y-30731520D01*
X25374501Y-30731523D01*
X25389352Y-30825299D01*
X25389354Y-30825304D01*
X25446950Y-30938342D01*
X25446952Y-30938344D01*
X25463605Y-30954998D01*
X25491381Y-31009515D01*
X25481809Y-31069947D01*
X25463605Y-31095002D01*
X25446952Y-31111655D01*
X25446950Y-31111658D01*
X25389354Y-31224695D01*
X25374500Y-31318477D01*
X25374500Y-31681520D01*
X25374501Y-31681523D01*
X25389352Y-31775299D01*
X25389354Y-31775304D01*
X25446950Y-31888342D01*
X25446952Y-31888344D01*
X25463605Y-31904998D01*
X25491381Y-31959515D01*
X25481809Y-32019947D01*
X25463605Y-32045002D01*
X25446952Y-32061655D01*
X25446950Y-32061658D01*
X25389354Y-32174695D01*
X25374500Y-32268477D01*
X25374500Y-32631520D01*
X25374501Y-32631523D01*
X25389352Y-32725299D01*
X25389354Y-32725304D01*
X25446950Y-32838342D01*
X25536658Y-32928050D01*
X25598147Y-32959380D01*
X25633869Y-32977582D01*
X25677133Y-33020847D01*
X25686828Y-33080477D01*
X25643608Y-33368610D01*
X25616278Y-33423352D01*
X25605032Y-33433177D01*
X25492458Y-33517450D01*
X25492450Y-33517458D01*
X25406202Y-33632670D01*
X25355910Y-33767511D01*
X25355908Y-33767522D01*
X25349500Y-33827129D01*
X25349500Y-34872866D01*
X25349501Y-34872870D01*
X25355908Y-34932480D01*
X25355909Y-34932485D01*
X25406202Y-35067329D01*
X25481063Y-35167330D01*
X25492454Y-35182546D01*
X25492457Y-35182548D01*
X25492458Y-35182549D01*
X25544152Y-35221247D01*
X25579405Y-35271255D01*
X25578531Y-35332434D01*
X25541864Y-35381416D01*
X25484823Y-35399500D01*
X20517772Y-35399500D01*
X20459581Y-35380593D01*
X20423617Y-35331093D01*
X20423617Y-35269907D01*
X20438519Y-35241171D01*
X20453434Y-35221247D01*
X20493796Y-35167331D01*
X20544091Y-35032483D01*
X20550500Y-34972873D01*
X20550499Y-33927128D01*
X20544091Y-33867517D01*
X20529029Y-33827133D01*
X20493797Y-33732670D01*
X20407549Y-33617458D01*
X20407548Y-33617457D01*
X20407546Y-33617454D01*
X20407541Y-33617450D01*
X20292333Y-33531204D01*
X20278889Y-33526190D01*
X20230976Y-33488139D01*
X20219389Y-33464196D01*
X20158586Y-33278209D01*
X20000797Y-32795563D01*
X20000687Y-32734379D01*
X20002128Y-32730232D01*
X20044251Y-32617299D01*
X20050500Y-32559174D01*
X20050500Y-30440826D01*
X20044251Y-30382701D01*
X20038948Y-30368482D01*
X19995213Y-30251223D01*
X19911119Y-30138888D01*
X19911118Y-30138887D01*
X19911116Y-30138884D01*
X19897583Y-30128753D01*
X19862330Y-30078744D01*
X19863204Y-30017565D01*
X19899872Y-29968584D01*
X19956912Y-29950500D01*
X20343088Y-29950500D01*
X20401279Y-29969407D01*
G37*
G04 #@! TD.AperFunction*
G04 #@! TA.AperFunction,Conductor*
G36*
X18709618Y-12319407D02*
G01*
X18745582Y-12368907D01*
X18745582Y-12430093D01*
X18710756Y-12478753D01*
X18692458Y-12492450D01*
X18692450Y-12492458D01*
X18606202Y-12607670D01*
X18555910Y-12742511D01*
X18555908Y-12742522D01*
X18549501Y-12802119D01*
X18549500Y-12802128D01*
X18549500Y-14197866D01*
X18549501Y-14197870D01*
X18555908Y-14257480D01*
X18555909Y-14257485D01*
X18606202Y-14392329D01*
X18664528Y-14470242D01*
X18692454Y-14507546D01*
X18692457Y-14507548D01*
X18692458Y-14507549D01*
X18807670Y-14593797D01*
X18942511Y-14644089D01*
X18942512Y-14644089D01*
X18942517Y-14644091D01*
X19002127Y-14650500D01*
X19747872Y-14650499D01*
X19807483Y-14644091D01*
X19876938Y-14618186D01*
X19942329Y-14593797D01*
X19942329Y-14593796D01*
X19942331Y-14593796D01*
X20057546Y-14507546D01*
X20143796Y-14392331D01*
X20166921Y-14330331D01*
X20194089Y-14257488D01*
X20194090Y-14257485D01*
X20194091Y-14257483D01*
X20200500Y-14197873D01*
X20200499Y-13169499D01*
X20219406Y-13111309D01*
X20268906Y-13075345D01*
X20299499Y-13070500D01*
X21161900Y-13070500D01*
X21220091Y-13089407D01*
X21256055Y-13138907D01*
X21259681Y-13184988D01*
X21249500Y-13249263D01*
X21249500Y-13650737D01*
X21263983Y-13742174D01*
X21263984Y-13742178D01*
X21285000Y-13783423D01*
X21320141Y-13852391D01*
X21407609Y-13939859D01*
X21517825Y-13996017D01*
X21609265Y-14010500D01*
X21950734Y-14010499D01*
X21950737Y-14010499D01*
X21977332Y-14006286D01*
X22042175Y-13996017D01*
X22152391Y-13939859D01*
X22204997Y-13887252D01*
X22259511Y-13859476D01*
X22319943Y-13869047D01*
X22345003Y-13887253D01*
X22359521Y-13901771D01*
X22381888Y-13936159D01*
X22393140Y-13965342D01*
X22539249Y-14165816D01*
X22788306Y-14507546D01*
X22805506Y-14531145D01*
X22824500Y-14589308D01*
X22824500Y-15075500D01*
X22805593Y-15133691D01*
X22756093Y-15169655D01*
X22725500Y-15174500D01*
X22044032Y-15174500D01*
X21985841Y-15155593D01*
X21974029Y-15145504D01*
X21938016Y-15109492D01*
X21938010Y-15109487D01*
X21812488Y-15037017D01*
X21812489Y-15037017D01*
X21778826Y-15027997D01*
X21672475Y-14999500D01*
X18777525Y-14999500D01*
X18753082Y-15006049D01*
X18643967Y-15035286D01*
X18643964Y-15035288D01*
X18637515Y-15037016D01*
X18511985Y-15109490D01*
X17809490Y-15811984D01*
X17756720Y-15903386D01*
X17745173Y-15923386D01*
X17737016Y-15937513D01*
X17699500Y-16077524D01*
X17699500Y-16461758D01*
X17680593Y-16519949D01*
X17655505Y-16544071D01*
X17644093Y-16551696D01*
X17511701Y-16684088D01*
X17511698Y-16684092D01*
X17407681Y-16839761D01*
X17407677Y-16839770D01*
X17336026Y-17012750D01*
X17299500Y-17196381D01*
X17299500Y-17383618D01*
X17336026Y-17567249D01*
X17407677Y-17740229D01*
X17407681Y-17740238D01*
X17465970Y-17827471D01*
X17511698Y-17895908D01*
X17644092Y-18028302D01*
X17707252Y-18070504D01*
X17799761Y-18132318D01*
X17799767Y-18132320D01*
X17799769Y-18132322D01*
X17972749Y-18203973D01*
X18156384Y-18240500D01*
X18156385Y-18240500D01*
X18343615Y-18240500D01*
X18343616Y-18240500D01*
X18527251Y-18203973D01*
X18700231Y-18132322D01*
X18700234Y-18132319D01*
X18700238Y-18132318D01*
X18753766Y-18096551D01*
X18855908Y-18028302D01*
X18988302Y-17895908D01*
X19068185Y-17776355D01*
X19116235Y-17738476D01*
X19177373Y-17736074D01*
X19228247Y-17770067D01*
X19249424Y-17827471D01*
X19249500Y-17831357D01*
X19249500Y-18014672D01*
X19249501Y-18014684D01*
X19264033Y-18087736D01*
X19264035Y-18087742D01*
X19319397Y-18170599D01*
X19319400Y-18170602D01*
X19384067Y-18213810D01*
X19402260Y-18225966D01*
X19457808Y-18237015D01*
X19475315Y-18240498D01*
X19475320Y-18240498D01*
X19475326Y-18240500D01*
X19475327Y-18240500D01*
X21024673Y-18240500D01*
X21024674Y-18240500D01*
X21097740Y-18225966D01*
X21180601Y-18170601D01*
X21235966Y-18087740D01*
X21250500Y-18014674D01*
X21250500Y-17427986D01*
X21269407Y-17369795D01*
X21301912Y-17341174D01*
X21928163Y-16997897D01*
X21937931Y-16988552D01*
X21975139Y-16952961D01*
X22030258Y-16926399D01*
X22043572Y-16925500D01*
X22548958Y-16925500D01*
X22548966Y-16925499D01*
X22874175Y-16925499D01*
X22874178Y-16925499D01*
X22919760Y-16919499D01*
X22919761Y-16919499D01*
X22973673Y-16894358D01*
X23019799Y-16872850D01*
X23097850Y-16794799D01*
X23144499Y-16694760D01*
X23150500Y-16649179D01*
X23150499Y-16450822D01*
X23144499Y-16405240D01*
X23144499Y-16405238D01*
X23097851Y-16305203D01*
X23097850Y-16305202D01*
X23097850Y-16305201D01*
X23019799Y-16227150D01*
X22919760Y-16180501D01*
X22874179Y-16174500D01*
X22874178Y-16174500D01*
X22044914Y-16174500D01*
X21986723Y-16155593D01*
X21973376Y-16143935D01*
X21948008Y-16117415D01*
X21921447Y-16062299D01*
X21932355Y-16002094D01*
X21949543Y-15978980D01*
X21961788Y-15966735D01*
X21974031Y-15954494D01*
X22028549Y-15926718D01*
X22044032Y-15925500D01*
X22548958Y-15925500D01*
X22548966Y-15925499D01*
X22874175Y-15925499D01*
X22874178Y-15925499D01*
X22919760Y-15919499D01*
X22919761Y-15919499D01*
X22973673Y-15894358D01*
X23019799Y-15872850D01*
X23097850Y-15794799D01*
X23144499Y-15694760D01*
X23150500Y-15649179D01*
X23150500Y-15599499D01*
X23169407Y-15541308D01*
X23218907Y-15505344D01*
X23249500Y-15500499D01*
X23299175Y-15500499D01*
X23299178Y-15500499D01*
X23344760Y-15494499D01*
X23408160Y-15464934D01*
X23468890Y-15457478D01*
X23491834Y-15464932D01*
X23555240Y-15494499D01*
X23600821Y-15500500D01*
X23799178Y-15500499D01*
X23844760Y-15494499D01*
X23908160Y-15464934D01*
X23968890Y-15457478D01*
X23991834Y-15464932D01*
X24055240Y-15494499D01*
X24100821Y-15500500D01*
X24299178Y-15500499D01*
X24344760Y-15494499D01*
X24408160Y-15464934D01*
X24468890Y-15457478D01*
X24491834Y-15464932D01*
X24555240Y-15494499D01*
X24600821Y-15500500D01*
X24799178Y-15500499D01*
X24844760Y-15494499D01*
X24844761Y-15494499D01*
X24908162Y-15464934D01*
X24944799Y-15447850D01*
X25022850Y-15369799D01*
X25069499Y-15269760D01*
X25075500Y-15224179D01*
X25075500Y-14853856D01*
X25075500Y-14618186D01*
X25094407Y-14559995D01*
X25123436Y-14533372D01*
X25916028Y-14056201D01*
X25984648Y-13985019D01*
X25984649Y-13985016D01*
X25989151Y-13980347D01*
X25989980Y-13981147D01*
X26018065Y-13957348D01*
X26052391Y-13939859D01*
X26139859Y-13852391D01*
X26196017Y-13742175D01*
X26210500Y-13650735D01*
X26210499Y-13249266D01*
X26210499Y-13249263D01*
X26210499Y-13249262D01*
X26204882Y-13213801D01*
X26196017Y-13157825D01*
X26139859Y-13047609D01*
X26052391Y-12960141D01*
X25942175Y-12903983D01*
X25942176Y-12903983D01*
X25850736Y-12889500D01*
X25509262Y-12889500D01*
X25417825Y-12903983D01*
X25417821Y-12903984D01*
X25307610Y-12960140D01*
X25307609Y-12960140D01*
X25307609Y-12960141D01*
X25270001Y-12997748D01*
X25215487Y-13025524D01*
X25155055Y-13015953D01*
X25129999Y-12997749D01*
X25092391Y-12960141D01*
X24982175Y-12903983D01*
X24982176Y-12903983D01*
X24890736Y-12889500D01*
X24549262Y-12889500D01*
X24457825Y-12903983D01*
X24457821Y-12903984D01*
X24347610Y-12960140D01*
X24347609Y-12960140D01*
X24347609Y-12960141D01*
X24295001Y-13012748D01*
X24240487Y-13040524D01*
X24180055Y-13030953D01*
X24154999Y-13012749D01*
X24102391Y-12960141D01*
X23992175Y-12903983D01*
X23992176Y-12903983D01*
X23900737Y-12889500D01*
X23686726Y-12889500D01*
X23628535Y-12870593D01*
X23592571Y-12821093D01*
X23591100Y-12764876D01*
X23602130Y-12723711D01*
X23610500Y-12692475D01*
X23610500Y-12547525D01*
X23577702Y-12425122D01*
X23580904Y-12364022D01*
X23619410Y-12316472D01*
X23673329Y-12300500D01*
X35952405Y-12300500D01*
X35995139Y-12300500D01*
X36004842Y-12300976D01*
X36126763Y-12312985D01*
X36145793Y-12316770D01*
X36222227Y-12339956D01*
X36258354Y-12350915D01*
X36276285Y-12358342D01*
X36380022Y-12413791D01*
X36396158Y-12424573D01*
X36487083Y-12499193D01*
X36500806Y-12512916D01*
X36575426Y-12603841D01*
X36586208Y-12619977D01*
X36641657Y-12723714D01*
X36649084Y-12741645D01*
X36683228Y-12854204D01*
X36687014Y-12873237D01*
X36699023Y-12995156D01*
X36699500Y-13004861D01*
X36699500Y-18811601D01*
X36680593Y-18869792D01*
X36631093Y-18905756D01*
X36569907Y-18905756D01*
X36545499Y-18893917D01*
X36502757Y-18865358D01*
X36366270Y-18808823D01*
X36366264Y-18808821D01*
X36221371Y-18780000D01*
X35922501Y-18780000D01*
X35922500Y-18780001D01*
X35922500Y-19230001D01*
X35572500Y-19230001D01*
X35572500Y-18780001D01*
X35572499Y-18780000D01*
X35273628Y-18780000D01*
X35128735Y-18808821D01*
X35128729Y-18808823D01*
X34992242Y-18865358D01*
X34869406Y-18947434D01*
X34764934Y-19051906D01*
X34682858Y-19174742D01*
X34626323Y-19311229D01*
X34626321Y-19311235D01*
X34617615Y-19355000D01*
X35102127Y-19355000D01*
X35067945Y-19414205D01*
X35047501Y-19490504D01*
X35047501Y-19569496D01*
X35067945Y-19645795D01*
X35102127Y-19705000D01*
X34617616Y-19705000D01*
X34626321Y-19748764D01*
X34626323Y-19748770D01*
X34682858Y-19885257D01*
X34764934Y-20008093D01*
X34869406Y-20112565D01*
X34992242Y-20194641D01*
X35128729Y-20251176D01*
X35128735Y-20251178D01*
X35273628Y-20279999D01*
X35273632Y-20280000D01*
X35572499Y-20280000D01*
X35572500Y-20279999D01*
X35572500Y-19829999D01*
X35922500Y-19829999D01*
X35922500Y-20279999D01*
X35922501Y-20280000D01*
X36221368Y-20280000D01*
X36221371Y-20279999D01*
X36366264Y-20251178D01*
X36366270Y-20251176D01*
X36502758Y-20194640D01*
X36545498Y-20166083D01*
X36604386Y-20149474D01*
X36661790Y-20170651D01*
X36695783Y-20221525D01*
X36699500Y-20248398D01*
X36699500Y-27451601D01*
X36680593Y-27509792D01*
X36631093Y-27545756D01*
X36569907Y-27545756D01*
X36545499Y-27533917D01*
X36502757Y-27505358D01*
X36366270Y-27448823D01*
X36366264Y-27448821D01*
X36221371Y-27420000D01*
X35922501Y-27420000D01*
X35922500Y-27420001D01*
X35922500Y-27870001D01*
X35572500Y-27870001D01*
X35572500Y-27420001D01*
X35572499Y-27420000D01*
X35273628Y-27420000D01*
X35128735Y-27448821D01*
X35128729Y-27448823D01*
X34992242Y-27505358D01*
X34869406Y-27587434D01*
X34764934Y-27691906D01*
X34682858Y-27814742D01*
X34626323Y-27951229D01*
X34626321Y-27951235D01*
X34617615Y-27995000D01*
X35102127Y-27995000D01*
X35067945Y-28054205D01*
X35047501Y-28130504D01*
X35047501Y-28209496D01*
X35067945Y-28285795D01*
X35102127Y-28345000D01*
X34617616Y-28345000D01*
X34626321Y-28388764D01*
X34626323Y-28388770D01*
X34682858Y-28525257D01*
X34764934Y-28648093D01*
X34869406Y-28752565D01*
X34992242Y-28834641D01*
X35128729Y-28891176D01*
X35128735Y-28891178D01*
X35273628Y-28919999D01*
X35273632Y-28920000D01*
X35572499Y-28920000D01*
X35572500Y-28919999D01*
X35572500Y-28469999D01*
X35922500Y-28469999D01*
X35922500Y-28919999D01*
X35922501Y-28920000D01*
X36221368Y-28920000D01*
X36221371Y-28919999D01*
X36366264Y-28891178D01*
X36366270Y-28891176D01*
X36502758Y-28834640D01*
X36545498Y-28806083D01*
X36604386Y-28789474D01*
X36661790Y-28810651D01*
X36695783Y-28861525D01*
X36699500Y-28888398D01*
X36699500Y-34695137D01*
X36699023Y-34704842D01*
X36687014Y-34826760D01*
X36683228Y-34845793D01*
X36649082Y-34958357D01*
X36641655Y-34976287D01*
X36586209Y-35080019D01*
X36575427Y-35096156D01*
X36500805Y-35187082D01*
X36487082Y-35200805D01*
X36396156Y-35275427D01*
X36380019Y-35286209D01*
X36276287Y-35341655D01*
X36258357Y-35349082D01*
X36145793Y-35383228D01*
X36126760Y-35387014D01*
X36017528Y-35397773D01*
X36004840Y-35399023D01*
X35995138Y-35399500D01*
X26715177Y-35399500D01*
X26656986Y-35380593D01*
X26621022Y-35331093D01*
X26621022Y-35269907D01*
X26655848Y-35221247D01*
X26707546Y-35182546D01*
X26793796Y-35067331D01*
X26806794Y-35032483D01*
X26844089Y-34932488D01*
X26844090Y-34932485D01*
X26844091Y-34932483D01*
X26850500Y-34872873D01*
X26850499Y-33827128D01*
X26844091Y-33767517D01*
X26844089Y-33767511D01*
X26793797Y-33632670D01*
X26707549Y-33517458D01*
X26707548Y-33517457D01*
X26707546Y-33517454D01*
X26688307Y-33503051D01*
X26653054Y-33453044D01*
X26649731Y-33409116D01*
X26689936Y-33141076D01*
X26717266Y-33086336D01*
X26771554Y-33058113D01*
X26821575Y-33062689D01*
X27179763Y-33192532D01*
X27195500Y-33199859D01*
X27206814Y-33206391D01*
X27245574Y-33216776D01*
X27253665Y-33219321D01*
X27286780Y-33231326D01*
X27291378Y-33232993D01*
X27304378Y-33234113D01*
X27321505Y-33237121D01*
X27334108Y-33240499D01*
X27374222Y-33240499D01*
X27382722Y-33240864D01*
X27422675Y-33244308D01*
X27434809Y-33242152D01*
X27435526Y-33242025D01*
X27452843Y-33240499D01*
X27840847Y-33240499D01*
X27899038Y-33259406D01*
X27935002Y-33308906D01*
X27935002Y-33370092D01*
X27923162Y-33394501D01*
X27829827Y-33534183D01*
X27829821Y-33534195D01*
X27754103Y-33716996D01*
X27754103Y-33716998D01*
X27715500Y-33911062D01*
X27715500Y-34108937D01*
X27754103Y-34303001D01*
X27754103Y-34303003D01*
X27829821Y-34485804D01*
X27829827Y-34485816D01*
X27908437Y-34603462D01*
X27939754Y-34650331D01*
X28079669Y-34790246D01*
X28134316Y-34826760D01*
X28244183Y-34900172D01*
X28244195Y-34900178D01*
X28311722Y-34928148D01*
X28426998Y-34975897D01*
X28621065Y-35014500D01*
X28621066Y-35014500D01*
X28818934Y-35014500D01*
X28818935Y-35014500D01*
X29013002Y-34975897D01*
X29195809Y-34900176D01*
X29195811Y-34900174D01*
X29195816Y-34900172D01*
X29243319Y-34868430D01*
X29360331Y-34790246D01*
X29500246Y-34650331D01*
X29578430Y-34533319D01*
X29610172Y-34485816D01*
X29610178Y-34485804D01*
X29685897Y-34303002D01*
X29724500Y-34108935D01*
X29724500Y-33911065D01*
X29685897Y-33716998D01*
X29610176Y-33534191D01*
X29610172Y-33534183D01*
X29516838Y-33394501D01*
X29500229Y-33335613D01*
X29521406Y-33278209D01*
X29572280Y-33244216D01*
X29599153Y-33240499D01*
X30015890Y-33240499D01*
X30015892Y-33240499D01*
X30143186Y-33206391D01*
X30143188Y-33206389D01*
X30143190Y-33206389D01*
X30257309Y-33140502D01*
X30257309Y-33140501D01*
X30257314Y-33140499D01*
X30350500Y-33047313D01*
X30377528Y-33000500D01*
X30416390Y-32933189D01*
X30416390Y-32933187D01*
X30416392Y-32933185D01*
X30450500Y-32805891D01*
X30450500Y-28858330D01*
X30469407Y-28800139D01*
X30518907Y-28764175D01*
X30580093Y-28764175D01*
X30604502Y-28776015D01*
X30692241Y-28834640D01*
X30828729Y-28891176D01*
X30828735Y-28891178D01*
X30973628Y-28919999D01*
X30973632Y-28920000D01*
X31372499Y-28920000D01*
X31372500Y-28919999D01*
X31372500Y-28469999D01*
X31722500Y-28469999D01*
X31722500Y-28919999D01*
X31722501Y-28920000D01*
X32121368Y-28920000D01*
X32121371Y-28919999D01*
X32266264Y-28891178D01*
X32266270Y-28891176D01*
X32402757Y-28834641D01*
X32525593Y-28752565D01*
X32630065Y-28648093D01*
X32712141Y-28525257D01*
X32768676Y-28388770D01*
X32768678Y-28388764D01*
X32777384Y-28345000D01*
X32342873Y-28345000D01*
X32377055Y-28285795D01*
X32397499Y-28209496D01*
X32397499Y-28130504D01*
X32377055Y-28054205D01*
X32342873Y-27995000D01*
X32777384Y-27995000D01*
X32768678Y-27951235D01*
X32768676Y-27951229D01*
X32712141Y-27814742D01*
X32630065Y-27691906D01*
X32525593Y-27587434D01*
X32402757Y-27505358D01*
X32279689Y-27454382D01*
X32233164Y-27414645D01*
X32218880Y-27355150D01*
X32242295Y-27298623D01*
X32268075Y-27277181D01*
X32269632Y-27276281D01*
X32269635Y-27276281D01*
X32400865Y-27200515D01*
X32508015Y-27093365D01*
X32544408Y-27030331D01*
X32583779Y-26962139D01*
X32583779Y-26962137D01*
X32583781Y-26962135D01*
X32623000Y-26815766D01*
X32623000Y-26664234D01*
X32583781Y-26517865D01*
X32583779Y-26517862D01*
X32583779Y-26517860D01*
X32508018Y-26386639D01*
X32508016Y-26386637D01*
X32508015Y-26386635D01*
X32400865Y-26279485D01*
X32400862Y-26279483D01*
X32400860Y-26279481D01*
X32269638Y-26203720D01*
X32269640Y-26203720D01*
X32212847Y-26188503D01*
X32123266Y-26164500D01*
X31971734Y-26164500D01*
X31951040Y-26170044D01*
X31922622Y-26177659D01*
X31861520Y-26174456D01*
X31813971Y-26135950D01*
X31798000Y-26082032D01*
X31798000Y-25975327D01*
X31797999Y-25975318D01*
X31791203Y-25941159D01*
X31783466Y-25902260D01*
X31783465Y-25902258D01*
X31781885Y-25894316D01*
X31781885Y-25855684D01*
X31783465Y-25847741D01*
X31783466Y-25847740D01*
X31798000Y-25774674D01*
X31798000Y-25425326D01*
X31797999Y-25425324D01*
X31797999Y-25425318D01*
X31789800Y-25384103D01*
X31783466Y-25352260D01*
X31783464Y-25352258D01*
X31781858Y-25344181D01*
X31781858Y-25305550D01*
X31788000Y-25274674D01*
X31788000Y-24925326D01*
X31781858Y-24894448D01*
X31781859Y-24855819D01*
X31797998Y-24774684D01*
X31798000Y-24774672D01*
X31798000Y-24549500D01*
X31816907Y-24491309D01*
X31866407Y-24455345D01*
X31897000Y-24450500D01*
X31946142Y-24450500D01*
X31946144Y-24450500D01*
X32035288Y-24426614D01*
X32115212Y-24380469D01*
X32180469Y-24315212D01*
X32226614Y-24235288D01*
X32250500Y-24146144D01*
X32250500Y-23053856D01*
X32226614Y-22964712D01*
X32180469Y-22884788D01*
X32115212Y-22819531D01*
X32035288Y-22773386D01*
X31946144Y-22749500D01*
X31946142Y-22749500D01*
X31897000Y-22749500D01*
X31838809Y-22730593D01*
X31802845Y-22681093D01*
X31798000Y-22650500D01*
X31798000Y-22425327D01*
X31797999Y-22425318D01*
X31791835Y-22394335D01*
X31783466Y-22352260D01*
X31783464Y-22352258D01*
X31781858Y-22344181D01*
X31781858Y-22305550D01*
X31788000Y-22274674D01*
X31788000Y-21925326D01*
X31787911Y-21924877D01*
X31775243Y-21861192D01*
X31780877Y-21803989D01*
X31783465Y-21797741D01*
X31783464Y-21797741D01*
X31783466Y-21797740D01*
X31798000Y-21724674D01*
X31798000Y-21617967D01*
X31816907Y-21559776D01*
X31866407Y-21523812D01*
X31922619Y-21522340D01*
X31971734Y-21535500D01*
X31971736Y-21535500D01*
X32123264Y-21535500D01*
X32123266Y-21535500D01*
X32269635Y-21496281D01*
X32269637Y-21496279D01*
X32269639Y-21496279D01*
X32400860Y-21420518D01*
X32400860Y-21420517D01*
X32400865Y-21420515D01*
X32508015Y-21313365D01*
X32523028Y-21287362D01*
X32583779Y-21182139D01*
X32583779Y-21182137D01*
X32583781Y-21182135D01*
X32623000Y-21035766D01*
X32623000Y-20884234D01*
X32583781Y-20737865D01*
X32583779Y-20737862D01*
X32583779Y-20737860D01*
X32508018Y-20606639D01*
X32508016Y-20606637D01*
X32508015Y-20606635D01*
X32400865Y-20499485D01*
X32400862Y-20499483D01*
X32400860Y-20499481D01*
X32268075Y-20422817D01*
X32227134Y-20377347D01*
X32220738Y-20316497D01*
X32251331Y-20263509D01*
X32279690Y-20245617D01*
X32402755Y-20194642D01*
X32525593Y-20112565D01*
X32630065Y-20008093D01*
X32712141Y-19885257D01*
X32768676Y-19748770D01*
X32768678Y-19748764D01*
X32777384Y-19705000D01*
X32342873Y-19705000D01*
X32377055Y-19645795D01*
X32397499Y-19569496D01*
X32397499Y-19490504D01*
X32377055Y-19414205D01*
X32342873Y-19355000D01*
X32777384Y-19355000D01*
X32768678Y-19311235D01*
X32768676Y-19311229D01*
X32712141Y-19174742D01*
X32630065Y-19051906D01*
X32525593Y-18947434D01*
X32402757Y-18865358D01*
X32266270Y-18808823D01*
X32266264Y-18808821D01*
X32121371Y-18780000D01*
X31722501Y-18780000D01*
X31722500Y-18780001D01*
X31722500Y-19230001D01*
X31372500Y-19230001D01*
X31372500Y-18780001D01*
X31372499Y-18780000D01*
X30973628Y-18780000D01*
X30828735Y-18808821D01*
X30828729Y-18808823D01*
X30692239Y-18865359D01*
X30641540Y-18899235D01*
X30582651Y-18915843D01*
X30525248Y-18894664D01*
X30500806Y-18866423D01*
X30440509Y-18761985D01*
X30338015Y-18659491D01*
X30338012Y-18659489D01*
X30338010Y-18659487D01*
X30212488Y-18587017D01*
X30212489Y-18587017D01*
X30129246Y-18564712D01*
X30072475Y-18549500D01*
X29927525Y-18549500D01*
X29813915Y-18579942D01*
X29752814Y-18576739D01*
X29705264Y-18538234D01*
X29691194Y-18503629D01*
X29685897Y-18476998D01*
X29610176Y-18294191D01*
X29610172Y-18294183D01*
X29528553Y-18172034D01*
X29500246Y-18129669D01*
X29360331Y-17989754D01*
X29313462Y-17958437D01*
X29195816Y-17879827D01*
X29195804Y-17879821D01*
X29013002Y-17804103D01*
X28818937Y-17765500D01*
X28818935Y-17765500D01*
X28621065Y-17765500D01*
X28621062Y-17765500D01*
X28426998Y-17804103D01*
X28426996Y-17804103D01*
X28244195Y-17879821D01*
X28244183Y-17879827D01*
X28079670Y-17989752D01*
X27998918Y-18070504D01*
X27944401Y-18098281D01*
X27928915Y-18099500D01*
X27924809Y-18099500D01*
X27913915Y-18098899D01*
X27892707Y-18096551D01*
X27880826Y-18098365D01*
X27865883Y-18099500D01*
X25174499Y-18099500D01*
X25116308Y-18080593D01*
X25080344Y-18031093D01*
X25075499Y-18000500D01*
X25075499Y-17524499D01*
X25094406Y-17466308D01*
X25143906Y-17430344D01*
X25174499Y-17425499D01*
X25799175Y-17425499D01*
X25799178Y-17425499D01*
X25844760Y-17419499D01*
X25844763Y-17419497D01*
X25844765Y-17419497D01*
X25865610Y-17409777D01*
X25907451Y-17400500D01*
X26796142Y-17400500D01*
X26796144Y-17400500D01*
X26885288Y-17376614D01*
X26886660Y-17375822D01*
X26965212Y-17330470D01*
X27654777Y-16640903D01*
X27709292Y-16613128D01*
X27769724Y-16622699D01*
X27812989Y-16665964D01*
X27816242Y-16673021D01*
X27829824Y-16705809D01*
X27939754Y-16870331D01*
X28079669Y-17010246D01*
X28149811Y-17057113D01*
X28244183Y-17120172D01*
X28244195Y-17120178D01*
X28280136Y-17135065D01*
X28426998Y-17195897D01*
X28621065Y-17234500D01*
X28621066Y-17234500D01*
X28818934Y-17234500D01*
X28818935Y-17234500D01*
X29013002Y-17195897D01*
X29195809Y-17120176D01*
X29195811Y-17120174D01*
X29195816Y-17120172D01*
X29243319Y-17088430D01*
X29360331Y-17010246D01*
X29500246Y-16870331D01*
X29581556Y-16748642D01*
X29610172Y-16705816D01*
X29610177Y-16705807D01*
X29685897Y-16523002D01*
X29724500Y-16328935D01*
X29724500Y-16131065D01*
X29685897Y-15936998D01*
X29660656Y-15876062D01*
X29610178Y-15754195D01*
X29610172Y-15754183D01*
X29540008Y-15649177D01*
X29500246Y-15589669D01*
X29360331Y-15449754D01*
X29313462Y-15418437D01*
X29195816Y-15339827D01*
X29195804Y-15339821D01*
X29013002Y-15264103D01*
X28818937Y-15225500D01*
X28818935Y-15225500D01*
X28621065Y-15225500D01*
X28621062Y-15225500D01*
X28426998Y-15264103D01*
X28426996Y-15264103D01*
X28244195Y-15339821D01*
X28244183Y-15339827D01*
X28079669Y-15449754D01*
X28079665Y-15449757D01*
X27939757Y-15589665D01*
X27939754Y-15589669D01*
X27829822Y-15754192D01*
X27829821Y-15754196D01*
X27796069Y-15835677D01*
X27756332Y-15882202D01*
X27706299Y-15896776D01*
X27551009Y-15899431D01*
X27547830Y-15899486D01*
X27546140Y-15899500D01*
X27503856Y-15899500D01*
X27502974Y-15899616D01*
X27502464Y-15899653D01*
X27501671Y-15899772D01*
X27500042Y-15900001D01*
X27499245Y-15900106D01*
X27498754Y-15900208D01*
X27497875Y-15900339D01*
X27457176Y-15911992D01*
X27455551Y-15912442D01*
X27414711Y-15923385D01*
X27413882Y-15923729D01*
X27413407Y-15923895D01*
X27412705Y-15924200D01*
X27411171Y-15924851D01*
X27410415Y-15925164D01*
X27409960Y-15925393D01*
X27409152Y-15925743D01*
X27372895Y-15947511D01*
X27371441Y-15948367D01*
X27334781Y-15969534D01*
X27334078Y-15970074D01*
X27333672Y-15970350D01*
X27333079Y-15970822D01*
X27331755Y-15971856D01*
X27331108Y-15972352D01*
X27330723Y-15972695D01*
X27330025Y-15973249D01*
X27300674Y-16003620D01*
X27299491Y-16004824D01*
X26819504Y-16484812D01*
X26764987Y-16512590D01*
X26704555Y-16503019D01*
X26661290Y-16459754D01*
X26650500Y-16414809D01*
X26650500Y-15086188D01*
X26669407Y-15027997D01*
X26679490Y-15016190D01*
X27617710Y-14077969D01*
X27672225Y-14050194D01*
X27686888Y-14048979D01*
X27714377Y-14048753D01*
X27772719Y-14067183D01*
X27806650Y-14109863D01*
X27829824Y-14165809D01*
X27939754Y-14330331D01*
X28079669Y-14470246D01*
X28135497Y-14507549D01*
X28244183Y-14580172D01*
X28244195Y-14580178D01*
X28277075Y-14593797D01*
X28426998Y-14655897D01*
X28621065Y-14694500D01*
X28621066Y-14694500D01*
X28818934Y-14694500D01*
X28818935Y-14694500D01*
X29013002Y-14655897D01*
X29195809Y-14580176D01*
X29195811Y-14580174D01*
X29195816Y-14580172D01*
X29243319Y-14548430D01*
X29360331Y-14470246D01*
X29500246Y-14330331D01*
X29588756Y-14197866D01*
X29610172Y-14165816D01*
X29610178Y-14165804D01*
X29685897Y-13983002D01*
X29724500Y-13788935D01*
X29724500Y-13591065D01*
X29685897Y-13396998D01*
X29624704Y-13249265D01*
X29610178Y-13214195D01*
X29610172Y-13214183D01*
X29517402Y-13075345D01*
X29500246Y-13049669D01*
X29360331Y-12909754D01*
X29313462Y-12878437D01*
X29195816Y-12799827D01*
X29195804Y-12799821D01*
X29013002Y-12724103D01*
X28818937Y-12685500D01*
X28818935Y-12685500D01*
X28621065Y-12685500D01*
X28621062Y-12685500D01*
X28426998Y-12724103D01*
X28426996Y-12724103D01*
X28244195Y-12799821D01*
X28244183Y-12799827D01*
X28079669Y-12909754D01*
X28079665Y-12909757D01*
X27939757Y-13049665D01*
X27939754Y-13049669D01*
X27829822Y-13214192D01*
X27829821Y-13214196D01*
X27799803Y-13286663D01*
X27760066Y-13333188D01*
X27709152Y-13347773D01*
X27498811Y-13349498D01*
X27497999Y-13349501D01*
X27453762Y-13349501D01*
X27452717Y-13349647D01*
X27451950Y-13349751D01*
X27451064Y-13349867D01*
X27408240Y-13361718D01*
X27407462Y-13361930D01*
X27364624Y-13373408D01*
X27363676Y-13373811D01*
X27362942Y-13374118D01*
X27362112Y-13374461D01*
X27323871Y-13396960D01*
X27323175Y-13397366D01*
X27284702Y-13419580D01*
X27283910Y-13420199D01*
X27283255Y-13420706D01*
X27282558Y-13421240D01*
X27251467Y-13452844D01*
X27250898Y-13453419D01*
X26019529Y-14684789D01*
X25995240Y-14726859D01*
X25973386Y-14764710D01*
X25949500Y-14853857D01*
X25949500Y-16081402D01*
X25930593Y-16139593D01*
X25881093Y-16175557D01*
X25837579Y-16179555D01*
X25799180Y-16174500D01*
X25025825Y-16174500D01*
X25025815Y-16174501D01*
X24980240Y-16180500D01*
X24980238Y-16180500D01*
X24880203Y-16227148D01*
X24880201Y-16227150D01*
X24802150Y-16305201D01*
X24755501Y-16405240D01*
X24753686Y-16419030D01*
X24749500Y-16450822D01*
X24749500Y-16649173D01*
X24749501Y-16649185D01*
X24755500Y-16694757D01*
X24755500Y-16694758D01*
X24755501Y-16694760D01*
X24760653Y-16705809D01*
X24785065Y-16758161D01*
X24792521Y-16818891D01*
X24785065Y-16841838D01*
X24755502Y-16905237D01*
X24755501Y-16905241D01*
X24749500Y-16950822D01*
X24749500Y-17000500D01*
X24730593Y-17058691D01*
X24681093Y-17094655D01*
X24650502Y-17099500D01*
X24600826Y-17099500D01*
X24600814Y-17099501D01*
X24555240Y-17105500D01*
X24491837Y-17135065D01*
X24431108Y-17142521D01*
X24408160Y-17135065D01*
X24344760Y-17105501D01*
X24299179Y-17099500D01*
X24299177Y-17099500D01*
X24100826Y-17099500D01*
X24100814Y-17099501D01*
X24055240Y-17105500D01*
X23991837Y-17135065D01*
X23931108Y-17142521D01*
X23908160Y-17135065D01*
X23844760Y-17105501D01*
X23799179Y-17099500D01*
X23799177Y-17099500D01*
X23600826Y-17099500D01*
X23600814Y-17099501D01*
X23555240Y-17105500D01*
X23491837Y-17135065D01*
X23431108Y-17142521D01*
X23408160Y-17135065D01*
X23344760Y-17105501D01*
X23299179Y-17099500D01*
X23299177Y-17099500D01*
X23100826Y-17099500D01*
X23100814Y-17099501D01*
X23055240Y-17105500D01*
X23055238Y-17105500D01*
X22955203Y-17152148D01*
X22877150Y-17230201D01*
X22830501Y-17330240D01*
X22830501Y-17330241D01*
X22824500Y-17375821D01*
X22824500Y-18149174D01*
X22824501Y-18149185D01*
X22827509Y-18172034D01*
X22816357Y-18232195D01*
X22799360Y-18254956D01*
X22569529Y-18484788D01*
X22529115Y-18554786D01*
X22529116Y-18554787D01*
X22523388Y-18564707D01*
X22523386Y-18564710D01*
X22523386Y-18564712D01*
X22505340Y-18632063D01*
X22499500Y-18653857D01*
X22499500Y-19567890D01*
X22480593Y-19626081D01*
X22431093Y-19662045D01*
X22369907Y-19662045D01*
X22320407Y-19626081D01*
X22314764Y-19617391D01*
X22300501Y-19592688D01*
X22300500Y-19592686D01*
X22207314Y-19499500D01*
X22207311Y-19499498D01*
X22207309Y-19499496D01*
X22093189Y-19433609D01*
X22093191Y-19433609D01*
X22020772Y-19414205D01*
X21965892Y-19399500D01*
X21834108Y-19399500D01*
X21706814Y-19433608D01*
X21706813Y-19433608D01*
X21706811Y-19433609D01*
X21684453Y-19446518D01*
X21615658Y-19486236D01*
X21566160Y-19499500D01*
X21147273Y-19499500D01*
X21096343Y-19513146D01*
X21045411Y-19526793D01*
X20984256Y-19562100D01*
X20984257Y-19562101D01*
X20954088Y-19579519D01*
X20179516Y-20354091D01*
X20126794Y-20445407D01*
X20117439Y-20480321D01*
X20108821Y-20512485D01*
X20104194Y-20529754D01*
X20099500Y-20547273D01*
X20099500Y-23273668D01*
X20080593Y-23331859D01*
X20031093Y-23367823D01*
X19986228Y-23371633D01*
X19971582Y-23369500D01*
X19971580Y-23369500D01*
X19749500Y-23369500D01*
X19691309Y-23350593D01*
X19655345Y-23301093D01*
X19650500Y-23270500D01*
X19650500Y-19253857D01*
X19649586Y-19250445D01*
X19626614Y-19164712D01*
X19580469Y-19084788D01*
X19515212Y-19019531D01*
X19435288Y-18973386D01*
X19346144Y-18949500D01*
X19346142Y-18949500D01*
X16486190Y-18949500D01*
X16427999Y-18930593D01*
X16416186Y-18920504D01*
X15779496Y-18283814D01*
X15751719Y-18229297D01*
X15750500Y-18213810D01*
X15750500Y-16183857D01*
X15749601Y-16180501D01*
X15726614Y-16094712D01*
X15680469Y-16014788D01*
X15615212Y-15949531D01*
X15612470Y-15947948D01*
X15535290Y-15903387D01*
X15535289Y-15903386D01*
X15535288Y-15903386D01*
X15446144Y-15879500D01*
X15446142Y-15879500D01*
X14488231Y-15879500D01*
X14430040Y-15860593D01*
X14396767Y-15818386D01*
X14370178Y-15754196D01*
X14370176Y-15754191D01*
X14370174Y-15754189D01*
X14370172Y-15754183D01*
X14300008Y-15649177D01*
X14260246Y-15589669D01*
X14120331Y-15449754D01*
X14073462Y-15418437D01*
X13955816Y-15339827D01*
X13955804Y-15339821D01*
X13773002Y-15264103D01*
X13578937Y-15225500D01*
X13578935Y-15225500D01*
X13381065Y-15225500D01*
X13381062Y-15225500D01*
X13186998Y-15264103D01*
X13186996Y-15264103D01*
X13004195Y-15339821D01*
X13004183Y-15339827D01*
X12839669Y-15449754D01*
X12839665Y-15449757D01*
X12699757Y-15589665D01*
X12699754Y-15589669D01*
X12589827Y-15754183D01*
X12589821Y-15754195D01*
X12514103Y-15936996D01*
X12514103Y-15936998D01*
X12496598Y-16025000D01*
X12466701Y-16078384D01*
X12411136Y-16104000D01*
X12351126Y-16092063D01*
X12309594Y-16047133D01*
X12300500Y-16005686D01*
X12300500Y-13914313D01*
X12319407Y-13856122D01*
X12368907Y-13820158D01*
X12430093Y-13820158D01*
X12479593Y-13856122D01*
X12496597Y-13894998D01*
X12510590Y-13965343D01*
X12514103Y-13983001D01*
X12514103Y-13983003D01*
X12589821Y-14165804D01*
X12589827Y-14165816D01*
X12651080Y-14257485D01*
X12699754Y-14330331D01*
X12839669Y-14470246D01*
X12895497Y-14507549D01*
X13004183Y-14580172D01*
X13004195Y-14580178D01*
X13037075Y-14593797D01*
X13186998Y-14655897D01*
X13381065Y-14694500D01*
X13381066Y-14694500D01*
X13578934Y-14694500D01*
X13578935Y-14694500D01*
X13773002Y-14655897D01*
X13955809Y-14580176D01*
X13955811Y-14580174D01*
X13955816Y-14580172D01*
X14003319Y-14548430D01*
X14120331Y-14470246D01*
X14260246Y-14330331D01*
X14348756Y-14197866D01*
X14370172Y-14165816D01*
X14370178Y-14165804D01*
X14445897Y-13983002D01*
X14484500Y-13788935D01*
X14484500Y-13591065D01*
X14445897Y-13396998D01*
X14384704Y-13249265D01*
X14370178Y-13214195D01*
X14370172Y-13214183D01*
X14277402Y-13075345D01*
X14260246Y-13049669D01*
X14120331Y-12909754D01*
X14073462Y-12878437D01*
X13955816Y-12799827D01*
X13955804Y-12799821D01*
X13773002Y-12724103D01*
X13578937Y-12685500D01*
X13578935Y-12685500D01*
X13381065Y-12685500D01*
X13381062Y-12685500D01*
X13186998Y-12724103D01*
X13186996Y-12724103D01*
X13004195Y-12799821D01*
X13004183Y-12799827D01*
X12839669Y-12909754D01*
X12839665Y-12909757D01*
X12699757Y-13049665D01*
X12699754Y-13049669D01*
X12589827Y-13214183D01*
X12589821Y-13214195D01*
X12514103Y-13396996D01*
X12514103Y-13396998D01*
X12496598Y-13485000D01*
X12466701Y-13538384D01*
X12411136Y-13564000D01*
X12351126Y-13552063D01*
X12309594Y-13507133D01*
X12300500Y-13465686D01*
X12300500Y-13004861D01*
X12300977Y-12995157D01*
X12309388Y-12909757D01*
X12312985Y-12873233D01*
X12316771Y-12854204D01*
X12350918Y-12741635D01*
X12358335Y-12723726D01*
X12413795Y-12619968D01*
X12424567Y-12603846D01*
X12499195Y-12512913D01*
X12512913Y-12499195D01*
X12603846Y-12424567D01*
X12619968Y-12413795D01*
X12723726Y-12358335D01*
X12741635Y-12350918D01*
X12854205Y-12316770D01*
X12873233Y-12312985D01*
X12995157Y-12300976D01*
X13004861Y-12300500D01*
X13047594Y-12300500D01*
X18651427Y-12300500D01*
X18709618Y-12319407D01*
G37*
G04 #@! TD.AperFunction*
G04 #@! TA.AperFunction,Conductor*
G36*
X21615658Y-20313763D02*
G01*
X21706814Y-20366392D01*
X21834108Y-20400500D01*
X21834110Y-20400500D01*
X21965891Y-20400500D01*
X21965892Y-20400500D01*
X21989351Y-20394214D01*
X22050450Y-20397415D01*
X22098001Y-20435919D01*
X22113838Y-20495019D01*
X22091913Y-20552141D01*
X22084979Y-20559843D01*
X22056923Y-20587899D01*
X22003624Y-20696924D01*
X22000418Y-20703482D01*
X21989500Y-20778418D01*
X21989500Y-21221582D01*
X22000418Y-21296518D01*
X22056924Y-21412102D01*
X22086284Y-21441462D01*
X22114060Y-21495977D01*
X22104489Y-21556409D01*
X22086285Y-21581464D01*
X22049783Y-21617967D01*
X22020140Y-21647610D01*
X21963983Y-21757823D01*
X21949500Y-21849263D01*
X21949500Y-22250737D01*
X21959600Y-22314500D01*
X21963589Y-22339690D01*
X21963983Y-22342174D01*
X21963984Y-22342178D01*
X22006351Y-22425326D01*
X22020141Y-22452391D01*
X22107609Y-22539859D01*
X22217825Y-22596017D01*
X22309265Y-22610500D01*
X22400500Y-22610499D01*
X22458690Y-22629406D01*
X22494654Y-22678905D01*
X22499500Y-22709499D01*
X22499500Y-25446144D01*
X22506782Y-25473322D01*
X22514065Y-25500501D01*
X22523384Y-25535284D01*
X22523385Y-25535287D01*
X22523386Y-25535288D01*
X22569530Y-25615212D01*
X23384788Y-26430470D01*
X23410332Y-26445217D01*
X23442719Y-26463917D01*
X23442724Y-26463919D01*
X23464708Y-26476612D01*
X23464709Y-26476612D01*
X23464712Y-26476614D01*
X23553856Y-26500500D01*
X26813810Y-26500500D01*
X26872001Y-26519407D01*
X26883814Y-26529496D01*
X26920504Y-26566186D01*
X26948281Y-26620703D01*
X26949500Y-26636190D01*
X26949500Y-28264921D01*
X26948301Y-28280281D01*
X26946584Y-28291208D01*
X26948944Y-28313372D01*
X26949500Y-28323850D01*
X26949500Y-28346147D01*
X26952364Y-28356836D01*
X26955179Y-28371970D01*
X26956350Y-28382974D01*
X26956352Y-28382979D01*
X26964366Y-28403775D01*
X26967614Y-28413749D01*
X26973386Y-28435288D01*
X26973386Y-28435289D01*
X26978918Y-28444871D01*
X26985557Y-28458766D01*
X26989535Y-28469087D01*
X26989538Y-28469093D01*
X27002669Y-28487117D01*
X27008377Y-28495894D01*
X27015133Y-28507595D01*
X27019530Y-28515211D01*
X27019533Y-28515215D01*
X27027356Y-28523038D01*
X27037364Y-28534740D01*
X27043881Y-28543685D01*
X27061222Y-28557690D01*
X27069022Y-28564704D01*
X27084786Y-28580467D01*
X27084788Y-28580469D01*
X27094366Y-28585999D01*
X27107066Y-28594715D01*
X27115679Y-28601671D01*
X27136065Y-28610715D01*
X27145403Y-28615466D01*
X27164712Y-28626614D01*
X27172454Y-28628688D01*
X27175394Y-28629476D01*
X27189920Y-28634609D01*
X27656648Y-28841678D01*
X27702172Y-28882560D01*
X27715500Y-28932172D01*
X27715500Y-29028937D01*
X27729835Y-29101000D01*
X27753938Y-29222175D01*
X27754103Y-29223001D01*
X27754103Y-29223003D01*
X27829821Y-29405804D01*
X27829827Y-29405816D01*
X27908437Y-29523462D01*
X27939754Y-29570331D01*
X28079669Y-29710246D01*
X28144502Y-29753566D01*
X28244183Y-29820172D01*
X28244195Y-29820178D01*
X28282106Y-29835881D01*
X28426998Y-29895897D01*
X28621065Y-29934500D01*
X28621066Y-29934500D01*
X28818934Y-29934500D01*
X28818935Y-29934500D01*
X29013002Y-29895897D01*
X29195809Y-29820176D01*
X29195811Y-29820174D01*
X29195816Y-29820172D01*
X29295498Y-29753566D01*
X29354386Y-29736957D01*
X29411790Y-29758134D01*
X29445783Y-29809008D01*
X29449500Y-29835881D01*
X29449500Y-30564118D01*
X29430593Y-30622309D01*
X29381093Y-30658273D01*
X29319907Y-30658273D01*
X29295499Y-30646434D01*
X29195813Y-30579826D01*
X29195804Y-30579821D01*
X29013002Y-30504103D01*
X28818937Y-30465500D01*
X28818935Y-30465500D01*
X28621065Y-30465500D01*
X28621062Y-30465500D01*
X28426998Y-30504103D01*
X28426996Y-30504103D01*
X28244195Y-30579821D01*
X28244183Y-30579827D01*
X28079669Y-30689754D01*
X28079665Y-30689757D01*
X27939757Y-30829665D01*
X27939754Y-30829669D01*
X27829827Y-30994183D01*
X27829821Y-30994195D01*
X27754103Y-31176996D01*
X27754103Y-31176998D01*
X27715500Y-31371062D01*
X27715500Y-31568937D01*
X27754103Y-31763001D01*
X27754103Y-31763003D01*
X27829821Y-31945804D01*
X27829827Y-31945816D01*
X27896104Y-32045004D01*
X27923161Y-32085498D01*
X27939770Y-32144385D01*
X27918593Y-32201789D01*
X27867719Y-32235782D01*
X27840846Y-32239499D01*
X27505309Y-32239499D01*
X27471570Y-32233572D01*
X27194398Y-32133097D01*
X27146134Y-32095491D01*
X27139928Y-32084970D01*
X27134162Y-32073654D01*
X27128050Y-32061658D01*
X27111393Y-32045001D01*
X27083618Y-31990487D01*
X27093189Y-31930055D01*
X27111394Y-31904998D01*
X27128050Y-31888342D01*
X27185646Y-31775304D01*
X27200500Y-31681519D01*
X27200499Y-31318482D01*
X27185646Y-31224696D01*
X27128050Y-31111658D01*
X27111393Y-31095001D01*
X27083618Y-31040487D01*
X27093189Y-30980055D01*
X27111394Y-30954998D01*
X27128050Y-30938342D01*
X27185646Y-30825304D01*
X27200500Y-30731519D01*
X27200499Y-30368482D01*
X27198722Y-30357263D01*
X27185647Y-30274700D01*
X27185646Y-30274698D01*
X27185646Y-30274696D01*
X27128050Y-30161658D01*
X27038342Y-30071950D01*
X26925304Y-30014354D01*
X26925305Y-30014354D01*
X26831522Y-29999500D01*
X26831519Y-29999500D01*
X26737000Y-29999500D01*
X26678809Y-29980593D01*
X26642845Y-29931093D01*
X26638000Y-29900500D01*
X26638000Y-29553857D01*
X26638000Y-29553856D01*
X26614114Y-29464712D01*
X26567969Y-29384788D01*
X26502712Y-29319531D01*
X26486107Y-29309944D01*
X26422790Y-29273387D01*
X26422789Y-29273386D01*
X26422788Y-29273386D01*
X26333644Y-29249500D01*
X26333642Y-29249500D01*
X24187616Y-29249500D01*
X24129425Y-29230593D01*
X24093461Y-29181093D01*
X24093461Y-29119907D01*
X24101880Y-29101000D01*
X24152982Y-29012489D01*
X24152982Y-29012487D01*
X24152984Y-29012485D01*
X24190500Y-28872475D01*
X24190500Y-28727525D01*
X24152984Y-28587515D01*
X24152982Y-28587512D01*
X24152982Y-28587510D01*
X24080512Y-28461989D01*
X24080507Y-28461983D01*
X24069494Y-28450969D01*
X24041718Y-28396452D01*
X24040500Y-28380968D01*
X24040500Y-27547274D01*
X24040500Y-27547273D01*
X24013207Y-27445413D01*
X23998535Y-27420001D01*
X23960481Y-27354089D01*
X23960480Y-27354087D01*
X23885913Y-27279520D01*
X23809259Y-27235264D01*
X23794589Y-27226794D01*
X23794588Y-27226793D01*
X23794587Y-27226793D01*
X23692727Y-27199500D01*
X23692725Y-27199500D01*
X20999500Y-27199500D01*
X20941309Y-27180593D01*
X20905345Y-27131093D01*
X20900500Y-27100500D01*
X20900500Y-20806901D01*
X20919407Y-20748710D01*
X20929496Y-20736897D01*
X21336897Y-20329496D01*
X21391414Y-20301719D01*
X21406901Y-20300500D01*
X21566160Y-20300500D01*
X21615658Y-20313763D01*
G37*
G04 #@! TD.AperFunction*
G04 #@! TA.AperFunction,Conductor*
G36*
X31436738Y-26769407D02*
G01*
X31472702Y-26818907D01*
X31474166Y-26823852D01*
X31500945Y-26923791D01*
X31511220Y-26962139D01*
X31586981Y-27093360D01*
X31586983Y-27093362D01*
X31586985Y-27093365D01*
X31694135Y-27200515D01*
X31694137Y-27200516D01*
X31694139Y-27200518D01*
X31754320Y-27235264D01*
X31795261Y-27280734D01*
X31801657Y-27341584D01*
X31771064Y-27394572D01*
X31729362Y-27413138D01*
X31722500Y-27420001D01*
X31722500Y-27870001D01*
X31372500Y-27870001D01*
X31372500Y-27420001D01*
X31372499Y-27420000D01*
X30973628Y-27420000D01*
X30828735Y-27448821D01*
X30828729Y-27448823D01*
X30692239Y-27505359D01*
X30625812Y-27549744D01*
X30566924Y-27566352D01*
X30509521Y-27545173D01*
X30475529Y-27494299D01*
X30475185Y-27493051D01*
X30464078Y-27451601D01*
X30462984Y-27447515D01*
X30462983Y-27447513D01*
X30460501Y-27441521D01*
X30461665Y-27441038D01*
X30450500Y-27399365D01*
X30450500Y-26849500D01*
X30469407Y-26791309D01*
X30518907Y-26755345D01*
X30549500Y-26750500D01*
X31378547Y-26750500D01*
X31436738Y-26769407D01*
G37*
G04 #@! TD.AperFunction*
G04 #@! TA.AperFunction,Conductor*
G36*
X18908691Y-19669407D02*
G01*
X18944655Y-19718907D01*
X18949500Y-19749500D01*
X18949500Y-23360500D01*
X18930593Y-23418691D01*
X18881093Y-23454655D01*
X18850500Y-23459500D01*
X18175326Y-23459500D01*
X18175325Y-23459500D01*
X18175315Y-23459501D01*
X18102263Y-23474033D01*
X18102257Y-23474035D01*
X18019400Y-23529397D01*
X18019397Y-23529400D01*
X17964035Y-23612257D01*
X17964033Y-23612263D01*
X17949501Y-23685315D01*
X17949500Y-23685327D01*
X17949500Y-24014679D01*
X17962630Y-24080687D01*
X17962630Y-24119313D01*
X17949500Y-24185320D01*
X17949500Y-24514679D01*
X17962630Y-24580687D01*
X17962630Y-24619313D01*
X17949500Y-24685320D01*
X17949500Y-25014679D01*
X17962630Y-25080687D01*
X17962630Y-25119313D01*
X17949500Y-25185320D01*
X17949500Y-25514672D01*
X17949501Y-25514684D01*
X17964033Y-25587736D01*
X17964035Y-25587742D01*
X18019397Y-25670599D01*
X18019399Y-25670601D01*
X18102260Y-25725966D01*
X18157808Y-25737015D01*
X18175315Y-25740498D01*
X18175320Y-25740498D01*
X18175326Y-25740500D01*
X18175327Y-25740500D01*
X19024673Y-25740500D01*
X19024674Y-25740500D01*
X19024675Y-25740499D01*
X19024681Y-25740499D01*
X19047293Y-25736000D01*
X19071185Y-25731248D01*
X19131945Y-25738438D01*
X19176876Y-25779969D01*
X19189500Y-25828345D01*
X19189500Y-26040736D01*
X19203983Y-26132174D01*
X19203984Y-26132178D01*
X19240437Y-26203720D01*
X19260141Y-26242391D01*
X19347609Y-26329859D01*
X19457825Y-26386017D01*
X19549265Y-26400500D01*
X19950734Y-26400499D01*
X19950735Y-26400499D01*
X19965475Y-26398164D01*
X19985012Y-26395070D01*
X20045445Y-26404641D01*
X20088709Y-26447905D01*
X20099500Y-26492851D01*
X20099500Y-27100500D01*
X20080593Y-27158691D01*
X20031093Y-27194655D01*
X20000500Y-27199500D01*
X15376899Y-27199500D01*
X15318708Y-27180593D01*
X15306895Y-27170503D01*
X15179496Y-27043103D01*
X15151719Y-26988587D01*
X15150500Y-26973100D01*
X15150500Y-24839500D01*
X15169407Y-24781309D01*
X15218907Y-24745345D01*
X15249500Y-24740500D01*
X16024673Y-24740500D01*
X16024674Y-24740500D01*
X16097740Y-24725966D01*
X16180601Y-24670601D01*
X16235966Y-24587740D01*
X16250500Y-24514674D01*
X16250500Y-24185326D01*
X16235966Y-24112260D01*
X16180601Y-24029399D01*
X16180599Y-24029397D01*
X16097742Y-23974035D01*
X16097740Y-23974034D01*
X16097737Y-23974033D01*
X16097736Y-23974033D01*
X16024684Y-23959501D01*
X16024674Y-23959500D01*
X15249500Y-23959500D01*
X15191309Y-23940593D01*
X15155345Y-23891093D01*
X15150500Y-23860500D01*
X15150500Y-21799499D01*
X15169407Y-21741308D01*
X15218907Y-21705344D01*
X15249493Y-21700499D01*
X15650734Y-21700499D01*
X15650737Y-21700499D01*
X15677332Y-21696286D01*
X15742175Y-21686017D01*
X15754527Y-21679722D01*
X15814958Y-21670148D01*
X15869476Y-21697923D01*
X15897256Y-21752438D01*
X15887688Y-21812871D01*
X15885213Y-21817429D01*
X15833609Y-21906810D01*
X15828643Y-21925342D01*
X15799500Y-22034108D01*
X15799500Y-22165892D01*
X15819883Y-22241964D01*
X15833609Y-22293190D01*
X15899496Y-22407309D01*
X15899498Y-22407311D01*
X15899500Y-22407314D01*
X15964815Y-22472629D01*
X15992591Y-22527144D01*
X15983020Y-22587576D01*
X15977128Y-22597628D01*
X15974036Y-22602255D01*
X15974033Y-22602263D01*
X15959501Y-22675315D01*
X15959500Y-22675327D01*
X15959500Y-23524672D01*
X15959501Y-23524684D01*
X15974033Y-23597736D01*
X15974035Y-23597742D01*
X16029397Y-23680599D01*
X16029400Y-23680602D01*
X16094351Y-23724000D01*
X16112260Y-23735966D01*
X16167808Y-23747015D01*
X16185315Y-23750498D01*
X16185320Y-23750498D01*
X16185326Y-23750500D01*
X16185327Y-23750500D01*
X16514673Y-23750500D01*
X16514674Y-23750500D01*
X16514675Y-23750499D01*
X16514681Y-23750499D01*
X16542116Y-23745041D01*
X16580687Y-23737369D01*
X16619313Y-23737369D01*
X16651171Y-23743706D01*
X16685318Y-23750499D01*
X16685324Y-23750499D01*
X16685326Y-23750500D01*
X16685327Y-23750500D01*
X17014673Y-23750500D01*
X17014674Y-23750500D01*
X17014675Y-23750499D01*
X17014681Y-23750499D01*
X17042116Y-23745041D01*
X17080687Y-23737369D01*
X17119313Y-23737369D01*
X17151171Y-23743706D01*
X17185318Y-23750499D01*
X17185324Y-23750499D01*
X17185326Y-23750500D01*
X17185327Y-23750500D01*
X17514673Y-23750500D01*
X17514674Y-23750500D01*
X17587740Y-23735966D01*
X17670601Y-23680601D01*
X17725966Y-23597740D01*
X17740500Y-23524674D01*
X17740500Y-22700615D01*
X17759407Y-22642424D01*
X17781459Y-22620414D01*
X18233627Y-22293186D01*
X18296757Y-22247499D01*
X18305282Y-22241975D01*
X18325212Y-22230469D01*
X18332522Y-22223157D01*
X18344485Y-22212959D01*
X18352869Y-22206893D01*
X18367395Y-22189021D01*
X18374194Y-22181486D01*
X18390469Y-22165212D01*
X18395642Y-22156250D01*
X18404554Y-22143310D01*
X18411082Y-22135281D01*
X18420482Y-22114272D01*
X18425110Y-22105211D01*
X18436614Y-22085288D01*
X18439290Y-22075298D01*
X18444553Y-22060479D01*
X18448777Y-22051041D01*
X18452420Y-22028310D01*
X18454538Y-22018393D01*
X18460500Y-21996144D01*
X18460500Y-21985792D01*
X18461748Y-21970122D01*
X18463384Y-21959917D01*
X18462858Y-21954816D01*
X18461023Y-21937037D01*
X18460500Y-21926875D01*
X18460500Y-21755685D01*
X18479407Y-21697494D01*
X18489490Y-21685687D01*
X18563076Y-21612102D01*
X18619582Y-21496518D01*
X18630500Y-21421582D01*
X18630500Y-20978418D01*
X18619582Y-20903482D01*
X18563076Y-20787898D01*
X18489494Y-20714316D01*
X18461719Y-20659802D01*
X18460500Y-20644315D01*
X18460500Y-20053857D01*
X18456617Y-20039365D01*
X18436614Y-19964712D01*
X18390469Y-19884788D01*
X18325212Y-19819531D01*
X18325209Y-19819529D01*
X18325184Y-19819504D01*
X18297407Y-19764987D01*
X18306978Y-19704555D01*
X18350243Y-19661290D01*
X18395188Y-19650500D01*
X18850500Y-19650500D01*
X18908691Y-19669407D01*
G37*
G04 #@! TD.AperFunction*
G04 #@! TA.AperFunction,Conductor*
G36*
X27678831Y-18819407D02*
G01*
X27714795Y-18868907D01*
X27717738Y-18880186D01*
X27754102Y-19062999D01*
X27754103Y-19063001D01*
X27754103Y-19063003D01*
X27829821Y-19245804D01*
X27829827Y-19245816D01*
X27874375Y-19312485D01*
X27939754Y-19410331D01*
X28079669Y-19550246D01*
X28143185Y-19592686D01*
X28244183Y-19660172D01*
X28244195Y-19660178D01*
X28301688Y-19683992D01*
X28426998Y-19735897D01*
X28621065Y-19774500D01*
X28621066Y-19774500D01*
X28818934Y-19774500D01*
X28818935Y-19774500D01*
X29013002Y-19735897D01*
X29195809Y-19660176D01*
X29195814Y-19660172D01*
X29200103Y-19657881D01*
X29200663Y-19658930D01*
X29254374Y-19643775D01*
X29311780Y-19664945D01*
X29345780Y-19715814D01*
X29349500Y-19742699D01*
X29349500Y-19772475D01*
X29387016Y-19912485D01*
X29387018Y-19912490D01*
X29389500Y-19918480D01*
X29388333Y-19918963D01*
X29399500Y-19960634D01*
X29399500Y-20039365D01*
X29388334Y-20081038D01*
X29389499Y-20081521D01*
X29387016Y-20087513D01*
X29349500Y-20227525D01*
X29349500Y-20337300D01*
X29330593Y-20395491D01*
X29281093Y-20431455D01*
X29219907Y-20431455D01*
X29200217Y-20421905D01*
X29200103Y-20422119D01*
X29195804Y-20419821D01*
X29013002Y-20344103D01*
X28818937Y-20305500D01*
X28818935Y-20305500D01*
X28621065Y-20305500D01*
X28621062Y-20305500D01*
X28426998Y-20344103D01*
X28426996Y-20344103D01*
X28244195Y-20419821D01*
X28244183Y-20419827D01*
X28079669Y-20529754D01*
X28079665Y-20529757D01*
X27939757Y-20669665D01*
X27939754Y-20669669D01*
X27829827Y-20834183D01*
X27829821Y-20834195D01*
X27754103Y-21016996D01*
X27754103Y-21016998D01*
X27715500Y-21211062D01*
X27715500Y-21408937D01*
X27732921Y-21496517D01*
X27753406Y-21599500D01*
X27754103Y-21603001D01*
X27754103Y-21603003D01*
X27829821Y-21785804D01*
X27829827Y-21785816D01*
X27886671Y-21870887D01*
X27939754Y-21950331D01*
X28079669Y-22090246D01*
X28147067Y-22135280D01*
X28244183Y-22200172D01*
X28244195Y-22200178D01*
X28286210Y-22217581D01*
X28426998Y-22275897D01*
X28621065Y-22314500D01*
X28621066Y-22314500D01*
X28804226Y-22314500D01*
X28862417Y-22333407D01*
X28889962Y-22363999D01*
X28893201Y-22369609D01*
X28894600Y-22372116D01*
X28913407Y-22406989D01*
X28916402Y-22411135D01*
X28919527Y-22415207D01*
X28919530Y-22415212D01*
X28919534Y-22415216D01*
X28947576Y-22443259D01*
X28949574Y-22445316D01*
X28976748Y-22474113D01*
X28981780Y-22478211D01*
X28981355Y-22478731D01*
X28989322Y-22485004D01*
X29301949Y-22797631D01*
X29329726Y-22852148D01*
X29320155Y-22912580D01*
X29276890Y-22955845D01*
X29216458Y-22965416D01*
X29194060Y-22959099D01*
X29013002Y-22884103D01*
X28818937Y-22845500D01*
X28818935Y-22845500D01*
X28621065Y-22845500D01*
X28621062Y-22845500D01*
X28426998Y-22884103D01*
X28426996Y-22884103D01*
X28244195Y-22959821D01*
X28244183Y-22959827D01*
X28079669Y-23069754D01*
X28079665Y-23069757D01*
X27939757Y-23209665D01*
X27939754Y-23209669D01*
X27829827Y-23374183D01*
X27829821Y-23374195D01*
X27754103Y-23556996D01*
X27754103Y-23556998D01*
X27715500Y-23751062D01*
X27715500Y-23948937D01*
X27754103Y-24143001D01*
X27754103Y-24143003D01*
X27829821Y-24325804D01*
X27829827Y-24325816D01*
X27908437Y-24443462D01*
X27939754Y-24490331D01*
X28079669Y-24630246D01*
X28140062Y-24670599D01*
X28244183Y-24740172D01*
X28244195Y-24740178D01*
X28311722Y-24768148D01*
X28426998Y-24815897D01*
X28621065Y-24854500D01*
X28621066Y-24854500D01*
X28818934Y-24854500D01*
X28818935Y-24854500D01*
X29013002Y-24815897D01*
X29195809Y-24740176D01*
X29282001Y-24682583D01*
X29340887Y-24665975D01*
X29391913Y-24682525D01*
X29651855Y-24855819D01*
X29668547Y-24866947D01*
X29683628Y-24879310D01*
X29684786Y-24880468D01*
X29712196Y-24896294D01*
X29717609Y-24899656D01*
X29743968Y-24917228D01*
X29743971Y-24917230D01*
X29745518Y-24917753D01*
X29763293Y-24925795D01*
X29764712Y-24926614D01*
X29795317Y-24934813D01*
X29801390Y-24936653D01*
X29831393Y-24946803D01*
X29833014Y-24946907D01*
X29852277Y-24950076D01*
X29853856Y-24950500D01*
X29885533Y-24950500D01*
X29891902Y-24950704D01*
X29923491Y-24952742D01*
X29925086Y-24952422D01*
X29944503Y-24950500D01*
X30088000Y-24950500D01*
X30146191Y-24969407D01*
X30182155Y-25018907D01*
X30187000Y-25049500D01*
X30187000Y-25274676D01*
X30203141Y-25355819D01*
X30203141Y-25394444D01*
X30197001Y-25425316D01*
X30197000Y-25425328D01*
X30197000Y-25650500D01*
X30178093Y-25708691D01*
X30128593Y-25744655D01*
X30098000Y-25749500D01*
X30015892Y-25749500D01*
X29884108Y-25749500D01*
X29806200Y-25770375D01*
X29756809Y-25783609D01*
X29668335Y-25834691D01*
X29608487Y-25847413D01*
X29552591Y-25822527D01*
X29536520Y-25803957D01*
X29522923Y-25783608D01*
X29500246Y-25749669D01*
X29360331Y-25609754D01*
X29285742Y-25559915D01*
X29195816Y-25499827D01*
X29195804Y-25499821D01*
X29013002Y-25424103D01*
X28818937Y-25385500D01*
X28818935Y-25385500D01*
X28621065Y-25385500D01*
X28621062Y-25385500D01*
X28426996Y-25424103D01*
X28426990Y-25424105D01*
X28412296Y-25430191D01*
X28351299Y-25434988D01*
X28304411Y-25408729D01*
X27976369Y-25080687D01*
X27615212Y-24719530D01*
X27535288Y-24673386D01*
X27524894Y-24670601D01*
X27524890Y-24670599D01*
X27474965Y-24657222D01*
X27446144Y-24649500D01*
X27446142Y-24649500D01*
X25386190Y-24649500D01*
X25327999Y-24630593D01*
X25316186Y-24620504D01*
X24479496Y-23783814D01*
X24451719Y-23729297D01*
X24450500Y-23713810D01*
X24450500Y-23097042D01*
X24469407Y-23038851D01*
X24518907Y-23002887D01*
X24580093Y-23002887D01*
X24629591Y-23038849D01*
X24629593Y-23038852D01*
X24652046Y-23069757D01*
X24681345Y-23110083D01*
X24853917Y-23282655D01*
X24988477Y-23380418D01*
X25051362Y-23426107D01*
X25145423Y-23474033D01*
X25268815Y-23536904D01*
X25500924Y-23612321D01*
X25500925Y-23612321D01*
X25500928Y-23612322D01*
X25741970Y-23650500D01*
X25741973Y-23650500D01*
X25986030Y-23650500D01*
X26227071Y-23612322D01*
X26227072Y-23612321D01*
X26227076Y-23612321D01*
X26459185Y-23536904D01*
X26676639Y-23426106D01*
X26874083Y-23282655D01*
X27046655Y-23110083D01*
X27190106Y-22912639D01*
X27300904Y-22695185D01*
X27376321Y-22463076D01*
X27376322Y-22463071D01*
X27414500Y-22222030D01*
X27414500Y-21977969D01*
X27376322Y-21736928D01*
X27376321Y-21736924D01*
X27300904Y-21504815D01*
X27194772Y-21296518D01*
X27190107Y-21287362D01*
X27124536Y-21197112D01*
X27046655Y-21089917D01*
X26874083Y-20917345D01*
X26780725Y-20849517D01*
X26676637Y-20773892D01*
X26459185Y-20663096D01*
X26227071Y-20587677D01*
X25986030Y-20549500D01*
X25986027Y-20549500D01*
X25741973Y-20549500D01*
X25741970Y-20549500D01*
X25500928Y-20587677D01*
X25268814Y-20663096D01*
X25051362Y-20773892D01*
X24853918Y-20917344D01*
X24681344Y-21089918D01*
X24629593Y-21161148D01*
X24580093Y-21197112D01*
X24518907Y-21197112D01*
X24469407Y-21161148D01*
X24450500Y-21102957D01*
X24450500Y-20146189D01*
X24469407Y-20087998D01*
X24479490Y-20076191D01*
X24740470Y-19815212D01*
X24786614Y-19735288D01*
X24789135Y-19725877D01*
X24793503Y-19709580D01*
X24794862Y-19704505D01*
X24796848Y-19697091D01*
X24822471Y-19652706D01*
X24913076Y-19562102D01*
X24969582Y-19446518D01*
X24980500Y-19371582D01*
X24980500Y-18928418D01*
X24978366Y-18913771D01*
X24988687Y-18853463D01*
X25032485Y-18810739D01*
X25076332Y-18800500D01*
X27620640Y-18800500D01*
X27678831Y-18819407D01*
G37*
G04 #@! TD.AperFunction*
G04 #@! TA.AperFunction,Conductor*
G36*
X31722500Y-20279999D02*
G01*
X31731010Y-20288509D01*
X31763011Y-20298907D01*
X31798975Y-20348407D01*
X31798975Y-20409593D01*
X31763011Y-20459093D01*
X31754320Y-20464736D01*
X31694139Y-20499481D01*
X31586981Y-20606639D01*
X31511220Y-20737860D01*
X31511219Y-20737865D01*
X31474172Y-20876124D01*
X31440850Y-20927437D01*
X31383729Y-20949364D01*
X31378547Y-20949500D01*
X30576382Y-20949500D01*
X30518191Y-20930593D01*
X30482227Y-20881093D01*
X30478214Y-20863305D01*
X30474415Y-20834183D01*
X30428619Y-20483074D01*
X30431160Y-20444647D01*
X30450500Y-20372475D01*
X30450500Y-20227525D01*
X30450500Y-20221036D01*
X30452804Y-20221036D01*
X30462100Y-20170841D01*
X30506477Y-20128719D01*
X30567138Y-20120724D01*
X30604110Y-20135753D01*
X30692242Y-20194641D01*
X30828729Y-20251176D01*
X30828735Y-20251178D01*
X30973628Y-20279999D01*
X30973632Y-20280000D01*
X31372499Y-20280000D01*
X31372500Y-20279999D01*
X31372500Y-19829999D01*
X31722500Y-19829999D01*
X31722500Y-20279999D01*
G37*
G04 #@! TD.AperFunction*
G04 #@! TD*
M02*
