G04 #@! TF.GenerationSoftware,KiCad,Pcbnew,10.0.6*
G04 #@! TF.CreationDate,2026-10-03T23:19:28+01:00*
G04 #@! TF.ProjectId,lock-picking,6c6f636b-2d70-4696-936b-696e672e6b69,v2*
G04 #@! TF.SameCoordinates,Original*
G04 #@! TF.FileFunction,Legend,Bot*
G04 #@! TF.FilePolarity,Positive*
%FSLAX46Y46*%
G04 Gerber Fmt 4.6, Leading zero omitted, Abs format (unit mm)*
G04 Created by KiCad (PCBNEW 10.0.6) date 2026-10-03 23:19:28*
%MOMM*%
%LPD*%
G01*
G04 APERTURE LIST*
G04 Aperture macros list*
%AMRoundRect*
0 Rectangle with rounded corners*
0 $1 Rounding radius*
0 $2 $3 $4 $5 $6 $7 $8 $9 X,Y pos of 4 corners*
0 Add a 4 corners polygon primitive as box body*
4,1,4,$2,$3,$4,$5,$6,$7,$8,$9,$2,$3,0*
0 Add four circle primitives for the rounded corners*
1,1,$1+$1,$2,$3*
1,1,$1+$1,$4,$5*
1,1,$1+$1,$6,$7*
1,1,$1+$1,$8,$9*
0 Add four rect primitives between the rounded corners*
20,1,$1+$1,$2,$3,$4,$5,0*
20,1,$1+$1,$4,$5,$6,$7,0*
20,1,$1+$1,$6,$7,$8,$9,0*
20,1,$1+$1,$8,$9,$2,$3,0*%
%AMFreePoly0*
4,1,14,0.885366,0.885366,0.900011,0.850011,0.900011,-0.850011,0.885366,-0.885366,0.850011,-0.900011,-0.850011,-0.900011,-0.885366,-0.885366,-0.900011,-0.850011,-0.900011,0.499999,-0.885366,0.535354,-0.535354,0.885366,-0.499999,0.900011,0.850011,0.900011,0.885366,0.885366,0.885366,0.885366,$1*%
G04 Aperture macros list end*
%ADD10C,0.150000*%
%ADD11C,0.120000*%
%ADD12C,0.250000*%
%ADD13C,0.060000*%
%ADD14C,0.100000*%
%ADD15R,1.500000X1.400000*%
%ADD16C,1.400000*%
%ADD17C,4.200000*%
%ADD18C,1.712000*%
%ADD19RoundRect,0.102000X0.754000X0.754000X-0.754000X0.754000X-0.754000X-0.754000X0.754000X-0.754000X0*%
%ADD20C,1.000000*%
%ADD21RoundRect,0.062500X0.062500X-0.350000X0.062500X0.350000X-0.062500X0.350000X-0.062500X-0.350000X0*%
%ADD22RoundRect,0.062500X0.350000X-0.062500X0.350000X0.062500X-0.350000X0.062500X-0.350000X-0.062500X0*%
%ADD23R,1.680000X1.680000*%
%ADD24C,0.650000*%
%ADD25O,2.000000X1.000000*%
%ADD26O,1.800000X1.000000*%
%ADD27R,1.100000X0.300000*%
%ADD28R,1.100000X0.500000*%
%ADD29RoundRect,0.140000X0.140000X0.170000X-0.140000X0.170000X-0.140000X-0.170000X0.140000X-0.170000X0*%
%ADD30RoundRect,0.237500X0.237500X1.012500X-0.237500X1.012500X-0.237500X-1.012500X0.237500X-1.012500X0*%
%ADD31RoundRect,0.150000X0.512500X0.150000X-0.512500X0.150000X-0.512500X-0.150000X0.512500X-0.150000X0*%
%ADD32RoundRect,0.135000X0.135000X0.185000X-0.135000X0.185000X-0.135000X-0.185000X0.135000X-0.185000X0*%
%ADD33RoundRect,0.140000X-0.140000X-0.170000X0.140000X-0.170000X0.140000X0.170000X-0.140000X0.170000X0*%
%ADD34RoundRect,0.140000X-0.170000X0.140000X-0.170000X-0.140000X0.170000X-0.140000X0.170000X0.140000X0*%
%ADD35RoundRect,0.140000X0.170000X-0.140000X0.170000X0.140000X-0.170000X0.140000X-0.170000X-0.140000X0*%
%ADD36R,0.280000X0.800000*%
%ADD37R,0.800000X0.280000*%
%ADD38FreePoly0,0.000000*%
%ADD39RoundRect,0.250000X-0.250000X-0.475000X0.250000X-0.475000X0.250000X0.475000X-0.250000X0.475000X0*%
%ADD40RoundRect,0.135000X-0.185000X0.135000X-0.185000X-0.135000X0.185000X-0.135000X0.185000X0.135000X0*%
%ADD41RoundRect,0.250000X0.250000X0.475000X-0.250000X0.475000X-0.250000X-0.475000X0.250000X-0.475000X0*%
%ADD42RoundRect,0.112500X-0.187500X-0.112500X0.187500X-0.112500X0.187500X0.112500X-0.187500X0.112500X0*%
%ADD43RoundRect,0.250000X0.325000X0.650000X-0.325000X0.650000X-0.325000X-0.650000X0.325000X-0.650000X0*%
G04 APERTURE END LIST*
D10*
X18269523Y-27350390D02*
X18345713Y-27312295D01*
X18345713Y-27312295D02*
X18459999Y-27312295D01*
X18459999Y-27312295D02*
X18574285Y-27350390D01*
X18574285Y-27350390D02*
X18650475Y-27426580D01*
X18650475Y-27426580D02*
X18688570Y-27502771D01*
X18688570Y-27502771D02*
X18726666Y-27655152D01*
X18726666Y-27655152D02*
X18726666Y-27769438D01*
X18726666Y-27769438D02*
X18688570Y-27921819D01*
X18688570Y-27921819D02*
X18650475Y-27998009D01*
X18650475Y-27998009D02*
X18574285Y-28074200D01*
X18574285Y-28074200D02*
X18459999Y-28112295D01*
X18459999Y-28112295D02*
X18383808Y-28112295D01*
X18383808Y-28112295D02*
X18269523Y-28074200D01*
X18269523Y-28074200D02*
X18231427Y-28036104D01*
X18231427Y-28036104D02*
X18231427Y-27769438D01*
X18231427Y-27769438D02*
X18383808Y-27769438D01*
X17888570Y-28112295D02*
X17888570Y-27312295D01*
X17888570Y-27312295D02*
X17431427Y-28112295D01*
X17431427Y-28112295D02*
X17431427Y-27312295D01*
X17050475Y-28112295D02*
X17050475Y-27312295D01*
X17050475Y-27312295D02*
X16859999Y-27312295D01*
X16859999Y-27312295D02*
X16745713Y-27350390D01*
X16745713Y-27350390D02*
X16669523Y-27426580D01*
X16669523Y-27426580D02*
X16631428Y-27502771D01*
X16631428Y-27502771D02*
X16593332Y-27655152D01*
X16593332Y-27655152D02*
X16593332Y-27769438D01*
X16593332Y-27769438D02*
X16631428Y-27921819D01*
X16631428Y-27921819D02*
X16669523Y-27998009D01*
X16669523Y-27998009D02*
X16745713Y-28074200D01*
X16745713Y-28074200D02*
X16859999Y-28112295D01*
X16859999Y-28112295D02*
X17050475Y-28112295D01*
X20352380Y-27312295D02*
X20733332Y-27312295D01*
X20733332Y-27312295D02*
X20771428Y-27693247D01*
X20771428Y-27693247D02*
X20733332Y-27655152D01*
X20733332Y-27655152D02*
X20657142Y-27617057D01*
X20657142Y-27617057D02*
X20466666Y-27617057D01*
X20466666Y-27617057D02*
X20390475Y-27655152D01*
X20390475Y-27655152D02*
X20352380Y-27693247D01*
X20352380Y-27693247D02*
X20314285Y-27769438D01*
X20314285Y-27769438D02*
X20314285Y-27959914D01*
X20314285Y-27959914D02*
X20352380Y-28036104D01*
X20352380Y-28036104D02*
X20390475Y-28074200D01*
X20390475Y-28074200D02*
X20466666Y-28112295D01*
X20466666Y-28112295D02*
X20657142Y-28112295D01*
X20657142Y-28112295D02*
X20733332Y-28074200D01*
X20733332Y-28074200D02*
X20771428Y-28036104D01*
X20085713Y-27312295D02*
X19819046Y-28112295D01*
X19819046Y-28112295D02*
X19552380Y-27312295D01*
G04 #@! TO.C,TP10*
D11*
X20900000Y-28950000D02*
G75*
G02*
X19500000Y-28950000I-700000J0D01*
G01*
X19500000Y-28950000D02*
G75*
G02*
X20900000Y-28950000I700000J0D01*
G01*
G04 #@! TO.C,U2*
X22340000Y-14690000D02*
X22340000Y-15165000D01*
X22340000Y-17435000D02*
X22340000Y-17910000D01*
X22340000Y-17910000D02*
X22815000Y-17910000D01*
X22815000Y-14690000D02*
X22340000Y-14690000D01*
X25085000Y-17910000D02*
X25560000Y-17910000D01*
X25560000Y-14690000D02*
X25085000Y-14690000D01*
X25560000Y-15165000D02*
X25560000Y-14690000D01*
X25560000Y-17910000D02*
X25560000Y-17435000D01*
X24700000Y-18440000D02*
X24460000Y-18770000D01*
X24940000Y-18770000D01*
X24700000Y-18440000D01*
G36*
X24940000Y-18770000D02*
G01*
X24460000Y-18770000D01*
X24700000Y-18440000D01*
X24940000Y-18770000D01*
G37*
G04 #@! TO.C,J1*
D12*
X32727500Y-19280000D02*
X34657500Y-19280000D01*
X34657500Y-28420000D02*
X32727500Y-28420000D01*
X36827500Y-19280000D02*
X38437500Y-19280000D01*
X38437500Y-19280000D02*
X38437500Y-28420000D01*
X38437500Y-28420000D02*
X36827500Y-28420000D01*
D13*
X30657500Y-19380000D02*
G75*
G02*
X30597500Y-19380000I-30000J0D01*
G01*
X30597500Y-19380000D02*
G75*
G02*
X30657500Y-19380000I30000J0D01*
G01*
G04 #@! TO.C,C5*
D11*
X21407836Y-13090000D02*
X21192164Y-13090000D01*
X21407836Y-13810000D02*
X21192164Y-13810000D01*
G04 #@! TO.C,L1*
X18790000Y-33010000D02*
X21510000Y-33010000D01*
X21510000Y-29990000D02*
X18790000Y-29990000D01*
G04 #@! TO.C,U4*
X24240000Y-29940000D02*
X24240000Y-29990000D01*
X24240000Y-33010000D02*
X24240000Y-33060000D01*
X24240000Y-33060000D02*
X26060000Y-33060000D01*
X26060000Y-29940000D02*
X24240000Y-29940000D01*
X26060000Y-29990000D02*
X26060000Y-29940000D01*
X26060000Y-33060000D02*
X26060000Y-33010000D01*
X26600000Y-29990000D02*
X26840000Y-29660000D01*
X26360000Y-29660000D01*
X26600000Y-29990000D01*
G36*
X26600000Y-29990000D02*
G01*
X26360000Y-29660000D01*
X26840000Y-29660000D01*
X26600000Y-29990000D01*
G37*
G04 #@! TO.C,R4*
X17753641Y-20820000D02*
X17446359Y-20820000D01*
X17753641Y-21580000D02*
X17446359Y-21580000D01*
G04 #@! TO.C,R2*
X24103641Y-18770000D02*
X23796359Y-18770000D01*
X24103641Y-19530000D02*
X23796359Y-19530000D01*
G04 #@! TO.C,C7*
X23357836Y-13090000D02*
X23142164Y-13090000D01*
X23357836Y-13810000D02*
X23142164Y-13810000D01*
G04 #@! TO.C,C11*
X15542164Y-28570000D02*
X15757836Y-28570000D01*
X15542164Y-29290000D02*
X15757836Y-29290000D01*
G04 #@! TO.C,C9*
X15090000Y-21542164D02*
X15090000Y-21757836D01*
X15810000Y-21542164D02*
X15810000Y-21757836D01*
G04 #@! TO.C,C2*
X22140000Y-31132836D02*
X22140000Y-30917164D01*
X22860000Y-31132836D02*
X22860000Y-30917164D01*
G04 #@! TO.C,U3*
D14*
X15600000Y-23100000D02*
X16060000Y-23100000D01*
X15600000Y-23560000D02*
X15600000Y-23100000D01*
X15600000Y-26100000D02*
X15600000Y-25640000D01*
X15600000Y-26100000D02*
X16060000Y-26100000D01*
X18140000Y-23100000D02*
X18600000Y-23100000D01*
X18140000Y-26100000D02*
X18600000Y-26100000D01*
X18600000Y-23100000D02*
X18600000Y-23560000D01*
X18600000Y-25640000D02*
X18600000Y-26100000D01*
D12*
X15847483Y-22859678D02*
G75*
G02*
X15850000Y-22860000I2517J9678D01*
G01*
D13*
X15630000Y-23100000D02*
G75*
G02*
X15570000Y-23100000I-30000J0D01*
G01*
X15570000Y-23100000D02*
G75*
G02*
X15630000Y-23100000I30000J0D01*
G01*
G04 #@! TO.C,C3*
D11*
X20488748Y-33715000D02*
X21011252Y-33715000D01*
X20488748Y-35185000D02*
X21011252Y-35185000D01*
G04 #@! TO.C,R3*
X19370000Y-24246359D02*
X19370000Y-24553641D01*
X20130000Y-24246359D02*
X20130000Y-24553641D01*
G04 #@! TO.C,C12*
X22107836Y-21690000D02*
X21892164Y-21690000D01*
X22107836Y-22410000D02*
X21892164Y-22410000D01*
G04 #@! TO.C,R1*
X22153641Y-20620000D02*
X21846359Y-20620000D01*
X22153641Y-21380000D02*
X21846359Y-21380000D01*
G04 #@! TO.C,C4*
X17411252Y-33715000D02*
X16888748Y-33715000D01*
X17411252Y-35185000D02*
X16888748Y-35185000D01*
G04 #@! TO.C,TP11*
X18360000Y-28950000D02*
G75*
G02*
X16960000Y-28950000I-700000J0D01*
G01*
X16960000Y-28950000D02*
G75*
G02*
X18360000Y-28950000I700000J0D01*
G01*
G04 #@! TO.C,C10*
X19390000Y-26242164D02*
X19390000Y-26457836D01*
X20110000Y-26242164D02*
X20110000Y-26457836D01*
G04 #@! TO.C,D1*
X14690000Y-31550000D02*
X17350000Y-31550000D01*
X14690000Y-33250000D02*
X14690000Y-31550000D01*
X14690000Y-33250000D02*
X17350000Y-33250000D01*
G04 #@! TO.C,C6*
X18611252Y-12590000D02*
X17188748Y-12590000D01*
X18611252Y-14410000D02*
X17188748Y-14410000D01*
G04 #@! TO.C,C1*
X25411252Y-33615000D02*
X24888748Y-33615000D01*
X25411252Y-35085000D02*
X24888748Y-35085000D01*
G04 #@! TO.C,C8*
X25092164Y-13090000D02*
X25307836Y-13090000D01*
X25092164Y-13810000D02*
X25307836Y-13810000D01*
G04 #@! TD*
%LPC*%
D15*
G04 #@! TO.C,J2*
X20250000Y-17290000D03*
D16*
X18250000Y-17290000D03*
G04 #@! TD*
D17*
G04 #@! TO.C,H1*
X33299999Y-15350000D03*
G04 #@! TD*
G04 #@! TO.C,H2*
X33299999Y-32350000D03*
G04 #@! TD*
D18*
G04 #@! TO.C,U1*
X28720000Y-28930000D03*
X28720000Y-26390000D03*
X28720000Y-23850000D03*
X13480000Y-28930000D03*
X28720000Y-21310000D03*
X28720000Y-18770000D03*
D19*
X13480000Y-34010000D03*
D18*
X28720000Y-16230000D03*
X28720000Y-13690000D03*
X13480000Y-13690000D03*
X13480000Y-16230000D03*
X13480000Y-18770000D03*
X13480000Y-21310000D03*
X13480000Y-23850000D03*
X13480000Y-26350000D03*
X13480000Y-31470000D03*
X28720000Y-31470000D03*
X28720000Y-34010000D03*
G04 #@! TD*
D20*
G04 #@! TO.C,TP10*
X20200000Y-28950000D03*
G04 #@! TD*
D21*
G04 #@! TO.C,U2*
X24700000Y-17762500D03*
X24200000Y-17762500D03*
X23700000Y-17762500D03*
X23200000Y-17762500D03*
D22*
X22487500Y-17050000D03*
X22487500Y-16550000D03*
X22487500Y-16050000D03*
X22487500Y-15550000D03*
D21*
X23200000Y-14837500D03*
X23700000Y-14837500D03*
X24200000Y-14837500D03*
X24700000Y-14837500D03*
D22*
X25412500Y-15550000D03*
X25412500Y-16050000D03*
X25412500Y-16550000D03*
X25412500Y-17050000D03*
D23*
X23950000Y-16300000D03*
G04 #@! TD*
D24*
G04 #@! TO.C,J1*
X32047500Y-20960000D03*
X32047500Y-26740000D03*
D25*
X31547500Y-19530000D03*
D26*
X35747500Y-19530000D03*
X35747500Y-28170000D03*
D25*
X31547500Y-28170000D03*
D27*
X30997500Y-22600000D03*
X30997500Y-23600000D03*
X30997500Y-24100000D03*
X30987500Y-25100000D03*
D28*
X30997500Y-26250000D03*
X30997500Y-27050000D03*
D27*
X30997500Y-25600000D03*
X30997500Y-24600000D03*
X30997500Y-23100000D03*
X30987500Y-22100000D03*
D28*
X30997500Y-21450000D03*
X30997500Y-20650000D03*
G04 #@! TD*
D29*
G04 #@! TO.C,C5*
X21780000Y-13450000D03*
X20820000Y-13450000D03*
G04 #@! TD*
D30*
G04 #@! TO.C,L1*
X20975000Y-31500000D03*
X19325000Y-31500000D03*
G04 #@! TD*
D31*
G04 #@! TO.C,U4*
X26287500Y-30550000D03*
X26287500Y-31500000D03*
X26287500Y-32450000D03*
X24012500Y-32450000D03*
X24012500Y-31500000D03*
X24012500Y-30550000D03*
G04 #@! TD*
D32*
G04 #@! TO.C,R4*
X18110000Y-21200000D03*
X17090000Y-21200000D03*
G04 #@! TD*
G04 #@! TO.C,R2*
X24460000Y-19150000D03*
X23440000Y-19150000D03*
G04 #@! TD*
D29*
G04 #@! TO.C,C7*
X23730000Y-13450000D03*
X22770000Y-13450000D03*
G04 #@! TD*
D33*
G04 #@! TO.C,C11*
X15170000Y-28930000D03*
X16130000Y-28930000D03*
G04 #@! TD*
D34*
G04 #@! TO.C,C9*
X15450000Y-21170000D03*
X15450000Y-22130000D03*
G04 #@! TD*
D35*
G04 #@! TO.C,C2*
X22500000Y-31505000D03*
X22500000Y-30545000D03*
G04 #@! TD*
D36*
G04 #@! TO.C,U3*
X16350000Y-23100000D03*
X16850000Y-23100000D03*
X17350000Y-23100000D03*
X17850000Y-23100000D03*
D37*
X18600000Y-23850000D03*
X18600000Y-24350000D03*
X18600000Y-24850000D03*
X18600000Y-25350000D03*
D36*
X17850000Y-26100000D03*
X17350000Y-26100000D03*
X16850000Y-26100000D03*
X16350000Y-26100000D03*
D37*
X15600000Y-25350000D03*
X15600000Y-24850000D03*
X15600000Y-24350000D03*
X15600000Y-23850000D03*
D38*
X17100000Y-24600000D03*
G04 #@! TD*
D39*
G04 #@! TO.C,C3*
X19800000Y-34450000D03*
X21700000Y-34450000D03*
G04 #@! TD*
D40*
G04 #@! TO.C,R3*
X19750000Y-23890000D03*
X19750000Y-24910000D03*
G04 #@! TD*
D29*
G04 #@! TO.C,C12*
X22480000Y-22050000D03*
X21520000Y-22050000D03*
G04 #@! TD*
D32*
G04 #@! TO.C,R1*
X22510000Y-21000000D03*
X21490000Y-21000000D03*
G04 #@! TD*
D41*
G04 #@! TO.C,C4*
X18100000Y-34450000D03*
X16200000Y-34450000D03*
G04 #@! TD*
D20*
G04 #@! TO.C,TP11*
X17660000Y-28950000D03*
G04 #@! TD*
D34*
G04 #@! TO.C,C10*
X19750000Y-25870000D03*
X19750000Y-26830000D03*
G04 #@! TD*
D42*
G04 #@! TO.C,D1*
X15250000Y-32400000D03*
X17350000Y-32400000D03*
G04 #@! TD*
D43*
G04 #@! TO.C,C6*
X19375000Y-13500000D03*
X16425000Y-13500000D03*
G04 #@! TD*
D41*
G04 #@! TO.C,C1*
X26100000Y-34350000D03*
X24200000Y-34350000D03*
G04 #@! TD*
D33*
G04 #@! TO.C,C8*
X24720000Y-13450000D03*
X25680000Y-13450000D03*
G04 #@! TD*
%LPD*%
M02*
