0
SECTION
2
HEADER
9
$ACADVER
1
AC1009
9
$INSUNITS
70
4
0
ENDSEC
0
SECTION
2
TABLES
0
TABLE
2
LTYPE
70
1
0
LTYPE
2
CONTINUOUS
70
0
3
Solid line
72
65
73
0
40
0
0
ENDTAB
0
TABLE
2
LAYER
70
3
0
LAYER
2
Edge.Cuts
70
0
62
2
6
CONTINUOUS
0
LAYER
2
F.Courtyard
70
0
62
1
6
CONTINUOUS
0
LAYER
2
B.Courtyard
70
0
62
5
6
CONTINUOUS
0
ENDTAB
0
ENDSEC
0
SECTION
2
ENTITIES
0
ARC
8
Edge.Cuts
10
19.07502
20
-22.62502
40
1.00002
50
90.001146
51
179.998854
0
LINE
8
Edge.Cuts
10
18.075
20
-44.375
11
18.075
21
-22.625
0
LINE
8
Edge.Cuts
10
19.075
20
-21.625
11
35.9204
21
-21.625
0
ARC
8
Edge.Cuts
10
19.07502
20
-44.37498
40
1.00002
50
180.001146
51
269.998854
0
LINE
8
Edge.Cuts
10
35.7706
20
-45.375
11
19.075
21
-45.375
0
ARC
8
Edge.Cuts
10
35.770704
20
-46.374884
40
0.999884
50
24.244519
51
90.005985
0
ARC
8
Edge.Cuts
10
35.920649
20
-20.625448
40
0.999552
50
269.98575
51
331.192532
0
ARC
8
Edge.Cuts
10
39.599988
20
-22.649998
40
3.200012
50
359.999958
51
151.173842
0
LINE
8
Edge.Cuts
10
42.8
20
-22.65
11
42.8
21
-44.65
0
ARC
8
Edge.Cuts
10
39.600016
20
-44.64999
40
3.199984
50
204.250317
51
359.999826
0
LINE
8
F.Courtyard
10
36.475
20
-26.265
11
42.775
21
-26.265
0
LINE
8
F.Courtyard
10
36.475
20
-40.765
11
36.475
21
-26.265
0
LINE
8
F.Courtyard
10
42.775
20
-26.265
11
42.775
21
-40.765
0
LINE
8
F.Courtyard
10
42.775
20
-40.765
11
36.475
21
-40.765
0
LINE
8
B.Courtyard
10
20.8
20
-41.1
11
24
21
-41.1
0
LINE
8
B.Courtyard
10
20.8
20
-43
11
20.8
21
-41.1
0
LINE
8
B.Courtyard
10
20.8
20
-43
11
24
21
-43
0
LINE
8
B.Courtyard
10
24
20
-43
11
24
21
-41.1
0
CIRCLE
8
Edge.Cuts
10
39.6
20
-22.65
40
1.850009
0
CIRCLE
8
Edge.Cuts
10
39.6
20
-44.65
40
1.850009
0
LINE
8
F.Courtyard
10
22.4
20
-19.65
11
28.3
21
-19.65
0
LINE
8
F.Courtyard
10
22.4
20
-27.5
11
22.4
21
-19.65
0
LINE
8
F.Courtyard
10
23.35
20
-25.9
11
23.35
21
-27.5
0
LINE
8
F.Courtyard
10
23.35
20
-27.5
11
22.4
21
-27.5
0
LINE
8
F.Courtyard
10
25.35
20
-25.9
11
23.35
21
-25.9
0
LINE
8
F.Courtyard
10
27.35
20
-25.9
11
25.35
21
-25.9
0
LINE
8
F.Courtyard
10
27.35
20
-27.5
11
27.35
21
-25.9
0
LINE
8
F.Courtyard
10
28.3
20
-19.65
11
28.3
21
-27.5
0
LINE
8
F.Courtyard
10
28.3
20
-27.5
11
27.35
21
-27.5
0
LINE
8
F.Courtyard
10
29.65
20
-33.06
11
29.65
21
-35.56
0
LINE
8
F.Courtyard
10
29.65
20
-33.06
11
34.25
21
-33.06
0
LINE
8
F.Courtyard
10
34.25
20
-35.56
11
29.65
21
-35.56
0
LINE
8
F.Courtyard
10
34.25
20
-35.56
11
34.25
21
-33.06
0
LINE
8
F.Courtyard
10
29.65
20
-30.4
11
29.65
21
-32.9
0
LINE
8
F.Courtyard
10
29.65
20
-30.4
11
34.25
21
-30.4
0
LINE
8
F.Courtyard
10
34.25
20
-32.9
11
29.65
21
-32.9
0
LINE
8
F.Courtyard
10
34.25
20
-32.9
11
34.25
21
-30.4
0
LINE
8
F.Courtyard
10
25
20
-27.9
11
25
21
-30.4
0
LINE
8
F.Courtyard
10
25
20
-27.9
11
28.3
21
-27.9
0
LINE
8
F.Courtyard
10
28.3
20
-30.4
11
25
21
-30.4
0
LINE
8
F.Courtyard
10
28.3
20
-30.4
11
28.3
21
-27.9
0
LINE
8
F.Courtyard
10
21.55
20
-27.9
11
21.55
21
-30.4
0
LINE
8
F.Courtyard
10
21.55
20
-27.9
11
24.85
21
-27.9
0
LINE
8
F.Courtyard
10
24.85
20
-30.4
11
21.55
21
-30.4
0
LINE
8
F.Courtyard
10
24.85
20
-30.4
11
24.85
21
-27.9
0
CIRCLE
8
F.Courtyard
10
27.25
20
-41
40
1.25
0
CIRCLE
8
F.Courtyard
10
24.66
20
-41
40
1.25
0
CIRCLE
8
F.Courtyard
10
31.01
20
-43.65
40
1.25
0
CIRCLE
8
F.Courtyard
10
28.469999
20
-43.65
40
1.25
0
CIRCLE
8
F.Courtyard
10
30
20
-41
40
1.25
0
CIRCLE
8
F.Courtyard
10
23.39
20
-43.65
40
1.25
0
CIRCLE
8
F.Courtyard
10
25.93
20
-43.65
40
1.25
0
LINE
8
F.Courtyard
10
17.95
20
-21.5
11
17.95
21
-46.7
0
LINE
8
F.Courtyard
10
17.95
20
-46.7
11
36.45
21
-46.7
0
LINE
8
F.Courtyard
10
36.45
20
-21.5
11
17.95
21
-21.5
0
LINE
8
F.Courtyard
10
36.45
20
-46.7
11
36.45
21
-21.5
0
CIRCLE
8
F.Courtyard
10
34.82
20
-38.58
40
0.5
0
CIRCLE
8
F.Courtyard
10
34.82
20
-36.04
40
0.5
0
CIRCLE
8
F.Courtyard
10
34.82
20
-33.5
40
0.5
0
CIRCLE
8
F.Courtyard
10
19.58
20
-38.58
40
0.5
0
CIRCLE
8
F.Courtyard
10
34.82
20
-30.96
40
0.5
0
CIRCLE
8
F.Courtyard
10
34.82
20
-28.42
40
0.5
0
CIRCLE
8
F.Courtyard
10
19.58
20
-43.66
40
0.5
0
CIRCLE
8
F.Courtyard
10
34.82
20
-25.88
40
0.5
0
CIRCLE
8
F.Courtyard
10
34.82
20
-23.34
40
0.5
0
CIRCLE
8
F.Courtyard
10
19.58
20
-23.34
40
0.5
0
CIRCLE
8
F.Courtyard
10
19.58
20
-25.88
40
0.5
0
CIRCLE
8
F.Courtyard
10
19.58
20
-28.42
40
0.5
0
CIRCLE
8
F.Courtyard
10
19.58
20
-30.96
40
0.5
0
CIRCLE
8
F.Courtyard
10
19.58
20
-33.5
40
0.5
0
CIRCLE
8
F.Courtyard
10
19.58
20
-36.04
40
0.5
0
CIRCLE
8
F.Courtyard
10
19.58
20
-41.12
40
0.5
0
CIRCLE
8
F.Courtyard
10
34.82
20
-41.12
40
0.5
0
CIRCLE
8
F.Courtyard
10
34.82
20
-43.66
40
0.5
0
LINE
8
B.Courtyard
10
27.92
20
-24.82
11
27.92
21
-27.08
0
LINE
8
B.Courtyard
10
27.92
20
-27.08
11
28.3
21
-27.08
0
LINE
8
B.Courtyard
10
28.3
20
-24.2
11
28.3
21
-24.82
0
LINE
8
B.Courtyard
10
28.3
20
-24.82
11
27.92
21
-24.82
0
LINE
8
B.Courtyard
10
28.3
20
-27.08
11
28.3
21
-27.7
0
LINE
8
B.Courtyard
10
28.3
20
-27.7
11
28.92
21
-27.7
0
LINE
8
B.Courtyard
10
28.92
20
-23.82
11
28.92
21
-24.2
0
LINE
8
B.Courtyard
10
28.92
20
-24.2
11
28.3
21
-24.2
0
LINE
8
B.Courtyard
10
28.92
20
-27.7
11
28.92
21
-28.08
0
LINE
8
B.Courtyard
10
28.92
20
-28.08
11
31.18
21
-28.08
0
LINE
8
B.Courtyard
10
31.18
20
-23.82
11
28.92
21
-23.82
0
LINE
8
B.Courtyard
10
31.18
20
-24.2
11
31.18
21
-23.82
0
LINE
8
B.Courtyard
10
31.18
20
-27.7
11
31.8
21
-27.7
0
LINE
8
B.Courtyard
10
31.18
20
-28.08
11
31.18
21
-27.7
0
LINE
8
B.Courtyard
10
31.8
20
-24.2
11
31.18
21
-24.2
0
LINE
8
B.Courtyard
10
31.8
20
-24.82
11
31.8
21
-24.2
0
LINE
8
B.Courtyard
10
31.8
20
-27.08
11
32.18
21
-27.08
0
LINE
8
B.Courtyard
10
31.8
20
-27.7
11
31.8
21
-27.08
0
LINE
8
B.Courtyard
10
32.18
20
-24.82
11
31.8
21
-24.82
0
LINE
8
B.Courtyard
10
32.18
20
-27.08
11
32.18
21
-24.82
0
LINE
8
B.Courtyard
10
21.7
20
-36.25
11
21.7
21
-39.25
0
LINE
8
B.Courtyard
10
21.7
20
-39.25
11
24.7
21
-39.25
0
LINE
8
B.Courtyard
10
24.7
20
-36.25
11
21.7
21
-36.25
0
LINE
8
B.Courtyard
10
24.7
20
-39.25
11
24.7
21
-36.25
0
LINE
8
B.Courtyard
10
29.2
20
-39.65
11
29.2
21
-42.65
0
LINE
8
B.Courtyard
10
29.2
20
-42.65
11
30.2
21
-42.65
0
LINE
8
B.Courtyard
10
30.2
20
-39.45
11
30.2
21
-39.65
0
LINE
8
B.Courtyard
10
30.2
20
-39.65
11
29.2
21
-39.65
0
LINE
8
B.Courtyard
10
30.2
20
-42.65
11
30.2
21
-42.85
0
LINE
8
B.Courtyard
10
30.2
20
-42.85
11
32.3
21
-42.85
0
LINE
8
B.Courtyard
10
32.3
20
-39.45
11
30.2
21
-39.45
0
LINE
8
B.Courtyard
10
32.3
20
-39.65
11
32.3
21
-39.45
0
LINE
8
B.Courtyard
10
32.3
20
-42.65
11
33.3
21
-42.65
0
LINE
8
B.Courtyard
10
32.3
20
-42.85
11
32.3
21
-42.65
0
LINE
8
B.Courtyard
10
33.3
20
-39.65
11
32.3
21
-39.65
0
LINE
8
B.Courtyard
10
33.3
20
-42.65
11
33.3
21
-39.65
0
LINE
8
F.Courtyard
10
22.1
20
-33.09
11
23.6
21
-33.09
0
LINE
8
F.Courtyard
10
22.1
20
-38.01
11
22.1
21
-33.09
0
LINE
8
F.Courtyard
10
23.6
20
-32.85
11
28
21
-32.85
0
LINE
8
F.Courtyard
10
23.6
20
-33.09
11
23.6
21
-32.85
0
LINE
8
F.Courtyard
10
23.6
20
-38.01
11
22.1
21
-38.01
0
LINE
8
F.Courtyard
10
23.6
20
-38.25
11
23.6
21
-38.01
0
LINE
8
F.Courtyard
10
28
20
-32.85
11
28
21
-33.09
0
LINE
8
F.Courtyard
10
28
20
-33.09
11
29.5
21
-33.09
0
LINE
8
F.Courtyard
10
28
20
-38.01
11
28
21
-38.25
0
LINE
8
F.Courtyard
10
28
20
-38.25
11
23.6
21
-38.25
0
LINE
8
F.Courtyard
10
29.5
20
-33.09
11
29.5
21
-38.01
0
LINE
8
F.Courtyard
10
29.5
20
-38.01
11
28
21
-38.01
0
ENDSEC
0
EOF
