0
SECTION
2
HEADER
9
$ACADVER
1
AC1009
9
$INSUNITS
70
4
0
ENDSEC
0
SECTION
2
TABLES
0
TABLE
2
LTYPE
70
1
0
LTYPE
2
CONTINUOUS
70
0
3
Solid line
72
65
73
0
40
0
0
ENDTAB
0
TABLE
2
LAYER
70
3
0
LAYER
2
Edge.Cuts
70
0
62
2
6
CONTINUOUS
0
LAYER
2
F.Courtyard
70
0
62
1
6
CONTINUOUS
0
LAYER
2
B.Courtyard
70
0
62
5
6
CONTINUOUS
0
ENDTAB
0
ENDSEC
0
SECTION
2
ENTITIES
0
ARC
8
Edge.Cuts
10
13
20
-13
40
1
50
90
51
180
0
LINE
8
Edge.Cuts
10
12
20
-34.7
11
12
21
-13
0
LINE
8
Edge.Cuts
10
13
20
-12
11
36
21
-12
0
ARC
8
Edge.Cuts
10
13
20
-34.7
40
1
50
180
51
270
0
CIRCLE
8
Edge.Cuts
10
25.864
20
-22.1
40
1.25
0
ARC
8
Edge.Cuts
10
36
20
-13
40
1
50
0
51
90
0
LINE
8
Edge.Cuts
10
36
20
-35.7
11
13
21
-35.7
0
LINE
8
Edge.Cuts
10
37
20
-13
11
37
21
-34.7
0
ARC
8
Edge.Cuts
10
36
20
-34.7
40
1
50
270
51
0
0
LINE
8
B.Courtyard
10
14.7
20
-31.45
11
17.9
21
-31.45
0
LINE
8
B.Courtyard
10
14.7
20
-33.35
11
14.7
21
-31.45
0
LINE
8
B.Courtyard
10
14.7
20
-33.35
11
17.9
21
-33.35
0
LINE
8
B.Courtyard
10
17.9
20
-33.35
11
17.9
21
-31.45
0
CIRCLE
8
Edge.Cuts
10
33.299999
20
-15.35
40
1.850009
0
CIRCLE
8
Edge.Cuts
10
33.299999
20
-32.35
40
1.850009
0
LINE
8
B.Courtyard
10
30.9975
20
-19.38
11
30.9975
21
-28.32
0
LINE
8
B.Courtyard
10
30.9975
20
-28.32
11
38.3475
21
-28.32
0
LINE
8
B.Courtyard
10
38.3475
20
-19.38
11
30.9975
21
-19.38
0
LINE
8
B.Courtyard
10
38.3475
20
-28.32
11
38.3475
21
-19.38
0
LINE
8
F.Courtyard
10
16.3
20
-11.04
11
22.2
21
-11.04
0
LINE
8
F.Courtyard
10
16.3
20
-18.89
11
16.3
21
-11.04
0
LINE
8
F.Courtyard
10
17.25
20
-17.29
11
17.25
21
-18.89
0
LINE
8
F.Courtyard
10
17.25
20
-18.89
11
16.3
21
-18.89
0
LINE
8
F.Courtyard
10
19.25
20
-17.29
11
17.25
21
-17.29
0
LINE
8
F.Courtyard
10
21.25
20
-17.29
11
19.25
21
-17.29
0
LINE
8
F.Courtyard
10
21.25
20
-18.89
11
21.25
21
-17.29
0
LINE
8
F.Courtyard
10
22.2
20
-11.04
11
22.2
21
-18.89
0
LINE
8
F.Courtyard
10
22.2
20
-18.89
11
21.25
21
-18.89
0
CIRCLE
8
F.Courtyard
10
21.1
20
-30.75
40
1.25
0
CIRCLE
8
F.Courtyard
10
18.56
20
-30.75
40
1.25
0
CIRCLE
8
F.Courtyard
10
24.91
20
-34
40
1.25
0
CIRCLE
8
F.Courtyard
10
22.369999
20
-34
40
1.25
0
CIRCLE
8
F.Courtyard
10
23.64
20
-30.75
40
1.25
0
CIRCLE
8
F.Courtyard
10
17.29
20
-34
40
1.25
0
CIRCLE
8
F.Courtyard
10
19.83
20
-34
40
1.25
0
CIRCLE
8
F.Courtyard
10
35.2
20
-22.6
40
1.25
0
CIRCLE
8
F.Courtyard
10
35.2
20
-25.14
40
1.25
0
CIRCLE
8
B.Courtyard
10
20.2
20
-28.95
40
1
0
CIRCLE
8
B.Courtyard
10
17.66
20
-28.95
40
1
0
LINE
8
F.Courtyard
10
11.85
20
-11.85
11
11.85
21
-37.05
0
LINE
8
F.Courtyard
10
11.85
20
-37.05
11
30.35
21
-37.05
0
LINE
8
F.Courtyard
10
30.35
20
-11.85
11
11.85
21
-11.85
0
LINE
8
F.Courtyard
10
30.35
20
-37.05
11
30.35
21
-11.85
0
CIRCLE
8
F.Courtyard
10
28.72
20
-28.93
40
0.5
0
CIRCLE
8
F.Courtyard
10
28.72
20
-26.39
40
0.5
0
CIRCLE
8
F.Courtyard
10
28.72
20
-23.85
40
0.5
0
CIRCLE
8
F.Courtyard
10
13.48
20
-28.93
40
0.5
0
CIRCLE
8
F.Courtyard
10
28.72
20
-21.31
40
0.5
0
CIRCLE
8
F.Courtyard
10
28.72
20
-18.77
40
0.5
0
CIRCLE
8
F.Courtyard
10
13.48
20
-34.01
40
0.5
0
CIRCLE
8
F.Courtyard
10
28.72
20
-16.23
40
0.5
0
CIRCLE
8
F.Courtyard
10
28.72
20
-13.69
40
0.5
0
CIRCLE
8
F.Courtyard
10
13.48
20
-13.69
40
0.5
0
CIRCLE
8
F.Courtyard
10
13.48
20
-16.23
40
0.5
0
CIRCLE
8
F.Courtyard
10
13.48
20
-18.77
40
0.5
0
CIRCLE
8
F.Courtyard
10
13.48
20
-21.31
40
0.5
0
CIRCLE
8
F.Courtyard
10
13.48
20
-23.85
40
0.5
0
CIRCLE
8
F.Courtyard
10
13.48
20
-26.35
40
0.5
0
CIRCLE
8
F.Courtyard
10
13.48
20
-31.47
40
0.5
0
CIRCLE
8
F.Courtyard
10
28.72
20
-31.47
40
0.5
0
CIRCLE
8
F.Courtyard
10
28.72
20
-34.01
40
0.5
0
LINE
8
B.Courtyard
10
21.82
20
-15.17
11
21.82
21
-17.43
0
LINE
8
B.Courtyard
10
21.82
20
-17.43
11
22.2
21
-17.43
0
LINE
8
B.Courtyard
10
22.2
20
-14.55
11
22.2
21
-15.17
0
LINE
8
B.Courtyard
10
22.2
20
-15.17
11
21.82
21
-15.17
0
LINE
8
B.Courtyard
10
22.2
20
-17.43
11
22.2
21
-18.05
0
LINE
8
B.Courtyard
10
22.2
20
-18.05
11
22.82
21
-18.05
0
LINE
8
B.Courtyard
10
22.82
20
-14.17
11
22.82
21
-14.55
0
LINE
8
B.Courtyard
10
22.82
20
-14.55
11
22.2
21
-14.55
0
LINE
8
B.Courtyard
10
22.82
20
-18.05
11
22.82
21
-18.43
0
LINE
8
B.Courtyard
10
22.82
20
-18.43
11
25.08
21
-18.43
0
LINE
8
B.Courtyard
10
25.08
20
-14.17
11
22.82
21
-14.17
0
LINE
8
B.Courtyard
10
25.08
20
-14.55
11
25.08
21
-14.17
0
LINE
8
B.Courtyard
10
25.08
20
-18.05
11
25.7
21
-18.05
0
LINE
8
B.Courtyard
10
25.08
20
-18.43
11
25.08
21
-18.05
0
LINE
8
B.Courtyard
10
25.7
20
-14.55
11
25.08
21
-14.55
0
LINE
8
B.Courtyard
10
25.7
20
-15.17
11
25.7
21
-14.55
0
LINE
8
B.Courtyard
10
25.7
20
-17.43
11
26.08
21
-17.43
0
LINE
8
B.Courtyard
10
25.7
20
-18.05
11
25.7
21
-17.43
0
LINE
8
B.Courtyard
10
26.08
20
-15.17
11
25.7
21
-15.17
0
LINE
8
B.Courtyard
10
26.08
20
-17.43
11
26.08
21
-15.17
0
LINE
8
B.Courtyard
10
15.6
20
-23.1
11
15.6
21
-26.1
0
LINE
8
B.Courtyard
10
15.6
20
-26.1
11
18.6
21
-26.1
0
LINE
8
B.Courtyard
10
18.6
20
-23.1
11
15.6
21
-23.1
0
LINE
8
B.Courtyard
10
18.6
20
-26.1
11
18.6
21
-23.1
0
LINE
8
B.Courtyard
10
23.1
20
-30
11
23.1
21
-33
0
LINE
8
B.Courtyard
10
23.1
20
-33
11
24.1
21
-33
0
LINE
8
B.Courtyard
10
24.1
20
-29.8
11
24.1
21
-30
0
LINE
8
B.Courtyard
10
24.1
20
-30
11
23.1
21
-30
0
LINE
8
B.Courtyard
10
24.1
20
-33
11
24.1
21
-33.2
0
LINE
8
B.Courtyard
10
24.1
20
-33.2
11
26.2
21
-33.2
0
LINE
8
B.Courtyard
10
26.2
20
-29.8
11
24.1
21
-29.8
0
LINE
8
B.Courtyard
10
26.2
20
-30
11
26.2
21
-29.8
0
LINE
8
B.Courtyard
10
26.2
20
-33
11
27.2
21
-33
0
LINE
8
B.Courtyard
10
26.2
20
-33.2
11
26.2
21
-33
0
LINE
8
B.Courtyard
10
27.2
20
-30
11
26.2
21
-30
0
LINE
8
B.Courtyard
10
27.2
20
-33
11
27.2
21
-30
0
ENDSEC
0
EOF
